<svg xmlns="http://www.w3.org/2000/svg" xmlns:xlink="http://www.w3.org/1999/xlink" contentStyleType="text/css" data-diagram-type="ACTIVITY" height="1677px" preserveAspectRatio="none" style="width:640px;height:1677px;background:#FFFFFF;" version="1.1" viewBox="0 0 640 1677" width="640px" zoomAndPan="magnify"><title>Flash Typing Test Platform
Core User Journey</title><defs/><g><g class="title" data-source-line="11"><text fill="#000000" font-family="Verdana" font-size="22" font-weight="bold" lengthAdjust="spacing" textLength="334.2217" x="151.473" y="35.4209">Flash Typing Test Platform</text><text fill="#000000" font-family="Verdana" font-size="22" font-weight="bold" lengthAdjust="spacing" textLength="223.8135" x="206.6771" y="61.0303">Core User Journey</text></g><ellipse cx="280.1643" cy="87.2188" fill="#FFFFFF" rx="10" ry="10" style="stroke:#000000;stroke-width:1;"/><rect fill="#E8F4FD" height="33.9688" rx="12.5" ry="12.5" style="stroke:#1976D2;stroke-width:1;" width="100.4668" x="229.9309" y="117.2188"/><text fill="#000000" font-family="Verdana" font-size="12" lengthAdjust="spacing" textLength="80.4668" x="239.9309" y="138.3574">Visit Platform</text><polygon fill="#E8F4FD" points="262.3108,171.1875,298.0178,171.1875,310.0178,183.1875,298.0178,195.1875,262.3108,195.1875,250.3108,183.1875,262.3108,171.1875" style="stroke:#1976D2;stroke-width:1;"/><text fill="#000000" font-family="Verdana" font-size="11" lengthAdjust="spacing" textLength="35.707" x="262.3108" y="186.9956">Login?</text><text fill="#000000" font-family="Verdana" font-size="11" lengthAdjust="spacing" textLength="19.0083" x="231.3025" y="180.5933">yes</text><text fill="#000000" font-family="Verdana" font-size="11" lengthAdjust="spacing" textLength="30.7656" x="310.0178" y="180.5933">guest</text><rect fill="#E8F4FD" height="33.9688" rx="12.5" ry="12.5" style="stroke:#1976D2;stroke-width:1;" width="124.3027" x="100.2339" y="205.1875"/><text fill="#000000" font-family="Verdana" font-size="12" lengthAdjust="spacing" textLength="104.3027" x="110.2339" y="226.3262">Enter Credentials</text><polygon fill="#E8F4FD" points="145.7859,259.1563,178.9846,259.1563,190.9846,271.1563,178.9846,283.1563,145.7859,283.1563,133.7859,271.1563,145.7859,259.1563" style="stroke:#1976D2;stroke-width:1;"/><text fill="#000000" font-family="Verdana" font-size="11" lengthAdjust="spacing" textLength="33.1987" x="145.7859" y="274.9644">Valid?</text><text fill="#000000" font-family="Verdana" font-size="11" lengthAdjust="spacing" textLength="19.0083" x="114.7776" y="268.562">yes</text><text fill="#000000" font-family="Verdana" font-size="11" lengthAdjust="spacing" textLength="13.7017" x="190.9846" y="268.562">no</text><rect fill="#E8F4FD" height="33.9688" rx="12.5" ry="12.5" style="stroke:#1976D2;stroke-width:1;" width="154.4082" x="6" y="293.1563"/><text fill="#000000" font-family="Verdana" font-size="12" lengthAdjust="spacing" textLength="134.4082" x="16" y="314.2949">Authenticated Session</text><rect fill="#E8F4FD" height="33.9688" rx="12.5" ry="12.5" style="stroke:#1976D2;stroke-width:1;" width="122.3164" x="180.4082" y="293.1563"/><text fill="#000000" font-family="Verdana" font-size="12" lengthAdjust="spacing" textLength="102.3164" x="190.4082" y="314.2949">Show Login Error</text><ellipse cx="241.5664" cy="358.125" fill="none" rx="11" ry="11" style="stroke:#000000;stroke-width:1;"/><ellipse cx="241.5664" cy="358.125" fill="#FFFFFF" rx="6" ry="6" style="stroke:#000000;stroke-width:1;"/><rect fill="#E8F4FD" height="33.9688" rx="12.5" ry="12.5" style="stroke:#1976D2;stroke-width:1;" width="130.4375" x="332.7246" y="205.1875"/><text fill="#000000" font-family="Verdana" font-size="12" lengthAdjust="spacing" textLength="110.4375" x="342.7246" y="226.3262">Continue as Guest</text><polygon fill="#E8F4FD" points="280.1643,379.125,292.1643,391.125,280.1643,403.125,268.1643,391.125,280.1643,379.125" style="stroke:#1976D2;stroke-width:1;"/><path d="M375.2825,427.543 L375.2825,436.1094 L355.2825,440.1094 L375.2825,444.1094 L375.2825,452.6758 A0,0 0 0 0 375.2825,452.6758 L535.5374,452.6758 A0,0 0 0 0 535.5374,452.6758 L535.5374,437.543 L525.5374,427.543 L375.2825,427.543 A0,0 0 0 0 375.2825,427.543" fill="#FFFFFF" style="stroke:#000000;stroke-width:1;"/><path d="M525.5374,427.543 L525.5374,437.543 L535.5374,437.543 L525.5374,427.543" fill="#FFFFFF" style="stroke:#000000;stroke-width:1;"/><text fill="#000000" font-family="Verdana" font-size="13" lengthAdjust="spacing" textLength="139.2549" x="381.2825" y="444.6099">Easy / Medium / Hard</text><rect fill="#E8F4FD" height="33.9688" rx="12.5" ry="12.5" style="stroke:#1976D2;stroke-width:1;" width="150.2363" x="205.0461" y="423.125"/><text fill="#000000" font-family="Verdana" font-size="12" lengthAdjust="spacing" textLength="130.2363" x="215.0461" y="444.2637">Select Difficulty Level</text><rect fill="#E8F4FD" height="33.9688" rx="12.5" ry="12.5" style="stroke:#1976D2;stroke-width:1;" width="144.125" x="208.1018" y="477.0938"/><text fill="#000000" font-family="Verdana" font-size="12" lengthAdjust="spacing" textLength="124.125" x="218.1018" y="498.2324">Initialize Typing Test</text><rect fill="#000000" height="6" rx="2.5" ry="2.5" style="stroke:#000000;stroke-width:1;" width="452.5488" x="53.8899" y="531.0625"/><rect fill="#E8F4FD" height="33.9688" rx="12.5" ry="12.5" style="stroke:#1976D2;stroke-width:1;" width="87.7988" x="67.8899" y="557.0625"/><text fill="#000000" font-family="Verdana" font-size="12" lengthAdjust="spacing" textLength="67.7988" x="77.8899" y="578.2012">Start Timer</text><rect fill="#E8F4FD" height="33.9688" rx="12.5" ry="12.5" style="stroke:#1976D2;stroke-width:1;" width="124.0508" x="183.6887" y="557.0625"/><text fill="#000000" font-family="Verdana" font-size="12" lengthAdjust="spacing" textLength="104.0508" x="193.6887" y="578.2012">Display Test Text</text><rect fill="#E8F4FD" height="33.9688" rx="12.5" ry="12.5" style="stroke:#1976D2;stroke-width:1;" width="156.6992" x="335.7395" y="557.0625"/><text fill="#000000" font-family="Verdana" font-size="12" lengthAdjust="spacing" textLength="136.6992" x="345.7395" y="578.2012">Show Virtual Keyboard</text><rect fill="#000000" height="6" rx="2.5" ry="2.5" style="stroke:#000000;stroke-width:1;" width="452.5488" x="53.8899" y="611.0313"/><rect fill="#E8F4FD" height="33.9688" rx="12.5" ry="12.5" style="stroke:#1976D2;stroke-width:1;" width="98.5918" x="230.8684" y="637.0313"/><text fill="#000000" font-family="Verdana" font-size="12" lengthAdjust="spacing" textLength="78.5918" x="240.8684" y="658.1699">Begin Typing</text><rect fill="#E8F4FD" height="33.9688" rx="12.5" ry="12.5" style="stroke:#1976D2;stroke-width:1;" width="129.7285" x="215.3" y="735"/><text fill="#000000" font-family="Verdana" font-size="12" lengthAdjust="spacing" textLength="109.7285" x="225.3" y="756.1387">Process Keystroke</text><path d="M35.2854,793.3203 L35.2854,833.5859 A0,0 0 0 0 35.2854,833.5859 L190.5891,833.5859 A0,0 0 0 0 190.5891,833.5859 L190.5891,817.4531 L210.5891,813.4531 L190.5891,809.4531 L190.5891,803.3203 L180.5891,793.3203 L35.2854,793.3203 A0,0 0 0 0 35.2854,793.3203" fill="#FFFFFF" style="stroke:#000000;stroke-width:1;"/><path d="M180.5891,793.3203 L180.5891,803.3203 L190.5891,803.3203 L180.5891,793.3203" fill="#FFFFFF" style="stroke:#000000;stroke-width:1;"/><text fill="#000000" font-family="Verdana" font-size="13" lengthAdjust="spacing" textLength="131.2251" x="41.2854" y="810.3872">Real-time WPM/CPM</text><text fill="#000000" font-family="Verdana" font-size="13" lengthAdjust="spacing" textLength="134.3037" x="41.2854" y="825.52">Accuracy calculation</text><rect fill="#E8F4FD" height="33.9688" rx="12.5" ry="12.5" style="stroke:#1976D2;stroke-width:1;" width="139.1504" x="210.5891" y="796.4688"/><text fill="#000000" font-family="Verdana" font-size="12" lengthAdjust="spacing" textLength="119.1504" x="220.5891" y="817.6074">Update Live Metrics</text><polygon fill="#E8F4FD" points="280.1643,691,292.1643,703,280.1643,715,268.1643,703,280.1643,691" style="stroke:#1976D2;stroke-width:1;"/><polygon fill="#E8F4FD" points="233.9756,853.5859,326.353,853.5859,338.353,865.5859,326.353,877.5859,233.9756,877.5859,221.9756,865.5859,233.9756,853.5859" style="stroke:#1976D2;stroke-width:1;"/><text fill="#000000" font-family="Verdana" font-size="11" lengthAdjust="spacing" textLength="92.3774" x="233.9756" y="869.394">Time remaining?</text><text fill="#000000" font-family="Verdana" font-size="11" lengthAdjust="spacing" textLength="19.0083" x="338.353" y="862.9917">yes</text><rect fill="#E8F4FD" height="33.9688" rx="12.5" ry="12.5" style="stroke:#1976D2;stroke-width:1;" width="156.0723" x="202.1282" y="897.5859"/><text fill="#000000" font-family="Verdana" font-size="12" lengthAdjust="spacing" textLength="136.0723" x="212.1282" y="918.7246">Calculate Final Results</text><polygon fill="#E8F4FD" points="224.0901,951.5547,336.2385,951.5547,348.2385,963.5547,336.2385,975.5547,224.0901,975.5547,212.0901,963.5547,224.0901,951.5547" style="stroke:#1976D2;stroke-width:1;"/><text fill="#000000" font-family="Verdana" font-size="11" lengthAdjust="spacing" textLength="112.1484" x="224.0901" y="967.3628">Authenticated User?</text><text fill="#000000" font-family="Verdana" font-size="11" lengthAdjust="spacing" textLength="19.0083" x="193.0818" y="960.9604">yes</text><text fill="#000000" font-family="Verdana" font-size="11" lengthAdjust="spacing" textLength="30.7656" x="348.2385" y="960.9604">guest</text><rect fill="#E8F4FD" height="33.9688" rx="12.5" ry="12.5" style="stroke:#1976D2;stroke-width:1;" width="126.3887" x="111.4358" y="985.5547"/><text fill="#000000" font-family="Verdana" font-size="12" lengthAdjust="spacing" textLength="106.3887" x="121.4358" y="1006.6934">Save to Database</text><rect fill="#E8F4FD" height="33.9688" rx="12.5" ry="12.5" style="stroke:#1976D2;stroke-width:1;" width="152.8027" x="98.2288" y="1039.5234"/><text fill="#000000" font-family="Verdana" font-size="12" lengthAdjust="spacing" textLength="132.8027" x="108.2288" y="1060.6621">Display Saved Results</text><rect fill="#E8F4FD" height="33.9688" rx="12.5" ry="12.5" style="stroke:#1976D2;stroke-width:1;" width="151.1855" x="99.0374" y="1141.8945"/><text fill="#000000" font-family="Verdana" font-size="12" lengthAdjust="spacing" textLength="131.1855" x="109.0374" y="1163.0332">Show Progress Charts</text><rect fill="#E8F4FD" height="33.9688" rx="12.5" ry="12.5" style="stroke:#1976D2;stroke-width:1;" width="156.7227" x="96.2688" y="1210.8633"/><text fill="#000000" font-family="Verdana" font-size="12" lengthAdjust="spacing" textLength="136.7227" x="106.2688" y="1232.002">Display Historical Data</text><polygon fill="#E8F4FD" points="131.8145,1093.4922,217.4458,1093.4922,229.4458,1105.4922,217.4458,1117.4922,131.8145,1117.4922,119.8145,1105.4922,131.8145,1093.4922" style="stroke:#1976D2;stroke-width:1;"/><text fill="#000000" font-family="Verdana" font-size="11" lengthAdjust="spacing" textLength="19.0083" x="178.6301" y="1127.7026">yes</text><text fill="#000000" font-family="Verdana" font-size="11" lengthAdjust="spacing" textLength="85.6313" x="131.8145" y="1109.3003">View Analytics?</text><polygon fill="#E8F4FD" points="174.6301,1264.832,186.6301,1276.832,174.6301,1288.832,162.6301,1276.832,174.6301,1264.832" style="stroke:#1976D2;stroke-width:1;"/><rect fill="#E8F4FD" height="33.9688" rx="12.5" ry="12.5" style="stroke:#1976D2;stroke-width:1;" width="120.1777" x="114.5413" y="1357.2344"/><text fill="#000000" font-family="Verdana" font-size="12" lengthAdjust="spacing" textLength="100.1777" x="124.5413" y="1378.373">Generate Report</text><rect fill="#E8F4FD" height="33.9688" rx="12.5" ry="12.5" style="stroke:#1976D2;stroke-width:1;" width="104.416" x="122.4221" y="1426.2031"/><text fill="#000000" font-family="Verdana" font-size="12" lengthAdjust="spacing" textLength="84.416" x="132.4221" y="1447.3418">Download File</text><polygon fill="#E8F4FD" points="122.5171,1308.832,226.7432,1308.832,238.7432,1320.832,226.7432,1332.832,122.5171,1332.832,110.5171,1320.832,122.5171,1308.832" style="stroke:#1976D2;stroke-width:1;"/><text fill="#000000" font-family="Verdana" font-size="11" lengthAdjust="spacing" textLength="19.0083" x="178.6301" y="1343.0425">yes</text><text fill="#000000" font-family="Verdana" font-size="11" lengthAdjust="spacing" textLength="104.2261" x="122.5171" y="1324.6401">Download Results?</text><polygon fill="#E8F4FD" points="174.6301,1480.1719,186.6301,1492.1719,174.6301,1504.1719,162.6301,1492.1719,174.6301,1480.1719" style="stroke:#1976D2;stroke-width:1;"/><path d="M496.4055,989.9727 L496.4055,998.5391 L476.4055,1002.5391 L496.4055,1006.5391 L496.4055,1015.1055 A0,0 0 0 0 496.4055,1015.1055 L633.1677,1015.1055 A0,0 0 0 0 633.1677,1015.1055 L633.1677,999.9727 L623.1677,989.9727 L496.4055,989.9727 A0,0 0 0 0 496.4055,989.9727" fill="#FFFFFF" style="stroke:#000000;stroke-width:1;"/><path d="M623.1677,989.9727 L623.1677,999.9727 L633.1677,999.9727 L623.1677,989.9727" fill="#FFFFFF" style="stroke:#000000;stroke-width:1;"/><text fill="#000000" font-family="Verdana" font-size="13" lengthAdjust="spacing" textLength="115.7622" x="502.4055" y="1007.0396">Results not saved</text><rect fill="#E8F4FD" height="33.9688" rx="12.5" ry="12.5" style="stroke:#1976D2;stroke-width:1;" width="181.4141" x="294.9915" y="985.5547"/><text fill="#000000" font-family="Verdana" font-size="12" lengthAdjust="spacing" textLength="161.4141" x="304.9915" y="1006.6934">Display Temporary Results</text><polygon fill="#E8F4FD" points="280.1643,1510.1719,292.1643,1522.1719,280.1643,1534.1719,268.1643,1522.1719,280.1643,1510.1719" style="stroke:#1976D2;stroke-width:1;"/><polygon fill="#E8F4FD" points="226.7837,1554.1719,333.5449,1554.1719,345.5449,1566.1719,333.5449,1578.1719,226.7837,1578.1719,214.7837,1566.1719,226.7837,1554.1719" style="stroke:#1976D2;stroke-width:1;"/><text fill="#000000" font-family="Verdana" font-size="11" lengthAdjust="spacing" textLength="106.7612" x="226.7837" y="1569.98">Take Another Test?</text><text fill="#000000" font-family="Verdana" font-size="11" lengthAdjust="spacing" textLength="19.0083" x="195.7754" y="1563.5776">yes</text><text fill="#000000" font-family="Verdana" font-size="11" lengthAdjust="spacing" textLength="13.7017" x="345.5449" y="1563.5776">no</text><rect fill="#E8F4FD" height="33.9688" rx="12.5" ry="12.5" style="stroke:#1976D2;stroke-width:1;" width="165.0313" x="122.2681" y="1588.1719"/><text fill="#000000" font-family="Verdana" font-size="12" lengthAdjust="spacing" textLength="145.0313" x="132.2681" y="1609.3105">Return to Test Selection</text><rect fill="#E8F4FD" height="33.9688" rx="12.5" ry="12.5" style="stroke:#1976D2;stroke-width:1;" width="92.4043" x="309.3428" y="1588.1719"/><text fill="#000000" font-family="Verdana" font-size="12" lengthAdjust="spacing" textLength="72.4043" x="319.3428" y="1609.3105">End Session</text><ellipse cx="355.5449" cy="1653.1406" fill="none" rx="11" ry="11" style="stroke:#000000;stroke-width:1;"/><ellipse cx="355.5449" cy="1653.1406" fill="#FFFFFF" rx="6" ry="6" style="stroke:#000000;stroke-width:1;"/><line style="stroke:#000000;stroke-width:1;" x1="280.1643" x2="280.1643" y1="97.2188" y2="117.2188"/><polygon fill="#000000" points="276.1643,107.2188,280.1643,117.2188,284.1643,107.2188,280.1643,111.2188" style="stroke:#000000;stroke-width:1;"/><line style="stroke:#000000;stroke-width:1;" x1="241.5664" x2="241.5664" y1="327.125" y2="347.125"/><polygon fill="#000000" points="237.5664,337.125,241.5664,347.125,245.5664,337.125,241.5664,341.125" style="stroke:#000000;stroke-width:1;"/><line style="stroke:#000000;stroke-width:1;" x1="133.7859" x2="83.2041" y1="271.1563" y2="271.1563"/><line style="stroke:#000000;stroke-width:1;" x1="83.2041" x2="83.2041" y1="271.1563" y2="293.1563"/><polygon fill="#000000" points="79.2041,283.1563,83.2041,293.1563,87.2041,283.1563,83.2041,287.1563" style="stroke:#000000;stroke-width:1;"/><line style="stroke:#000000;stroke-width:1;" x1="190.9846" x2="241.5664" y1="271.1563" y2="271.1563"/><line style="stroke:#000000;stroke-width:1;" x1="241.5664" x2="241.5664" y1="271.1563" y2="293.1563"/><polygon fill="#000000" points="237.5664,283.1563,241.5664,293.1563,245.5664,283.1563,241.5664,287.1563" style="stroke:#000000;stroke-width:1;"/><line style="stroke:#000000;stroke-width:1;" x1="83.2041" x2="83.2041" y1="327.125" y2="391.125"/><line style="stroke:#000000;stroke-width:1;" x1="83.2041" x2="268.1643" y1="391.125" y2="391.125"/><polygon fill="#000000" points="258.1643,387.125,268.1643,391.125,258.1643,395.125,262.1643,391.125" style="stroke:#000000;stroke-width:1;"/><line style="stroke:#000000;stroke-width:1;" x1="162.3853" x2="162.3853" y1="239.1563" y2="259.1563"/><polygon fill="#000000" points="158.3853,249.1563,162.3853,259.1563,166.3853,249.1563,162.3853,253.1563" style="stroke:#000000;stroke-width:1;"/><line style="stroke:#000000;stroke-width:1;" x1="250.3108" x2="162.3853" y1="183.1875" y2="183.1875"/><line style="stroke:#000000;stroke-width:1;" x1="162.3853" x2="162.3853" y1="183.1875" y2="205.1875"/><polygon fill="#000000" points="158.3853,195.1875,162.3853,205.1875,166.3853,195.1875,162.3853,199.1875" style="stroke:#000000;stroke-width:1;"/><line style="stroke:#000000;stroke-width:1;" x1="310.0178" x2="397.9434" y1="183.1875" y2="183.1875"/><line style="stroke:#000000;stroke-width:1;" x1="397.9434" x2="397.9434" y1="183.1875" y2="205.1875"/><polygon fill="#000000" points="393.9434,195.1875,397.9434,205.1875,401.9434,195.1875,397.9434,199.1875" style="stroke:#000000;stroke-width:1;"/><line style="stroke:#000000;stroke-width:1;" x1="397.9434" x2="397.9434" y1="239.1563" y2="391.125"/><line style="stroke:#000000;stroke-width:1;" x1="397.9434" x2="292.1643" y1="391.125" y2="391.125"/><polygon fill="#000000" points="302.1643,387.125,292.1643,391.125,302.1643,395.125,298.1643,391.125" style="stroke:#000000;stroke-width:1;"/><line style="stroke:#000000;stroke-width:1;" x1="280.1643" x2="280.1643" y1="151.1875" y2="171.1875"/><polygon fill="#000000" points="276.1643,161.1875,280.1643,171.1875,284.1643,161.1875,280.1643,165.1875" style="stroke:#000000;stroke-width:1;"/><line style="stroke:#000000;stroke-width:1;" x1="280.1643" x2="280.1643" y1="403.125" y2="423.125"/><polygon fill="#000000" points="276.1643,413.125,280.1643,423.125,284.1643,413.125,280.1643,417.125" style="stroke:#000000;stroke-width:1;"/><line style="stroke:#000000;stroke-width:1;" x1="280.1643" x2="280.1643" y1="457.0938" y2="477.0938"/><polygon fill="#000000" points="276.1643,467.0938,280.1643,477.0938,284.1643,467.0938,280.1643,471.0938" style="stroke:#000000;stroke-width:1;"/><line style="stroke:#000000;stroke-width:1;" x1="111.7893" x2="111.7893" y1="537.0625" y2="557.0625"/><polygon fill="#000000" points="107.7893,547.0625,111.7893,557.0625,115.7893,547.0625,111.7893,551.0625" style="stroke:#000000;stroke-width:1;"/><line style="stroke:#000000;stroke-width:1;" x1="245.7141" x2="245.7141" y1="537.0625" y2="557.0625"/><polygon fill="#000000" points="241.7141,547.0625,245.7141,557.0625,249.7141,547.0625,245.7141,551.0625" style="stroke:#000000;stroke-width:1;"/><line style="stroke:#000000;stroke-width:1;" x1="414.0891" x2="414.0891" y1="537.0625" y2="557.0625"/><polygon fill="#000000" points="410.0891,547.0625,414.0891,557.0625,418.0891,547.0625,414.0891,551.0625" style="stroke:#000000;stroke-width:1;"/><line style="stroke:#000000;stroke-width:1;" x1="111.7893" x2="111.7893" y1="591.0313" y2="611.0313"/><polygon fill="#000000" points="107.7893,601.0313,111.7893,611.0313,115.7893,601.0313,111.7893,605.0313" style="stroke:#000000;stroke-width:1;"/><line style="stroke:#000000;stroke-width:1;" x1="245.7141" x2="245.7141" y1="591.0313" y2="611.0313"/><polygon fill="#000000" points="241.7141,601.0313,245.7141,611.0313,249.7141,601.0313,245.7141,605.0313" style="stroke:#000000;stroke-width:1;"/><line style="stroke:#000000;stroke-width:1;" x1="414.0891" x2="414.0891" y1="591.0313" y2="611.0313"/><polygon fill="#000000" points="410.0891,601.0313,414.0891,611.0313,418.0891,601.0313,414.0891,605.0313" style="stroke:#000000;stroke-width:1;"/><line style="stroke:#000000;stroke-width:1;" x1="280.1643" x2="280.1643" y1="511.0625" y2="531.0625"/><polygon fill="#000000" points="276.1643,521.0625,280.1643,531.0625,284.1643,521.0625,280.1643,525.0625" style="stroke:#000000;stroke-width:1;"/><line style="stroke:#000000;stroke-width:1;" x1="280.1643" x2="280.1643" y1="617.0313" y2="637.0313"/><polygon fill="#000000" points="276.1643,627.0313,280.1643,637.0313,284.1643,627.0313,280.1643,631.0313" style="stroke:#000000;stroke-width:1;"/><line style="stroke:#000000;stroke-width:1;" x1="280.1643" x2="280.1643" y1="768.9688" y2="796.4688"/><polygon fill="#000000" points="276.1643,786.4688,280.1643,796.4688,284.1643,786.4688,280.1643,790.4688" style="stroke:#000000;stroke-width:1;"/><line style="stroke:#000000;stroke-width:1;" x1="280.1643" x2="280.1643" y1="715" y2="735"/><polygon fill="#000000" points="276.1643,725,280.1643,735,284.1643,725,280.1643,729" style="stroke:#000000;stroke-width:1;"/><line style="stroke:#000000;stroke-width:1;" x1="338.353" x2="361.7395" y1="865.5859" y2="865.5859"/><polygon fill="#000000" points="357.7395,788.9688,361.7395,778.9688,365.7395,788.9688,361.7395,784.9688" style="stroke:#000000;stroke-width:1;"/><line style="stroke:#000000;stroke-width:1;" x1="361.7395" x2="361.7395" y1="703" y2="865.5859"/><line style="stroke:#000000;stroke-width:1;" x1="361.7395" x2="292.1643" y1="703" y2="703"/><polygon fill="#000000" points="302.1643,699,292.1643,703,302.1643,707,298.1643,703" style="stroke:#000000;stroke-width:1;"/><line style="stroke:#000000;stroke-width:1;" x1="280.1643" x2="280.1643" y1="830.4375" y2="853.5859"/><polygon fill="#000000" points="276.1643,843.5859,280.1643,853.5859,284.1643,843.5859,280.1643,847.5859" style="stroke:#000000;stroke-width:1;"/><line style="stroke:#000000;stroke-width:1;" x1="280.1643" x2="280.1643" y1="671" y2="691"/><polygon fill="#000000" points="276.1643,681,280.1643,691,284.1643,681,280.1643,685" style="stroke:#000000;stroke-width:1;"/><line style="stroke:#000000;stroke-width:1;" x1="280.1643" x2="280.1643" y1="877.5859" y2="897.5859"/><polygon fill="#000000" points="276.1643,887.5859,280.1643,897.5859,284.1643,887.5859,280.1643,891.5859" style="stroke:#000000;stroke-width:1;"/><line style="stroke:#000000;stroke-width:1;" x1="174.6301" x2="174.6301" y1="1019.5234" y2="1039.5234"/><polygon fill="#000000" points="170.6301,1029.5234,174.6301,1039.5234,178.6301,1029.5234,174.6301,1033.5234" style="stroke:#000000;stroke-width:1;"/><line style="stroke:#000000;stroke-width:1;" x1="174.6301" x2="174.6301" y1="1175.8633" y2="1210.8633"/><polygon fill="#000000" points="170.6301,1200.8633,174.6301,1210.8633,178.6301,1200.8633,174.6301,1204.8633" style="stroke:#000000;stroke-width:1;"/><line style="stroke:#000000;stroke-width:1;" x1="174.6301" x2="174.6301" y1="1117.4922" y2="1141.8945"/><polygon fill="#000000" points="170.6301,1131.8945,174.6301,1141.8945,178.6301,1131.8945,174.6301,1135.8945" style="stroke:#000000;stroke-width:1;"/><line style="stroke:#000000;stroke-width:1;" x1="229.4458" x2="262.9915" y1="1105.4922" y2="1105.4922"/><polygon fill="#000000" points="258.9915,1183.3633,262.9915,1193.3633,266.9915,1183.3633,262.9915,1187.3633" style="stroke:#000000;stroke-width:1;"/><line style="stroke:#000000;stroke-width:1;" x1="262.9915" x2="262.9915" y1="1105.4922" y2="1276.832"/><line style="stroke:#000000;stroke-width:1;" x1="262.9915" x2="186.6301" y1="1276.832" y2="1276.832"/><polygon fill="#000000" points="196.6301,1272.832,186.6301,1276.832,196.6301,1280.832,192.6301,1276.832" style="stroke:#000000;stroke-width:1;"/><line style="stroke:#000000;stroke-width:1;" x1="174.6301" x2="174.6301" y1="1244.832" y2="1264.832"/><polygon fill="#000000" points="170.6301,1254.832,174.6301,1264.832,178.6301,1254.832,174.6301,1258.832" style="stroke:#000000;stroke-width:1;"/><line style="stroke:#000000;stroke-width:1;" x1="174.6301" x2="174.6301" y1="1073.4922" y2="1093.4922"/><polygon fill="#000000" points="170.6301,1083.4922,174.6301,1093.4922,178.6301,1083.4922,174.6301,1087.4922" style="stroke:#000000;stroke-width:1;"/><line style="stroke:#000000;stroke-width:1;" x1="174.6301" x2="174.6301" y1="1391.2031" y2="1426.2031"/><polygon fill="#000000" points="170.6301,1416.2031,174.6301,1426.2031,178.6301,1416.2031,174.6301,1420.2031" style="stroke:#000000;stroke-width:1;"/><line style="stroke:#000000;stroke-width:1;" x1="174.6301" x2="174.6301" y1="1332.832" y2="1357.2344"/><polygon fill="#000000" points="170.6301,1347.2344,174.6301,1357.2344,178.6301,1347.2344,174.6301,1351.2344" style="stroke:#000000;stroke-width:1;"/><line style="stroke:#000000;stroke-width:1;" x1="238.7432" x2="250.7432" y1="1320.832" y2="1320.832"/><polygon fill="#000000" points="246.7432,1398.7031,250.7432,1408.7031,254.7432,1398.7031,250.7432,1402.7031" style="stroke:#000000;stroke-width:1;"/><line style="stroke:#000000;stroke-width:1;" x1="250.7432" x2="250.7432" y1="1320.832" y2="1492.1719"/><line style="stroke:#000000;stroke-width:1;" x1="250.7432" x2="186.6301" y1="1492.1719" y2="1492.1719"/><polygon fill="#000000" points="196.6301,1488.1719,186.6301,1492.1719,196.6301,1496.1719,192.6301,1492.1719" style="stroke:#000000;stroke-width:1;"/><line style="stroke:#000000;stroke-width:1;" x1="174.6301" x2="174.6301" y1="1460.1719" y2="1480.1719"/><polygon fill="#000000" points="170.6301,1470.1719,174.6301,1480.1719,178.6301,1470.1719,174.6301,1474.1719" style="stroke:#000000;stroke-width:1;"/><line style="stroke:#000000;stroke-width:1;" x1="174.6301" x2="174.6301" y1="1288.832" y2="1308.832"/><polygon fill="#000000" points="170.6301,1298.832,174.6301,1308.832,178.6301,1298.832,174.6301,1302.832" style="stroke:#000000;stroke-width:1;"/><line style="stroke:#000000;stroke-width:1;" x1="212.0901" x2="174.6301" y1="963.5547" y2="963.5547"/><line style="stroke:#000000;stroke-width:1;" x1="174.6301" x2="174.6301" y1="963.5547" y2="985.5547"/><polygon fill="#000000" points="170.6301,975.5547,174.6301,985.5547,178.6301,975.5547,174.6301,979.5547" style="stroke:#000000;stroke-width:1;"/><line style="stroke:#000000;stroke-width:1;" x1="348.2385" x2="385.6985" y1="963.5547" y2="963.5547"/><line style="stroke:#000000;stroke-width:1;" x1="385.6985" x2="385.6985" y1="963.5547" y2="985.5547"/><polygon fill="#000000" points="381.6985,975.5547,385.6985,985.5547,389.6985,975.5547,385.6985,979.5547" style="stroke:#000000;stroke-width:1;"/><line style="stroke:#000000;stroke-width:1;" x1="174.6301" x2="174.6301" y1="1504.1719" y2="1522.1719"/><line style="stroke:#000000;stroke-width:1;" x1="174.6301" x2="268.1643" y1="1522.1719" y2="1522.1719"/><polygon fill="#000000" points="258.1643,1518.1719,268.1643,1522.1719,258.1643,1526.1719,262.1643,1522.1719" style="stroke:#000000;stroke-width:1;"/><line style="stroke:#000000;stroke-width:1;" x1="385.6985" x2="385.6985" y1="1019.5234" y2="1522.1719"/><line style="stroke:#000000;stroke-width:1;" x1="385.6985" x2="292.1643" y1="1522.1719" y2="1522.1719"/><polygon fill="#000000" points="302.1643,1518.1719,292.1643,1522.1719,302.1643,1526.1719,298.1643,1522.1719" style="stroke:#000000;stroke-width:1;"/><line style="stroke:#000000;stroke-width:1;" x1="280.1643" x2="280.1643" y1="931.5547" y2="951.5547"/><polygon fill="#000000" points="276.1643,941.5547,280.1643,951.5547,284.1643,941.5547,280.1643,945.5547" style="stroke:#000000;stroke-width:1;"/><line style="stroke:#000000;stroke-width:1;" x1="355.5449" x2="355.5449" y1="1622.1406" y2="1642.1406"/><polygon fill="#000000" points="351.5449,1632.1406,355.5449,1642.1406,359.5449,1632.1406,355.5449,1636.1406" style="stroke:#000000;stroke-width:1;"/><line style="stroke:#000000;stroke-width:1;" x1="214.7837" x2="204.7837" y1="1566.1719" y2="1566.1719"/><line style="stroke:#000000;stroke-width:1;" x1="204.7837" x2="204.7837" y1="1566.1719" y2="1588.1719"/><polygon fill="#000000" points="200.7837,1578.1719,204.7837,1588.1719,208.7837,1578.1719,204.7837,1582.1719" style="stroke:#000000;stroke-width:1;"/><line style="stroke:#000000;stroke-width:1;" x1="345.5449" x2="355.5449" y1="1566.1719" y2="1566.1719"/><line style="stroke:#000000;stroke-width:1;" x1="355.5449" x2="355.5449" y1="1566.1719" y2="1588.1719"/><polygon fill="#000000" points="351.5449,1578.1719,355.5449,1588.1719,359.5449,1578.1719,355.5449,1582.1719" style="stroke:#000000;stroke-width:1;"/><line style="stroke:#000000;stroke-width:1;" x1="204.7837" x2="204.7837" y1="1622.1406" y2="1670.1406"/><line style="stroke:#000000;stroke-width:1;" x1="204.7837" x2="280.1643" y1="1670.1406" y2="1670.1406"/><line style="stroke:#000000;stroke-width:1;" x1="280.1643" x2="280.1643" y1="1534.1719" y2="1554.1719"/><polygon fill="#000000" points="276.1643,1544.1719,280.1643,1554.1719,284.1643,1544.1719,280.1643,1548.1719" style="stroke:#000000;stroke-width:1;"/><!--SRC=[VLHDRzim3BthLt3O9JqCtOPsNPF3qEQZtPO2GP9sbrvOct68A98XoSsyOVzzbEmqoThE9viK-HuVd_mcB6bDK6fae_oAJOaEru1Pu4SEzO2naEzBwt9oy5k1F9UOhGfdAvFthROEtexIq-JImJP-Sdxw_lHC_NcXxskjXfz79wF1yrOVpiy-3JvAAnKuQ8AHHh-4ULsoAM1EFi14OrXOjxutVUi8Rhtm_MOhPwXMoWTqGQdk7NlU7UqfnGleZ6t1viiHY186EZNveuJV7PeWFVgESZA1KVjUYiUIEzISFoz9PHTLZ0REC50EC_AUhMbAINk2Zh5xfsTBku7408REMTTxIlbWowRAvBnGJMrHoQmjlxuL55CHe8Uh6E-fvgZgpaXJ5c30YmLdbHQzn_H8kgUC3GIEYsNemX1z3STmGpbNQtcvHfTBxLV3SLh-HVlwYbOYsQf1daKvOSvh4hun35X4_wJaWBsugMwsCgUVuVcHDFGTkr2XXkzKFrY1JkmXWQZk9KL56do1TbGIXgPuucmceiOw7vnTKIDPzxRCHN4OyoF9JC5nrYuipQnf8IDF2VMx8BpXn-Jck3-vkJSNMLOvp6h8K8jK66HRBHvibYnUwyH1mT5Q-0iTMJlxTkcgss-hn99iP9efUT7RjzOwz4Bqv0i-cw4m3XO66F01_NQUhOundU_wnjpEXqmRk13SMZ3yAuPCQejgXOkozPUoEx-psHFEDOlZH3KP8ZBfxNdl07DWDqPRVABq2keL6N9HbocLreLzm6s3aQZR-w_5TrvQInDqzQ4E-svk4p46FagslGoHynnN93fP8UgICLzOmvI2_2tY8f9pcokKhkxXjPN_mZ_NEjtKXFON]--></g></svg>