<svg xmlns="http://www.w3.org/2000/svg" xmlns:xlink="http://www.w3.org/1999/xlink" contentStyleType="text/css" data-diagram-type="CLASS" height="974px" preserveAspectRatio="none" style="width:1047px;height:974px;background:#FFFFFF;" version="1.1" viewBox="0 0 1047 974" width="1047px" zoomAndPan="magnify"><title>Flash Typing Test Platform
Core Object Model</title><defs/><g><g class="title" data-source-line="12"><text fill="#000000" font-family="Verdana" font-size="22" font-weight="bold" lengthAdjust="spacing" textLength="334.2217" x="352.2051" y="35.4209">Flash Typing Test Platform</text><text fill="#000000" font-family="Verdana" font-size="22" font-weight="bold" lengthAdjust="spacing" textLength="228.0352" x="405.2983" y="61.0303">Core Object Model</text></g><!--class User--><g class="entity" data-entity="User" data-source-line="14" data-uid="ent0002" id="entity_User"><rect fill="#F8F9FA" height="141.7813" rx="2.5" ry="2.5" style="stroke:#495057;stroke-width:1;" width="202.75" x="509.86" y="84.2188"/><ellipse cx="596.0885" cy="98.2188" fill="#FFFFFF" rx="9" ry="9" style="stroke:#000000;stroke-width:1;"/><path d="M599.0573,103.8594 Q598.4791,104.1563 597.8385,104.2969 Q597.1979,104.4531 596.4948,104.4531 Q593.9948,104.4531 592.6666,102.8125 Q591.3541,101.1563 591.3541,98.0313 Q591.3541,94.9063 592.6666,93.25 Q593.9948,91.5938 596.4948,91.5938 Q597.1979,91.5938 597.8385,91.75 Q598.4948,91.9063 599.0573,92.2031 L599.0573,94.9219 Q598.4323,94.3438 597.8385,94.0781 Q597.2448,93.7969 596.6198,93.7969 Q595.276,93.7969 594.5885,94.875 Q593.901,95.9375 593.901,98.0313 Q593.901,100.125 594.5885,101.2031 Q595.276,102.2656 596.6198,102.2656 Q597.2448,102.2656 597.8385,102 Q598.4323,101.7188 599.0573,101.1406 L599.0573,103.8594 Z " fill="#000000"/><text fill="#000000" font-family="Verdana" font-size="10" lengthAdjust="spacing" textLength="22.793" x="613.5885" y="101.6807">User</text><line style="stroke:#495057;stroke-width:1;" x1="510.86" x2="711.61" y1="112.2188" y2="112.2188"/><text fill="#000000" font-family="Verdana" font-size="14" lengthAdjust="spacing" textLength="45.2471" x="515.86" y="129.2139">-id: int</text><text fill="#000000" font-family="Verdana" font-size="14" lengthAdjust="spacing" textLength="124.6465" x="515.86" y="145.5107">-username: string</text><text fill="#000000" font-family="Verdana" font-size="14" lengthAdjust="spacing" textLength="93.0166" x="515.86" y="161.8076">-email: string</text><text fill="#000000" font-family="Verdana" font-size="14" lengthAdjust="spacing" textLength="121.1191" x="515.86" y="178.1045">-password: string</text><line style="stroke:#495057;stroke-width:1;" x1="510.86" x2="711.61" y1="185.4063" y2="185.4063"/><text fill="#000000" font-family="Verdana" font-size="14" lengthAdjust="spacing" textLength="150.7871" x="515.86" y="202.4014">+authenticate(): bool</text><text fill="#000000" font-family="Verdana" font-size="14" lengthAdjust="spacing" textLength="190.75" x="515.86" y="218.6982">+getResults(): TestResult[]</text></g><g class="entity" data-entity="GMN3" data-source-line="24" data-uid="ent0004" id="entity_GMN3"><path d="M747.46,134.9688 L747.46,151.1088 L712.71,155.1088 L747.46,159.1088 L747.46,175.2344 A0,0 0 0 0 747.46,175.2344 L940.9956,175.2344 A0,0 0 0 0 940.9956,175.2344 L940.9956,144.9688 L930.9956,134.9688 L747.46,134.9688 A0,0 0 0 0 747.46,134.9688" fill="#FFFFFF" style="stroke:#000000;stroke-width:1;"/><path d="M930.9956,134.9688 L930.9956,144.9688 L940.9956,144.9688 L930.9956,134.9688" fill="#FFFFFF" style="stroke:#000000;stroke-width:1;"/><text fill="#000000" font-family="Verdana" font-size="13" lengthAdjust="spacing" textLength="126.0264" x="753.46" y="152.0356">Platform users with</text><text fill="#000000" font-family="Verdana" font-size="13" lengthAdjust="spacing" textLength="172.5356" x="753.46" y="167.1685">authentication capabilities</text></g><!--class TypingTest--><g class="entity" data-entity="TypingTest" data-source-line="26" data-uid="ent0006" id="entity_TypingTest"><rect fill="#F8F9FA" height="141.7813" rx="2.5" ry="2.5" style="stroke:#495057;stroke-width:1;" width="195.6748" x="345.39" y="302.9988"/><ellipse cx="411.8627" cy="316.9988" fill="#FFFFFF" rx="9" ry="9" style="stroke:#000000;stroke-width:1;"/><path d="M414.8314,322.6394 Q414.2533,322.9363 413.6127,323.0769 Q412.972,323.2331 412.2689,323.2331 Q409.7689,323.2331 408.4408,321.5925 Q407.1283,319.9363 407.1283,316.8113 Q407.1283,313.6863 408.4408,312.03 Q409.7689,310.3738 412.2689,310.3738 Q412.972,310.3738 413.6127,310.53 Q414.2689,310.6863 414.8314,310.9831 L414.8314,313.7019 Q414.2064,313.1238 413.6127,312.8581 Q413.0189,312.5769 412.3939,312.5769 Q411.0502,312.5769 410.3627,313.655 Q409.6752,314.7175 409.6752,316.8113 Q409.6752,318.905 410.3627,319.9831 Q411.0502,321.0456 412.3939,321.0456 Q413.0189,321.0456 413.6127,320.78 Q414.2064,320.4988 414.8314,319.9206 L414.8314,322.6394 Z " fill="#000000"/><text fill="#000000" font-family="Verdana" font-size="10" lengthAdjust="spacing" textLength="55.2295" x="429.3627" y="320.4607">TypingTest</text><line style="stroke:#495057;stroke-width:1;" x1="346.39" x2="540.0648" y1="330.9988" y2="330.9988"/><text fill="#000000" font-family="Verdana" font-size="14" lengthAdjust="spacing" textLength="112.2324" x="351.39" y="347.9939">-testText: string</text><text fill="#000000" font-family="Verdana" font-size="14" lengthAdjust="spacing" textLength="98.8066" x="351.39" y="364.2907">-timeLimit: int</text><text fill="#000000" font-family="Verdana" font-size="14" lengthAdjust="spacing" textLength="147.3623" x="351.39" y="380.5876">-level: DifficultyLevel</text><line style="stroke:#495057;stroke-width:1;" x1="346.39" x2="540.0648" y1="387.8894" y2="387.8894"/><text fill="#000000" font-family="Verdana" font-size="14" lengthAdjust="spacing" textLength="124.0039" x="351.39" y="404.8845">+startTest(): void</text><text fill="#000000" font-family="Verdana" font-size="14" lengthAdjust="spacing" textLength="182.9023" x="351.39" y="421.1814">+calculateMetrics(): array</text><text fill="#000000" font-family="Verdana" font-size="14" lengthAdjust="spacing" textLength="183.6748" x="351.39" y="437.4782">+submitTest(): TestResult</text></g><g class="entity" data-entity="GMN7" data-source-line="36" data-uid="ent0008" id="entity_GMN7"><path d="M710.73,353.7588 L710.73,394.0244 L913.73,394.0244 L913.73,363.7588 L903.73,353.7588 L710.73,353.7588" fill="#FFFFFF" style="stroke:#000000;stroke-width:1;"/><path d="M903.73,353.7588 L903.73,363.7588 L913.73,363.7588 L903.73,353.7588" fill="#FFFFFF" style="stroke:#000000;stroke-width:1;"/><text fill="#000000" font-family="Verdana" font-size="13" lengthAdjust="spacing" textLength="182" x="716.73" y="370.8256">Core engine for typing tests</text><text fill="#000000" font-family="Verdana" font-size="13" lengthAdjust="spacing" textLength="177.6328" x="716.73" y="385.9585">with WPM/CPM calculations</text></g><!--class DifficultyLevel--><g class="entity" data-entity="DifficultyLevel" data-source-line="38" data-uid="ent0010" id="entity_DifficultyLevel"><rect fill="#F8F9FA" height="109.1875" rx="2.5" ry="2.5" style="stroke:#495057;stroke-width:1;" width="154.4609" x="12" y="546.2188"/><ellipse cx="49.8188" cy="560.2188" fill="#FFFFFF" rx="9" ry="9" style="stroke:#000000;stroke-width:1;"/><path d="M53.9282,566.2188 L46.2095,566.2188 L46.2095,553.8281 L53.9282,553.8281 L53.9282,555.9844 L48.6626,555.9844 L48.6626,558.6563 L53.4282,558.6563 L53.4282,560.8125 L48.6626,560.8125 L48.6626,564.0625 L53.9282,564.0625 L53.9282,566.2188 Z " fill="#000000"/><text fill="#000000" font-family="Verdana" font-size="10" lengthAdjust="spacing" textLength="71.3232" x="67.3188" y="563.6807">DifficultyLevel</text><line style="stroke:#495057;stroke-width:1;" x1="13" x2="165.4609" y1="574.2188" y2="574.2188"/><text fill="#000000" font-family="Verdana" font-size="14" lengthAdjust="spacing" textLength="35.8613" x="18" y="591.2139">EASY</text><text fill="#000000" font-family="Verdana" font-size="14" lengthAdjust="spacing" textLength="58.1602" x="18" y="607.5107">MEDIUM</text><text fill="#000000" font-family="Verdana" font-size="14" lengthAdjust="spacing" textLength="40.6123" x="18" y="623.8076">HARD</text><line style="stroke:#495057;stroke-width:1;" x1="13" x2="165.4609" y1="631.1094" y2="631.1094"/><text fill="#000000" font-family="Verdana" font-size="14" lengthAdjust="spacing" textLength="142.4609" x="18" y="648.1045">+getTimeLimit(): int</text></g><g class="entity" data-entity="GMN11" data-source-line="46" data-uid="ent0012" id="entity_GMN11"><path d="M201.09,580.6788 L201.09,596.8188 L166.93,600.8188 L201.09,604.8188 L201.09,620.9444 A0,0 0 0 0 201.09,620.9444 L419.3752,620.9444 A0,0 0 0 0 419.3752,620.9444 L419.3752,590.6788 L409.3752,580.6788 L201.09,580.6788 A0,0 0 0 0 201.09,580.6788" fill="#FFFFFF" style="stroke:#000000;stroke-width:1;"/><path d="M409.3752,580.6788 L409.3752,590.6788 L419.3752,590.6788 L409.3752,580.6788" fill="#FFFFFF" style="stroke:#000000;stroke-width:1;"/><text fill="#000000" font-family="Verdana" font-size="13" lengthAdjust="spacing" textLength="139.8896" x="207.09" y="597.7456">Three difficulty levels</text><text fill="#000000" font-family="Verdana" font-size="13" lengthAdjust="spacing" textLength="197.2852" x="207.09" y="612.8785">with different time constraints</text></g><!--class TestResult--><g class="entity" data-entity="TestResult" data-source-line="48" data-uid="ent0014" id="entity_TestResult"><rect fill="#F8F9FA" height="158.0781" rx="2.5" ry="2.5" style="stroke:#495057;stroke-width:1;" width="154.7207" x="646.87" y="521.7788"/><ellipse cx="694.1107" cy="535.7788" fill="#FFFFFF" rx="9" ry="9" style="stroke:#000000;stroke-width:1;"/><path d="M697.0795,541.4194 Q696.5013,541.7163 695.8607,541.8569 Q695.2201,542.0131 694.517,542.0131 Q692.017,542.0131 690.6888,540.3725 Q689.3763,538.7163 689.3763,535.5913 Q689.3763,532.4663 690.6888,530.81 Q692.017,529.1538 694.517,529.1538 Q695.2201,529.1538 695.8607,529.31 Q696.517,529.4663 697.0795,529.7631 L697.0795,532.4819 Q696.4545,531.9038 695.8607,531.6381 Q695.267,531.3569 694.642,531.3569 Q693.2982,531.3569 692.6107,532.435 Q691.9232,533.4975 691.9232,535.5913 Q691.9232,537.685 692.6107,538.7631 Q693.2982,539.8256 694.642,539.8256 Q695.267,539.8256 695.8607,539.56 Q696.4545,539.2788 697.0795,538.7006 L697.0795,541.4194 Z " fill="#000000"/><text fill="#000000" font-family="Verdana" font-size="10" lengthAdjust="spacing" textLength="52.7393" x="711.6107" y="539.2407">TestResult</text><line style="stroke:#495057;stroke-width:1;" x1="647.87" x2="800.5907" y1="549.7788" y2="549.7788"/><text fill="#000000" font-family="Verdana" font-size="14" lengthAdjust="spacing" textLength="79.6455" x="652.87" y="566.7739">-wpm: float</text><text fill="#000000" font-family="Verdana" font-size="14" lengthAdjust="spacing" textLength="75.8926" x="652.87" y="583.0707">-cpm: float</text><text fill="#000000" font-family="Verdana" font-size="14" lengthAdjust="spacing" textLength="108.835" x="652.87" y="599.3676">-accuracy: float</text><text fill="#000000" font-family="Verdana" font-size="14" lengthAdjust="spacing" textLength="95.375" x="652.87" y="615.6645">-mistakes: int</text><text fill="#000000" font-family="Verdana" font-size="14" lengthAdjust="spacing" textLength="142.7207" x="652.87" y="631.9614">-testDate: DateTime</text><line style="stroke:#495057;stroke-width:1;" x1="647.87" x2="800.5907" y1="639.2631" y2="639.2631"/><text fill="#000000" font-family="Verdana" font-size="14" lengthAdjust="spacing" textLength="94.5" x="652.87" y="656.2582">+save(): bool</text><text fill="#000000" font-family="Verdana" font-size="14" lengthAdjust="spacing" textLength="137.6826" x="652.87" y="672.5551">+getGrade(): string</text></g><g class="entity" data-entity="GMN15" data-source-line="59" data-uid="ent0016" id="entity_GMN15"><path d="M454.72,580.6788 L454.72,620.9444 A0,0 0 0 0 454.72,620.9444 L611.7376,620.9444 A0,0 0 0 0 611.7376,620.9444 L611.7376,604.8188 L646.59,600.8188 L611.7376,596.8188 L611.7376,590.6788 L601.7376,580.6788 L454.72,580.6788 A0,0 0 0 0 454.72,580.6788" fill="#FFFFFF" style="stroke:#000000;stroke-width:1;"/><path d="M601.7376,580.6788 L601.7376,590.6788 L611.7376,590.6788 L601.7376,580.6788" fill="#FFFFFF" style="stroke:#000000;stroke-width:1;"/><text fill="#000000" font-family="Verdana" font-size="13" lengthAdjust="spacing" textLength="135.8398" x="460.72" y="597.7456">Performance metrics</text><text fill="#000000" font-family="Verdana" font-size="13" lengthAdjust="spacing" textLength="136.0176" x="460.72" y="612.8785">for progress tracking</text></g><!--class DatabaseManager--><g class="entity" data-entity="DatabaseManager" data-source-line="61" data-uid="ent0018" id="entity_DatabaseManager"><rect fill="#F8F9FA" height="109.1875" rx="2.5" ry="2.5" style="stroke:#495057;stroke-width:1;" width="129.9131" x="836.27" y="756.8588"/><ellipse cx="853.9344" cy="770.8588" fill="#FFFFFF" rx="9" ry="9" style="stroke:#000000;stroke-width:1;"/><path d="M856.9031,776.4994 Q856.325,776.7963 855.6844,776.9369 Q855.0437,777.0931 854.3406,777.0931 Q851.8406,777.0931 850.5125,775.4525 Q849.2,773.7963 849.2,770.6713 Q849.2,767.5463 850.5125,765.89 Q851.8406,764.2338 854.3406,764.2338 Q855.0437,764.2338 855.6844,764.39 Q856.3406,764.5463 856.9031,764.8431 L856.9031,767.5619 Q856.2781,766.9838 855.6844,766.7181 Q855.0906,766.4369 854.4656,766.4369 Q853.1219,766.4369 852.4344,767.515 Q851.7469,768.5775 851.7469,770.6713 Q851.7469,772.765 852.4344,773.8431 Q853.1219,774.9056 854.4656,774.9056 Q855.0906,774.9056 855.6844,774.64 Q856.2781,774.3588 856.9031,773.7806 L856.9031,776.4994 Z " fill="#000000"/><text fill="#000000" font-family="Verdana" font-size="10" lengthAdjust="spacing" textLength="91.5479" x="866.9709" y="774.3207">DatabaseManager</text><line style="stroke:#495057;stroke-width:1;" x1="837.27" x2="965.1831" y1="784.8588" y2="784.8588"/><text fill="#000000" font-family="Verdana" font-size="14" lengthAdjust="spacing" text-decoration="underline" textLength="64.3604" x="842.27" y="801.8539">-instance</text><line style="stroke:#495057;stroke-width:1;" x1="837.27" x2="965.1831" y1="809.1556" y2="809.1556"/><text fill="#000000" font-family="Verdana" font-size="14" lengthAdjust="spacing" text-decoration="underline" textLength="105.1914" x="842.27" y="826.1507">+getInstance()</text><text fill="#000000" font-family="Verdana" font-size="14" lengthAdjust="spacing" textLength="109.1904" x="842.27" y="842.4476">+query(): array</text><text fill="#000000" font-family="Verdana" font-size="14" lengthAdjust="spacing" textLength="117.9131" x="842.27" y="858.7445">+execute(): bool</text></g><g class="entity" data-entity="GMN19" data-source-line="69" data-uid="ent0020" id="entity_GMN19"><path d="M823.04,927.0388 L823.04,967.3044 A0,0 0 0 0 823.04,967.3044 L979.4292,967.3044 A0,0 0 0 0 979.4292,967.3044 L979.4292,937.0388 L969.4292,927.0388 L905.23,927.0388 L901.23,866.4588 L897.23,927.0388 L823.04,927.0388 A0,0 0 0 0 823.04,927.0388" fill="#FFFFFF" style="stroke:#000000;stroke-width:1;"/><path d="M969.4292,927.0388 L969.4292,937.0388 L979.4292,937.0388 L969.4292,927.0388" fill="#FFFFFF" style="stroke:#000000;stroke-width:1;"/><text fill="#000000" font-family="Verdana" font-size="13" lengthAdjust="spacing" textLength="135.3892" x="829.04" y="944.1056">Singleton pattern for</text><text fill="#000000" font-family="Verdana" font-size="13" lengthAdjust="spacing" textLength="133.5928" x="829.04" y="959.2385">database operations</text></g><!--link GMN7 to TypingTest--><g class="link" data-entity-1="GMN7" data-entity-2="TypingTest" data-source-line="36" data-uid="lnk9" id="link_GMN7_TypingTest"><path d="M793.94,353.6788 C768.48,327.2088 719.49,282.1188 666.73,264.4988 C632.58,253.0888 619.82,252.9188 585.73,264.4988 C561.37,272.7688 537.91,287.0688 517.3,302.6588" fill="none" id="GMN7-TypingTest" style="stroke:#6C757D;stroke-width:1;stroke-dasharray:7,7;"/></g><!--link User to TestResult--><g class="link" data-entity-1="User" data-entity-2="TestResult" data-source-line="72" data-uid="lnk22" id="link_User_TestResult"><path codeLine="72" d="M605.5686,234.3627 C603.2486,293.9227 605.46,372.8688 628.23,444.7788 C636.64,471.3388 641.0549,482.7043 655.7749,506.2043" fill="none" id="User-TestResult" style="stroke:#6C757D;stroke-width:1;"/><line style="stroke:#6C757D;stroke-width:1;" x1="601.7273" x2="609.7213" y1="230.21" y2="230.5214"/><line style="stroke:#6C757D;stroke-width:1;" x1="601.6106" x2="609.6045" y1="233.2078" y2="233.5191"/><line style="stroke:#6C757D;stroke-width:1;" x1="605.5686" x2="605.88" y1="234.3627" y2="226.3687"/><line style="stroke:#6C757D;stroke-width:1;" x1="661.0833" x2="670.4148" y1="514.679" y2="518.2737"/><line style="stroke:#6C757D;stroke-width:1;" x1="661.0833" x2="660.2452" y1="514.679" y2="524.6438"/><line style="stroke:#6C757D;stroke-width:1;" x1="661.0833" x2="665.33" y1="514.679" y2="521.4588"/><ellipse cx="657.8982" cy="509.5942" fill="none" rx="4" ry="4" style="stroke:#6C757D;stroke-width:1;"/><text fill="#000000" font-family="Verdana" font-size="13" lengthAdjust="spacing" textLength="63.6733" x="629.23" y="378.4556">has many</text></g><!--link User to TypingTest--><g class="link" data-entity-1="User" data-entity-2="TypingTest" data-source-line="73" data-uid="lnk23" id="link_User_TypingTest"><path codeLine="73" d="M556.69,226.4887 C537.72,250.9688 520.1256,273.6664 501.1756,298.1164" fill="none" id="User-to-TypingTest" style="stroke:#6C757D;stroke-width:1;"/><polygon fill="#6C757D" points="497.5,302.8588,506.175,298.1956,500.563,298.9068,499.8518,293.2948,497.5,302.8588" style="stroke:#6C757D;stroke-width:1;"/><text fill="#000000" font-family="Verdana" font-size="13" lengthAdjust="spacing" textLength="35.3628" x="534.23" y="269.0656">takes</text></g><!--link TypingTest to TestResult--><g class="link" data-entity-1="TypingTest" data-entity-2="TestResult" data-source-line="74" data-uid="lnk24" id="link_TypingTest_TestResult"><path codeLine="74" d="M476.59,445.1588 C487.71,462.5088 501.6,479.5988 518.23,491.7788 C559.46,521.9688 583.8,498.3688 629.23,521.7788 C635.02,524.7588 635.7261,524.8892 641.3761,528.5292" fill="none" id="TypingTest-to-TestResult" style="stroke:#6C757D;stroke-width:1;"/><polygon fill="#6C757D" points="646.42,531.7788,641.0205,523.5419,642.2168,529.0708,636.6878,530.2671,646.42,531.7788" style="stroke:#6C757D;stroke-width:1;"/><text fill="#000000" font-family="Verdana" font-size="13" lengthAdjust="spacing" textLength="65.6665" x="519.23" y="487.8456">generates</text></g><!--link TypingTest to DifficultyLevel--><g class="link" data-entity-1="TypingTest" data-entity-2="DifficultyLevel" data-source-line="75" data-uid="lnk25" id="link_TypingTest_DifficultyLevel"><path codeLine="75" d="M345.05,424.9788 C295.28,451.6988 234.67,486.3188 183.23,521.7788 C172.58,529.1188 166.3596,533.6561 155.9096,541.9961" fill="none" id="TypingTest-to-DifficultyLevel" style="stroke:#6C757D;stroke-width:1;"/><polygon fill="#6C757D" points="151.22,545.7388,160.7495,543.2511,155.128,542.6198,155.7593,536.9983,151.22,545.7388" style="stroke:#6C757D;stroke-width:1;"/><text fill="#000000" font-family="Verdana" font-size="13" lengthAdjust="spacing" textLength="29.7832" x="254.23" y="487.8456">uses</text></g><!--link TestResult to DatabaseManager--><g class="link" data-entity-1="TestResult" data-entity-2="DatabaseManager" data-source-line="76" data-uid="lnk26" id="link_TestResult_DatabaseManager"><path codeLine="76" d="M790.64,680.0988 C812.22,705.5388 831.7988,728.6031 851.5288,751.8631" fill="none" id="TestResult-to-DatabaseManager" style="stroke:#6C757D;stroke-width:1;"/><polygon fill="#6C757D" points="855.41,756.4388,852.6386,746.9879,852.1757,752.6257,846.5378,752.1628,855.41,756.4388" style="stroke:#6C757D;stroke-width:1;"/><text fill="#000000" font-family="Verdana" font-size="13" lengthAdjust="spacing" textLength="74.0264" x="829.23" y="722.9256">persists via</text></g><!--link User to DatabaseManager--><g class="link" data-entity-1="User" data-entity-2="DatabaseManager" data-source-line="77" data-uid="lnk27" id="link_User_DatabaseManager"><path codeLine="77" d="M712.87,217.2688 C718.7,220.3088 724.51,223.2387 730.23,225.9988 C816.44,267.4688 877.02,224.1788 931.23,302.9988 C1027,442.2488 964.8653,651.5231 926.3853,750.9631" fill="none" id="User-to-DatabaseManager" style="stroke:#6C757D;stroke-width:1;"/><polygon fill="#6C757D" points="924.22,756.5588,931.1984,749.6088,926.0244,751.8957,923.7376,746.7217,924.22,756.5588" style="stroke:#6C757D;stroke-width:1;"/><text fill="#000000" font-family="Verdana" font-size="13" lengthAdjust="spacing" textLength="57.4019" x="982.23" y="487.8456">stored in</text></g><!--SRC=[RLHVRzD037_Ffp3bWKseOY36M1-GIhl2f5LCMmT2b8TBugP7axjmvxGhsxuxlalI9kdoq2Qsu_lziVE2bfWXvAcGAh0hgN9XH0PHAgmT4XaP5eINaLQtyX_2IRTaeXNvpDjcAXVHIYIuJxvh94DE9aONAXxfL1juEV5NjpCy1C3NvuFgZvFpoR3CQHEZgUBlpqzFJizyV6YCtbJX3wEpqxDny1G492b5c73l9SoskLG9pD0INAU25jfaSpNI1k5R-0SZWgcECGs24igTHLFXwOEC1o0LLKy5fvJ8S02MnL995SPCoBGJoxdLXY6tmtt_znf4mKueaf4WF3eUGAXrMgKIf1kqHKhM9Hpeyl7NRyTBQK8mCbaIw4K9TR0ZvV5Ps4XQpbNZ2AaLH28NeKmbIRGrqr8OhqlDb_XXXlVKOKComokPIMggaU8QcVPOBXOoOeJRAnTe4xKa3BaJ79crbd4LZqJAhp3xAV8vaUSgZ17R-hqYvDFg5_Sgx3H8SU4bQ70OWFSKLI8L0Wi2L3hlIDcvShh0Z-lfcz7rT0U0jM4zK1LPbqYboSNmzgU_cLwCB- -c_lRhy6RSvickpMgD76Adqe5TtGEOsD8WGhoBbvhMM5qS3PlezGVUIpQ5LvVs3kw4sJcuoRC1B58jQfkYRa14KM54j6r7CybUhT0s7NR2ZTaaDfb_7S6EksBzpFX-CIBsuMg43YpRW-RPHUD6LwW88IjdOQwSTxdHYK7co9IZbUjJSMOe8XGMfqBnPsU_gW-CdyVzYV7p7VThOzsb6U5bLN5qN2N_5cYstHd4UuoAndxMF49Df3DlQ0VA06uPQ8h42vSB8lvQk3cSgxWg19sZgOVk5Nn7unOq1OFLA2vbRWE_re-F_Rv-Q8lLMmeBhDMsLzRq-v_Q2z3p5lQ2Hj3Nj9eag1o8P-eE1xJ7dnHNjs_WwmvuzvYNvGcoi9QYWUwPIakyfJ6xrFiF]--></g></svg>