<svg xmlns="http://www.w3.org/2000/svg" xmlns:xlink="http://www.w3.org/1999/xlink" contentStyleType="text/css" data-diagram-type="DESCRIPTION" height="894px" preserveAspectRatio="none" style="width:1042px;height:894px;background:#FFFFFF;" version="1.1" viewBox="0 0 1042 894" width="1042px" zoomAndPan="magnify"><title>Flash Typing Test Platform
System Component Architecture</title><defs/><g><g class="title" data-source-line="12"><text fill="#000000" font-family="Verdana" font-size="22" font-weight="bold" lengthAdjust="spacing" textLength="334.2217" x="349.8333" y="35.4209">Flash Typing Test Platform</text><text fill="#000000" font-family="Verdana" font-size="22" font-weight="bold" lengthAdjust="spacing" textLength="403.3154" x="315.2864" y="61.0303">System Component Architecture</text></g><!--cluster Web Browser--><g class="cluster" data-entity="Web Browser" data-source-line="14" data-uid="ent0002" id="cluster_Web Browser"><path d="M593.3882,83.2188 L699.0806,83.2188 A3.75,3.75 0 0 1 701.5806,85.7188 L708.5806,105.5156 L893.3882,105.5156 A2.5,2.5 0 0 1 895.8882,108.0156 L895.8882,173.3588 A2.5,2.5 0 0 1 893.3882,175.8588 L593.3882,175.8588 A2.5,2.5 0 0 1 590.8882,173.3588 L590.8882,85.7188 A2.5,2.5 0 0 1 593.3882,83.2188" fill="#FFFFFF" style="stroke:#000000;stroke-width:1;"/><line style="stroke:#000000;stroke-width:1;" x1="590.8882" x2="708.5806" y1="105.5156" y2="105.5156"/><text fill="#000000" font-family="Verdana" font-size="14" font-weight="bold" lengthAdjust="spacing" textLength="104.6924" x="594.8882" y="98.2139">Web Browser</text></g><!--cluster Web Server--><g class="cluster" data-entity="Web Server" data-source-line="19" data-uid="ent0005" id="cluster_Web Server"><path d="M164.3882,372.6787 L257.229,372.6787 A3.75,3.75 0 0 1 259.729,375.1787 L266.729,394.9756 L631.3882,394.9756 A2.5,2.5 0 0 1 633.8882,397.4756 L633.8882,602.4588 A2.5,2.5 0 0 1 631.3882,604.9588 L164.3882,604.9588 A2.5,2.5 0 0 1 161.8882,602.4588 L161.8882,375.1787 A2.5,2.5 0 0 1 164.3882,372.6787" fill="#FFFFFF" style="stroke:#000000;stroke-width:1;"/><line style="stroke:#000000;stroke-width:1;" x1="161.8882" x2="266.729" y1="394.9756" y2="394.9756"/><text fill="#000000" font-family="Verdana" font-size="14" font-weight="bold" lengthAdjust="spacing" textLength="91.8408" x="165.8882" y="387.6739">Web Server</text></g><!--cluster Core Engine--><g class="cluster" data-entity="Core Engine" data-source-line="26" data-uid="ent0010" id="cluster_Core Engine"><path d="M691.3882,512.3187 L787.3667,512.3187 A3.75,3.75 0 0 1 789.8667,514.8187 L796.8667,534.6156 L1033.3882,534.6156 A2.5,2.5 0 0 1 1035.8882,537.1156 L1035.8882,737.4588 A2.5,2.5 0 0 1 1033.3882,739.9588 L691.3882,739.9588 A2.5,2.5 0 0 1 688.8882,737.4588 L688.8882,514.8187 A2.5,2.5 0 0 1 691.3882,512.3187" fill="#FFFFFF" style="stroke:#000000;stroke-width:1;"/><line style="stroke:#000000;stroke-width:1;" x1="688.8882" x2="796.8667" y1="534.6156" y2="534.6156"/><text fill="#000000" font-family="Verdana" font-size="14" font-weight="bold" lengthAdjust="spacing" textLength="94.9785" x="692.8882" y="527.3139">Core Engine</text></g><!--cluster Data Layer--><g class="cluster" data-entity="Data Layer" data-source-line="32" data-uid="ent0014" id="cluster_Data Layer"><path d="M45.3882,795.1388 L132.3638,795.1388 A3.75,3.75 0 0 1 134.8638,797.6388 L141.8638,817.4356 L362.3882,817.4356 A2.5,2.5 0 0 1 364.8882,819.9356 L364.8882,885.2788 A2.5,2.5 0 0 1 362.3882,887.7788 L45.3882,887.7788 A2.5,2.5 0 0 1 42.8882,885.2788 L42.8882,797.6388 A2.5,2.5 0 0 1 45.3882,795.1388" fill="#FFFFFF" style="stroke:#000000;stroke-width:1;"/><line style="stroke:#000000;stroke-width:1;" x1="42.8882" x2="141.8638" y1="817.4356" y2="817.4356"/><text fill="#000000" font-family="Verdana" font-size="14" font-weight="bold" lengthAdjust="spacing" textLength="85.9756" x="46.8882" y="810.1339">Data Layer</text></g><!--cluster External Assets--><g class="cluster" data-entity="External Assets" data-source-line="37" data-uid="ent0017" id="cluster_External Assets"><path d="M519.3882,224.8588 L643.1821,224.8588 A3.75,3.75 0 0 1 645.6821,227.3588 L652.6821,247.1556 L822.3882,247.1556 A2.5,2.5 0 0 1 824.8882,249.6556 L824.8882,314.9988 A2.5,2.5 0 0 1 822.3882,317.4988 L519.3882,317.4988 A2.5,2.5 0 0 1 516.8882,314.9988 L516.8882,227.3588 A2.5,2.5 0 0 1 519.3882,224.8588" fill="#FFFFFF" style="stroke:#000000;stroke-width:1;"/><line style="stroke:#000000;stroke-width:1;" x1="516.8882" x2="652.6821" y1="247.1556" y2="247.1556"/><text fill="#000000" font-family="Verdana" font-size="14" font-weight="bold" lengthAdjust="spacing" textLength="122.7939" x="520.8882" y="239.8539">External Assets</text></g><!--entity UI--><g class="entity" data-entity="UI" data-source-line="15" data-uid="ent0003" id="entity_UI"><rect fill="#E8F4FD" height="41.6406" rx="2.5" ry="2.5" style="stroke:#1976D2;stroke-width:1;" width="110.7422" x="606.5182" y="118.2188"/><rect fill="#E8F4FD" height="10" style="stroke:#1976D2;stroke-width:1;" width="15" x="697.2604" y="123.2188"/><rect fill="#E8F4FD" height="2" style="stroke:#1976D2;stroke-width:1;" width="4" x="695.2604" y="125.2188"/><rect fill="#E8F4FD" height="2" style="stroke:#1976D2;stroke-width:1;" width="4" x="695.2604" y="129.2188"/><text fill="#000000" font-family="Verdana" font-size="10" lengthAdjust="spacing" textLength="70.7422" x="621.5182" y="147.501">User Interface</text></g><!--entity JS--><g class="entity" data-entity="JS" data-source-line="16" data-uid="ent0004" id="entity_JS"><rect fill="#E8F4FD" height="41.6406" rx="2.5" ry="2.5" style="stroke:#1976D2;stroke-width:1;" width="127.5781" x="752.0982" y="118.2188"/><rect fill="#E8F4FD" height="10" style="stroke:#1976D2;stroke-width:1;" width="15" x="859.6763" y="123.2188"/><rect fill="#E8F4FD" height="2" style="stroke:#1976D2;stroke-width:1;" width="4" x="857.6763" y="125.2188"/><rect fill="#E8F4FD" height="2" style="stroke:#1976D2;stroke-width:1;" width="4" x="857.6763" y="129.2188"/><text fill="#000000" font-family="Verdana" font-size="10" lengthAdjust="spacing" textLength="87.5781" x="767.0982" y="147.501">JavaScript Engine</text></g><!--entity Auth--><g class="entity" data-entity="Auth" data-source-line="20" data-uid="ent0006" id="entity_Auth"><rect fill="#E8F4FD" height="41.6406" rx="2.5" ry="2.5" style="stroke:#1976D2;stroke-width:1;" width="152.9492" x="177.4182" y="407.6787"/><rect fill="#E8F4FD" height="10" style="stroke:#1976D2;stroke-width:1;" width="15" x="310.3674" y="412.6787"/><rect fill="#E8F4FD" height="2" style="stroke:#1976D2;stroke-width:1;" width="4" x="308.3674" y="414.6787"/><rect fill="#E8F4FD" height="2" style="stroke:#1976D2;stroke-width:1;" width="4" x="308.3674" y="418.6787"/><text fill="#000000" font-family="Verdana" font-size="10" lengthAdjust="spacing" textLength="112.9492" x="192.4182" y="436.961">Authentication Module</text></g><!--entity TestCtrl--><g class="entity" data-entity="TestCtrl" data-source-line="21" data-uid="ent0007" id="entity_TestCtrl"><rect fill="#E8F4FD" height="41.6406" rx="2.5" ry="2.5" style="stroke:#1976D2;stroke-width:1;" width="113.9795" x="364.8982" y="407.6787"/><rect fill="#E8F4FD" height="10" style="stroke:#1976D2;stroke-width:1;" width="15" x="458.8777" y="412.6787"/><rect fill="#E8F4FD" height="2" style="stroke:#1976D2;stroke-width:1;" width="4" x="456.8777" y="414.6787"/><rect fill="#E8F4FD" height="2" style="stroke:#1976D2;stroke-width:1;" width="4" x="456.8777" y="418.6787"/><text fill="#000000" font-family="Verdana" font-size="10" lengthAdjust="spacing" textLength="73.9795" x="379.8982" y="436.961">Test Controller</text></g><!--entity Analytics--><g class="entity" data-entity="Analytics" data-source-line="22" data-uid="ent0008" id="entity_Analytics"><rect fill="#E8F4FD" height="41.6406" rx="2.5" ry="2.5" style="stroke:#1976D2;stroke-width:1;" width="125.1465" x="492.3182" y="547.3187"/><rect fill="#E8F4FD" height="10" style="stroke:#1976D2;stroke-width:1;" width="15" x="597.4647" y="552.3187"/><rect fill="#E8F4FD" height="2" style="stroke:#1976D2;stroke-width:1;" width="4" x="595.4647" y="554.3187"/><rect fill="#E8F4FD" height="2" style="stroke:#1976D2;stroke-width:1;" width="4" x="595.4647" y="558.3187"/><text fill="#000000" font-family="Verdana" font-size="10" lengthAdjust="spacing" textLength="85.1465" x="507.3182" y="576.601">Results Analytics</text></g><!--entity FileMan--><g class="entity" data-entity="FileMan" data-source-line="23" data-uid="ent0009" id="entity_FileMan"><rect fill="#E8F4FD" height="41.6406" rx="2.5" ry="2.5" style="stroke:#1976D2;stroke-width:1;" width="104.4727" x="513.6482" y="407.6787"/><rect fill="#E8F4FD" height="10" style="stroke:#1976D2;stroke-width:1;" width="15" x="598.1208" y="412.6787"/><rect fill="#E8F4FD" height="2" style="stroke:#1976D2;stroke-width:1;" width="4" x="596.1208" y="414.6787"/><rect fill="#E8F4FD" height="2" style="stroke:#1976D2;stroke-width:1;" width="4" x="596.1208" y="418.6787"/><text fill="#000000" font-family="Verdana" font-size="10" lengthAdjust="spacing" textLength="64.4727" x="528.6482" y="436.961">File Manager</text></g><!--entity TestEngine--><g class="entity" data-entity="TestEngine" data-source-line="27" data-uid="ent0011" id="entity_TestEngine"><rect fill="#E8F4FD" height="41.6406" rx="2.5" ry="2.5" style="stroke:#1976D2;stroke-width:1;" width="135.8594" x="765.9582" y="547.3187"/><rect fill="#E8F4FD" height="10" style="stroke:#1976D2;stroke-width:1;" width="15" x="881.8176" y="552.3187"/><rect fill="#E8F4FD" height="2" style="stroke:#1976D2;stroke-width:1;" width="4" x="879.8176" y="554.3187"/><rect fill="#E8F4FD" height="2" style="stroke:#1976D2;stroke-width:1;" width="4" x="879.8176" y="558.3187"/><text fill="#000000" font-family="Verdana" font-size="10" lengthAdjust="spacing" textLength="95.8594" x="780.9582" y="576.601">Typing Test Engine</text></g><!--entity Metrics--><g class="entity" data-entity="Metrics" data-source-line="28" data-uid="ent0012" id="entity_Metrics"><rect fill="#E8F4FD" height="41.6406" rx="2.5" ry="2.5" style="stroke:#1976D2;stroke-width:1;" width="130.2588" x="704.7582" y="682.3187"/><rect fill="#E8F4FD" height="10" style="stroke:#1976D2;stroke-width:1;" width="15" x="815.017" y="687.3187"/><rect fill="#E8F4FD" height="2" style="stroke:#1976D2;stroke-width:1;" width="4" x="813.017" y="689.3187"/><rect fill="#E8F4FD" height="2" style="stroke:#1976D2;stroke-width:1;" width="4" x="813.017" y="693.3187"/><text fill="#000000" font-family="Verdana" font-size="10" lengthAdjust="spacing" textLength="90.2588" x="719.7582" y="711.601">Metrics Calculator</text></g><!--entity Keyboard--><g class="entity" data-entity="Keyboard" data-source-line="29" data-uid="ent0013" id="entity_Keyboard"><rect fill="#E8F4FD" height="41.6406" rx="2.5" ry="2.5" style="stroke:#1976D2;stroke-width:1;" width="123.7549" x="870.0082" y="682.3187"/><rect fill="#E8F4FD" height="10" style="stroke:#1976D2;stroke-width:1;" width="15" x="973.7631" y="687.3187"/><rect fill="#E8F4FD" height="2" style="stroke:#1976D2;stroke-width:1;" width="4" x="971.7631" y="689.3187"/><rect fill="#E8F4FD" height="2" style="stroke:#1976D2;stroke-width:1;" width="4" x="971.7631" y="693.3187"/><text fill="#000000" font-family="Verdana" font-size="10" lengthAdjust="spacing" textLength="83.7549" x="885.0082" y="711.601">Virtual Keyboard</text></g><!--entity DB--><g class="entity" data-entity="DB" data-source-line="33" data-uid="ent0015" id="entity_DB"><rect fill="#E8F4FD" height="41.6406" rx="2.5" ry="2.5" style="stroke:#1976D2;stroke-width:1;" width="134.7266" x="214.5282" y="830.1388"/><rect fill="#E8F4FD" height="10" style="stroke:#1976D2;stroke-width:1;" width="15" x="329.2547" y="835.1388"/><rect fill="#E8F4FD" height="2" style="stroke:#1976D2;stroke-width:1;" width="4" x="327.2547" y="837.1388"/><rect fill="#E8F4FD" height="2" style="stroke:#1976D2;stroke-width:1;" width="4" x="327.2547" y="841.1388"/><text fill="#000000" font-family="Verdana" font-size="10" lengthAdjust="spacing" textLength="94.7266" x="229.5282" y="859.421">Database Manager</text></g><!--entity Session--><g class="entity" data-entity="Session" data-source-line="34" data-uid="ent0016" id="entity_Session"><rect fill="#E8F4FD" height="41.6406" rx="2.5" ry="2.5" style="stroke:#1976D2;stroke-width:1;" width="120.708" x="58.5382" y="830.1388"/><rect fill="#E8F4FD" height="10" style="stroke:#1976D2;stroke-width:1;" width="15" x="159.2462" y="835.1388"/><rect fill="#E8F4FD" height="2" style="stroke:#1976D2;stroke-width:1;" width="4" x="157.2462" y="837.1388"/><rect fill="#E8F4FD" height="2" style="stroke:#1976D2;stroke-width:1;" width="4" x="157.2462" y="841.1388"/><text fill="#000000" font-family="Verdana" font-size="10" lengthAdjust="spacing" textLength="80.708" x="73.5382" y="859.421">Session Handler</text></g><!--entity CSS--><g class="entity" data-entity="CSS" data-source-line="38" data-uid="ent0018" id="entity_CSS"><rect fill="#E8F4FD" height="41.6406" rx="2.5" ry="2.5" style="stroke:#1976D2;stroke-width:1;" width="120.957" x="532.4082" y="259.8588"/><rect fill="#E8F4FD" height="10" style="stroke:#1976D2;stroke-width:1;" width="15" x="633.3652" y="264.8588"/><rect fill="#E8F4FD" height="2" style="stroke:#1976D2;stroke-width:1;" width="4" x="631.3652" y="266.8588"/><rect fill="#E8F4FD" height="2" style="stroke:#1976D2;stroke-width:1;" width="4" x="631.3652" y="270.8588"/><text fill="#000000" font-family="Verdana" font-size="10" lengthAdjust="spacing" textLength="80.957" x="547.4082" y="289.141">CSS Stylesheets</text></g><!--entity Media--><g class="entity" data-entity="Media" data-source-line="39" data-uid="ent0019" id="entity_Media"><rect fill="#E8F4FD" height="41.6406" rx="2.5" ry="2.5" style="stroke:#1976D2;stroke-width:1;" width="120.7178" x="688.5282" y="259.8588"/><rect fill="#E8F4FD" height="10" style="stroke:#1976D2;stroke-width:1;" width="15" x="789.246" y="264.8588"/><rect fill="#E8F4FD" height="2" style="stroke:#1976D2;stroke-width:1;" width="4" x="787.246" y="266.8588"/><rect fill="#E8F4FD" height="2" style="stroke:#1976D2;stroke-width:1;" width="4" x="787.246" y="270.8588"/><text fill="#000000" font-family="Verdana" font-size="10" lengthAdjust="spacing" textLength="80.7178" x="703.5282" y="289.141">Images &amp; Media</text></g><!--entity API--><g class="entity" data-entity="API" data-source-line="43" data-uid="ent0020" id="entity_API"><ellipse cx="439.8882" cy="280.6787" fill="#FFF3E0" rx="8" ry="8" style="stroke:#FF9800;stroke-width:1;"/><text fill="#000000" font-family="Verdana" font-size="14" lengthAdjust="spacing" textLength="62.6719" x="408.5522" y="310.6739">HTTP API</text></g><!--entity DBConn--><g class="entity" data-entity="DBConn" data-source-line="44" data-uid="ent0021" id="entity_DBConn"><ellipse cx="347.8882" cy="703.1388" fill="#FFF3E0" rx="8" ry="8" style="stroke:#FF9800;stroke-width:1;"/><text fill="#000000" font-family="Verdana" font-size="14" lengthAdjust="spacing" textLength="150.4658" x="272.6553" y="733.1339">Database Connection</text></g><!--entity UserSession--><g class="entity" data-entity="UserSession" data-source-line="45" data-uid="ent0022" id="entity_UserSession"><ellipse cx="55.8882" cy="568.1388" fill="#FFF3E0" rx="8" ry="8" style="stroke:#FF9800;stroke-width:1;"/><text fill="#000000" font-family="Verdana" font-size="14" lengthAdjust="spacing" textLength="89.7764" x="11" y="598.1339">User Session</text></g><!--link UI to API--><g class="link" data-entity-1="UI" data-entity-2="API" data-source-line="48" data-uid="lnk23" id="link_UI_API"><path d="M606.1582,151.7288 C576.6282,159.7487 540.7982,172.5087 512.8882,191.8588 C480.4582,214.3287 457.3911,249.7635 447.3611,266.7335" fill="none" id="UI-to-API" style="stroke:#000000;stroke-width:1;"/><polygon fill="#000000" points="444.3082,271.8987,452.331,266.1861,446.8523,267.5944,445.444,262.1156,444.3082,271.8987" style="stroke:#000000;stroke-width:1;"/><text fill="#000000" font-family="Verdana" font-size="13" lengthAdjust="spacing" textLength="94.8213" x="513.8882" y="204.9256">AJAX Requests</text></g><!--link API to Auth--><g class="link" data-entity-1="API" data-entity-2="Auth" data-source-line="49" data-uid="lnk24" id="link_API_Auth"><path d="M431.1082,282.8488 C406.3582,286.5887 335.1782,300.3787 293.8882,339.6787 C274.4682,358.1587 265.2702,382.0483 259.9302,401.7183" fill="none" id="API-to-Auth" style="stroke:#000000;stroke-width:1;"/><polygon fill="#000000" points="258.3582,407.5087,264.5764,399.8711,259.6682,402.6834,256.8559,397.7751,258.3582,407.5087" style="stroke:#000000;stroke-width:1;"/><text fill="#000000" font-family="Verdana" font-size="13" lengthAdjust="spacing" textLength="127.5498" x="294.8882" y="352.7456">User Login/Register</text></g><!--link API to TestCtrl--><g class="link" data-entity-1="API" data-entity-2="TestCtrl" data-source-line="50" data-uid="lnk25" id="link_API_TestCtrl"><path d="M438.9182,289.5187 C436.1982,311.5787 429.133,368.7739 425.103,401.4339" fill="none" id="API-to-TestCtrl" style="stroke:#000000;stroke-width:1;"/><polygon fill="#000000" points="424.3682,407.3887,429.4402,398.9463,424.9805,402.4264,421.5005,397.9666,424.3682,407.3887" style="stroke:#000000;stroke-width:1;"/><text fill="#000000" font-family="Verdana" font-size="13" lengthAdjust="spacing" textLength="103.4097" x="432.8882" y="352.7456">Test Operations</text></g><!--link API to Analytics--><g class="link" data-entity-1="API" data-entity-2="Analytics" data-source-line="51" data-uid="lnk26" id="link_API_Analytics"><path d="M448.5982,287.3987 C462.5582,296.3987 491.0182,314.0187 516.8882,325.4988 C567.7782,348.0887 597.7582,324.0988 635.8882,364.6787 C676.9782,408.4087 694.7282,443.6987 665.8882,496.3187 C653.4182,519.0687 635.5233,532.8236 613.5233,544.1436" fill="none" id="API-to-Analytics" style="stroke:#000000;stroke-width:1;"/><polygon fill="#000000" points="608.1882,546.8888,618.0211,546.3277,612.6342,544.6011,614.3608,539.2142,608.1882,546.8888" style="stroke:#000000;stroke-width:1;"/><text fill="#000000" font-family="Verdana" font-size="13" lengthAdjust="spacing" textLength="121.5894" x="680.8882" y="433.0656">Results Processing</text></g><!--link Auth to UserSession--><g class="link" data-entity-1="Auth" data-entity-2="UserSession" data-source-line="53" data-uid="lnk27" id="link_Auth_UserSession"><path d="M176.9982,436.6087 C120.2982,443.6387 49.9982,456.6887 31.8882,479.3187 C12.4282,503.6287 33.5393,537.7204 45.9593,554.3604" fill="none" id="Auth-to-UserSession" style="stroke:#000000;stroke-width:1;"/><polygon fill="#000000" points="49.5482,559.1687,47.3704,549.5637,46.5574,555.1618,40.9593,554.3489,49.5482,559.1687" style="stroke:#000000;stroke-width:1;"/><text fill="#000000" font-family="Verdana" font-size="13" lengthAdjust="spacing" textLength="139.3691" x="32.8882" y="492.3856">Session Management</text></g><!--link TestCtrl to TestEngine--><g class="link" data-entity-1="TestCtrl" data-entity-2="TestEngine" data-source-line="54" data-uid="lnk28" id="link_TestCtrl_TestEngine"><path d="M479.1782,448.6387 C556.5582,474.4887 688.2175,518.4673 767.3775,544.9173" fill="none" id="TestCtrl-to-TestEngine" style="stroke:#000000;stroke-width:1;"/><polygon fill="#000000" points="773.0682,546.8187,765.7997,540.1727,768.3259,545.2342,763.2644,547.7604,773.0682,546.8187" style="stroke:#000000;stroke-width:1;"/><text fill="#000000" font-family="Verdana" font-size="13" lengthAdjust="spacing" textLength="96.1353" x="615.8882" y="492.3856">Test Execution</text></g><!--link TestEngine to Metrics--><g class="link" data-entity-1="TestEngine" data-entity-2="Metrics" data-source-line="55" data-uid="lnk29" id="link_TestEngine_Metrics"><path d="M778.7282,589.4488 C762.3082,598.3788 746.2282,610.6687 736.8882,627.1388 C726.7782,644.9588 734.7695,661.7501 746.9395,677.1601" fill="none" id="TestEngine-to-Metrics" style="stroke:#000000;stroke-width:1;"/><polygon fill="#000000" points="750.6582,681.8688,748.2193,672.3266,747.5593,677.9449,741.9411,677.2848,750.6582,681.8688" style="stroke:#000000;stroke-width:1;"/><text fill="#000000" font-family="Verdana" font-size="13" lengthAdjust="spacing" textLength="129.27" x="737.8882" y="640.2056">Calculate WPM/CPM</text></g><!--link TestEngine to Keyboard--><g class="link" data-entity-1="TestEngine" data-entity-2="Keyboard" data-source-line="56" data-uid="lnk30" id="link_TestEngine_Keyboard"><path d="M848.7682,589.3387 C867.2982,614.4788 895.1781,652.329 913.6281,677.359" fill="none" id="TestEngine-to-Keyboard" style="stroke:#000000;stroke-width:1;"/><polygon fill="#000000" points="917.1882,682.1887,915.0679,672.5708,914.2215,678.164,908.6283,677.3176,917.1882,682.1887" style="stroke:#000000;stroke-width:1;"/><text fill="#000000" font-family="Verdana" font-size="13" lengthAdjust="spacing" textLength="107.1421" x="888.8882" y="640.2056">Key Highlighting</text></g><!--link TestCtrl to DBConn--><g class="link" data-entity-1="TestCtrl" data-entity-2="DBConn" data-source-line="58" data-uid="lnk31" id="link_TestCtrl_DBConn"><path d="M410.8482,449.5887 C403.1482,464.3487 393.1782,485.0987 386.8882,504.3187 C363.3882,576.1787 352.4564,661.6472 349.4064,688.4572" fill="none" id="TestCtrl-to-DBConn" style="stroke:#000000;stroke-width:1;"/><polygon fill="#000000" points="348.7282,694.4187,353.7199,685.9286,349.2934,689.4508,345.7711,685.0243,348.7282,694.4187" style="stroke:#000000;stroke-width:1;"/><text fill="#000000" font-family="Verdana" font-size="13" lengthAdjust="spacing" textLength="86.3027" x="387.8882" y="572.7056">Store Results</text></g><!--link Analytics to DBConn--><g class="link" data-entity-1="Analytics" data-entity-2="DBConn" data-source-line="59" data-uid="lnk32" id="link_Analytics_DBConn"><path d="M523.4482,589.3387 C475.0382,620.4388 389.9361,675.1255 361.6561,693.2955" fill="none" id="Analytics-to-DBConn" style="stroke:#000000;stroke-width:1;"/><polygon fill="#000000" points="356.6082,696.5387,366.3422,695.0391,360.8148,693.836,362.0178,688.3086,356.6082,696.5387" style="stroke:#000000;stroke-width:1;"/><text fill="#000000" font-family="Verdana" font-size="13" lengthAdjust="spacing" textLength="86.3408" x="463.8882" y="640.2056">Fetch History</text></g><!--link Auth to DBConn--><g class="link" data-entity-1="Auth" data-entity-2="DBConn" data-source-line="60" data-uid="lnk33" id="link_Auth_DBConn"><path d="M248.7382,449.5387 C240.8582,484.4287 229.0382,557.8587 252.8882,612.9588 C270.9482,654.6887 314.0199,682.8725 333.9199,694.3425" fill="none" id="Auth-to-DBConn" style="stroke:#000000;stroke-width:1;"/><polygon fill="#000000" points="339.1182,697.3387,333.3182,689.3789,334.7862,694.8419,329.3232,696.31,339.1182,697.3387" style="stroke:#000000;stroke-width:1;"/><text fill="#000000" font-family="Verdana" font-size="13" lengthAdjust="spacing" textLength="98.9663" x="253.8882" y="572.7056">User Validation</text></g><!--link DBConn to DB--><g class="link" data-entity-1="DBConn" data-entity-2="DB" data-source-line="62" data-uid="lnk34" id="link_DBConn_DB"><path d="M344.3382,711.9788 C334.3482,734.0387 308.2419,791.7224 293.4619,824.3824" fill="none" id="DBConn-to-DB" style="stroke:#000000;stroke-width:1;"/><polygon fill="#000000" points="290.9882,829.8487,298.343,823.2984,293.0496,825.2935,291.0546,820.0001,290.9882,829.8487" style="stroke:#000000;stroke-width:1;"/><text fill="#000000" font-family="Verdana" font-size="13" lengthAdjust="spacing" textLength="80.0566" x="320.8882" y="775.2056">SQL Queries</text></g><!--link UserSession to Session--><g class="link" data-entity-1="UserSession" data-entity-2="Session" data-source-line="63" data-uid="lnk35" id="link_UserSession_Session"><path d="M57.6382,576.9388 C65.9682,614.0587 100.3748,767.4143 113.0748,824.0243" fill="none" id="UserSession-to-Session" style="stroke:#000000;stroke-width:1;"/><polygon fill="#000000" points="114.3882,829.8788,116.3211,820.2214,113.2937,825,108.5151,821.9726,114.3882,829.8788" style="stroke:#000000;stroke-width:1;"/><text fill="#000000" font-family="Verdana" font-size="13" lengthAdjust="spacing" textLength="84.7729" x="96.8882" y="707.7056">Session Data</text></g><!--link UI to CSS--><g class="link" data-entity-1="UI" data-entity-2="CSS" data-source-line="65" data-uid="lnk36" id="link_UI_CSS"><path d="M645.7882,159.8887 C638.7382,169.2087 630.7582,180.7087 624.8882,191.8588 C613.2482,213.9688 605.7583,235.5136 600.2683,253.7436" fill="none" id="UI-to-CSS" style="stroke:#000000;stroke-width:1;"/><polygon fill="#000000" points="598.5382,259.4888,604.9635,252.0245,599.98,254.7011,597.3033,249.7176,598.5382,259.4888" style="stroke:#000000;stroke-width:1;"/><text fill="#000000" font-family="Verdana" font-size="13" lengthAdjust="spacing" textLength="44.7573" x="625.8882" y="204.9256">Styling</text></g><!--link UI to Media--><g class="link" data-entity-1="UI" data-entity-2="Media" data-source-line="66" data-uid="lnk37" id="link_UI_Media"><path d="M674.5382,160.3387 C691.1282,186.9688 716.8746,228.2968 733.3346,254.7068" fill="none" id="UI-to-Media" style="stroke:#000000;stroke-width:1;"/><polygon fill="#000000" points="736.5082,259.7987,735.1425,250.045,733.8635,255.5554,728.3532,254.2765,736.5082,259.7987" style="stroke:#000000;stroke-width:1;"/><text fill="#000000" font-family="Verdana" font-size="13" lengthAdjust="spacing" textLength="85.814" x="702.8882" y="204.9256">Images/Icons</text></g><!--link JS to TestEngine--><g class="link" data-entity-1="JS" data-entity-2="TestEngine" data-source-line="67" data-uid="lnk38" id="link_JS_TestEngine"><path d="M818.7582,160.2087 C820.8382,175.6787 823.5182,197.5687 824.8882,216.8588 C833.8182,342.1587 834.2194,487.2288 834.0294,540.9688" fill="none" id="JS-to-TestEngine" style="stroke:#000000;stroke-width:1;"/><polygon fill="#000000" points="834.0082,546.9688,838.04,537.9829,834.0259,541.9688,830.04,537.9547,834.0082,546.9688" style="stroke:#000000;stroke-width:1;"/><text fill="#000000" font-family="Verdana" font-size="13" lengthAdjust="spacing" textLength="120.6563" x="831.8882" y="352.7456">Real-time Updates</text></g><!--link FileMan to Analytics--><g class="link" data-entity-1="FileMan" data-entity-2="Analytics" data-source-line="69" data-uid="lnk39" id="link_FileMan_Analytics"><path d="M513.1882,444.8987 C475.4482,456.4687 430.3582,471.5787 424.8882,479.3187 C420.5282,485.4887 420.0982,490.4787 424.8882,496.3187 C436.3782,510.3387 448.2182,497.1987 464.8882,504.3187 C489.5982,514.8687 509.7291,529.0681 527.0191,543.0981" fill="none" id="FileMan-to-Analytics" style="stroke:#000000;stroke-width:1;"/><polygon fill="#000000" points="531.6782,546.8788,527.21,538.1018,527.7956,543.7282,522.1692,544.3139,531.6782,546.8788" style="stroke:#000000;stroke-width:1;"/><text fill="#000000" font-family="Verdana" font-size="13" lengthAdjust="spacing" textLength="97.1382" x="425.8882" y="492.3856">Export Reports</text></g><!--SRC=[TLLHRzem47xthxWnQNkgscxJrlPX4Wr4XHMD4cWdRNjmmnMi6ZkpdRRPjF- -ivD04XWI8hxxSjzzTr_2AxV63K8ckL3CFWgLSSCtaEfDfXKg1tyOqEUIfuyhetErZBJK1buFp-8FyQ3CQRD4KyLFppzz7BmByLWhbuZV2ASdx6-Zjb0EpGDFyN-rupX-FppPhnt7vsSdlXPpmac4M7AxXdcH2RM2ELe7KydTWpQR7oefhCCDH5iTVPEkXSFKvGOPouYJhn1wTtWFbqO_MpIzgf-TzkyB2iEexlSdS0kBKHSqvayyIOt870pLIgWIDqvyeosU1CtJGPf-JbjGJgJS2QrWefUvBAluJ1STb4OqNAEbH1DmFXOv8xlO6TfSEggZk2o8m9PLwrCN7WiQwuGhQhciwmDqRac9jC5AwG4jpNKqnk7FvR5xmmITeLOWuZBDQN-wPAx2NVIjC2xd4hvWSQ-vMGPiVMYrEU2EmpKl3axS9- -vROiTN7PX2LhhDtB5rR8UTHLhSGrVo28qLEXRYyuU88oI119NIBHh94IeHB4kRBIXUXRUaFobuDKWwCgplTqvqRBTGzIxci-dq9-EUc6rqr4pjzL9Vb5aVcgyLqhrWIOoMBtI5Y0-K6ibxbq1onOZE3hwxBdW0lhZ_ZUOuQ-SDcoPZuKS6PUIeUgrfhqVpt0bw9aqMqZjMO85jtpDqF2IO5kbDYfXQYjFZKvzMsh5M63nm4Qp1AslokLkQB9iIrOpbsQikOSlcEQUcpLo7bgxysBhJuIxwUGucawwqDg5XALBk1AhjQIl2vss-Clf-qQTVvOgPModjWMAqQLhAcS9NEmaR_DXnhTSYcMO7cDLfWHvbfjhkCdH2F9DSr0Ui3yqRnbMhzZRzY8OrwkeWi6H52xDUZnA_Sh6oVvePyZbaHFq_xB8g3cYPzKBPM-xmvTC6qTt-1_x3m00]--></g></svg>