<svg xmlns="http://www.w3.org/2000/svg" xmlns:xlink="http://www.w3.org/1999/xlink" contentStyleType="text/css" data-diagram-type="DESCRIPTION" height="1162px" preserveAspectRatio="none" style="width:1312px;height:1162px;background:#FFFFFF;" version="1.1" viewBox="0 0 1312 1162" width="1312px" zoomAndPan="magnify"><title>Flash Typing Test Platform
Deployment Architecture</title><defs/><g><g class="title" data-source-line="12"><text fill="#000000" font-family="Verdana" font-size="22" font-weight="bold" lengthAdjust="spacing" textLength="334.2217" x="484.5161" y="35.4209">Flash Typing Test Platform</text><text fill="#000000" font-family="Verdana" font-size="22" font-weight="bold" lengthAdjust="spacing" textLength="312.1572" x="495.5483" y="61.0303">Deployment Architecture</text></g><!--cluster client--><g class="cluster" data-entity="client" data-source-line="14" data-uid="ent0002" id="cluster_client"><polygon fill="#E8F5E8" points="407,136.5888,417,126.5888,851,126.5888,851,328.8888,841,338.8888,407,338.8888,407,136.5888" style="stroke:#4CAF50;stroke-width:1;"/><line style="stroke:#4CAF50;stroke-width:1;" x1="841" x2="851" y1="136.5888" y2="126.5888"/><line style="stroke:#4CAF50;stroke-width:1;" x1="407" x2="841" y1="136.5888" y2="136.5888"/><line style="stroke:#4CAF50;stroke-width:1;" x1="841" x2="841" y1="136.5888" y2="338.8888"/><text fill="#000000" font-family="Verdana" font-size="10" font-weight="bold" lengthAdjust="spacing" textLength="83.4326" x="583.2837" y="148.871">Client Machine</text></g><!--cluster browser--><g class="cluster" data-entity="browser" data-source-line="15" data-uid="ent0003" id="cluster_browser"><rect fill="#FFF3E0" height="113.3" rx="2.5" ry="2.5" style="stroke:#FF9800;stroke-width:1;" width="356" x="455" y="185.5888"/><polygon fill="#FFF3E0" points="794,190.5888,794,204.5888,806,204.5888,806,196.5888,800,190.5888,794,190.5888" style="stroke:#FF9800;stroke-width:1;"/><line style="stroke:#FF9800;stroke-width:1;" x1="800" x2="800" y1="190.5888" y2="196.5888"/><line style="stroke:#FF9800;stroke-width:1;" x1="806" x2="800" y1="196.5888" y2="196.5888"/><text fill="#000000" font-family="Verdana" font-size="14" font-weight="bold" lengthAdjust="spacing" textLength="104.6924" x="580.6538" y="200.5839">Web Browser</text></g><!--cluster webserver--><g class="cluster" data-entity="webserver" data-source-line="21" data-uid="ent0006" id="cluster_webserver"><polygon fill="#E8F5E8" points="21,428.8888,31,418.8888,689,418.8888,689,1135.1788,679,1145.1788,21,1145.1788,21,428.8888" style="stroke:#4CAF50;stroke-width:1;"/><line style="stroke:#4CAF50;stroke-width:1;" x1="679" x2="689" y1="428.8888" y2="418.8888"/><line style="stroke:#4CAF50;stroke-width:1;" x1="21" x2="679" y1="428.8888" y2="428.8888"/><line style="stroke:#4CAF50;stroke-width:1;" x1="679" x2="679" y1="428.8888" y2="1145.1788"/><text fill="#000000" font-family="Verdana" font-size="10" font-weight="bold" lengthAdjust="spacing" textLength="65.6006" x="318.1997" y="441.171">Web Server</text></g><!--cluster httpserver--><g class="cluster" data-entity="httpserver" data-source-line="22" data-uid="ent0007" id="cluster_httpserver"><rect fill="#FFF3E0" height="113.3" rx="2.5" ry="2.5" style="stroke:#FF9800;stroke-width:1;" width="369" x="243" y="477.8888"/><polygon fill="#FFF3E0" points="595,482.8888,595,496.8888,607,496.8888,607,488.8888,601,482.8888,595,482.8888" style="stroke:#FF9800;stroke-width:1;"/><line style="stroke:#FF9800;stroke-width:1;" x1="601" x2="601" y1="482.8888" y2="488.8888"/><line style="stroke:#FF9800;stroke-width:1;" x1="607" x2="601" y1="488.8888" y2="488.8888"/><text fill="#000000" font-family="Verdana" font-size="14" font-weight="bold" lengthAdjust="spacing" textLength="108.7119" x="373.144" y="492.8839">Apache/Nginx</text></g><!--cluster app--><g class="cluster" data-entity="app" data-source-line="27" data-uid="ent0010" id="cluster_app"><rect fill="#FFF3E0" height="448.99" rx="2.5" ry="2.5" style="stroke:#FF9800;stroke-width:1;" width="580" x="61" y="656.1888"/><polygon fill="#FFF3E0" points="624,661.1888,624,675.1888,636,675.1888,636,667.1888,630,661.1888,624,661.1888" style="stroke:#FF9800;stroke-width:1;"/><line style="stroke:#FF9800;stroke-width:1;" x1="630" x2="630" y1="661.1888" y2="667.1888"/><line style="stroke:#FF9800;stroke-width:1;" x1="636" x2="630" y1="667.1888" y2="667.1888"/><text fill="#000000" font-family="Verdana" font-size="14" font-weight="bold" lengthAdjust="spacing" textLength="136.2813" x="282.8594" y="671.1839">Flash Application</text></g><!--cluster dbserver--><g class="cluster" data-entity="dbserver" data-source-line="38" data-uid="ent0018" id="cluster_dbserver"><polygon fill="#E8F5E8" points="729,831.0388,739,821.0388,1149,821.0388,1149,1135.1788,1139,1145.1788,729,1145.1788,729,831.0388" style="stroke:#4CAF50;stroke-width:1;"/><line style="stroke:#4CAF50;stroke-width:1;" x1="1139" x2="1149" y1="831.0388" y2="821.0388"/><line style="stroke:#4CAF50;stroke-width:1;" x1="729" x2="1139" y1="831.0388" y2="831.0388"/><line style="stroke:#4CAF50;stroke-width:1;" x1="1139" x2="1139" y1="831.0388" y2="1145.1788"/><text fill="#000000" font-family="Verdana" font-size="10" font-weight="bold" lengthAdjust="spacing" textLength="93.8477" x="888.0762" y="843.321">Database Server</text></g><!--cluster mysql--><g class="cluster" data-entity="mysql" data-source-line="39" data-uid="ent0019" id="cluster_mysql"><rect fill="#FFF3E0" height="225.14" rx="2.5" ry="2.5" style="stroke:#FF9800;stroke-width:1;" width="332" x="769" y="880.0388"/><polygon fill="#FFF3E0" points="1084,885.0388,1084,899.0388,1096,899.0388,1096,891.0388,1090,885.0388,1084,885.0388" style="stroke:#FF9800;stroke-width:1;"/><line style="stroke:#FF9800;stroke-width:1;" x1="1090" x2="1090" y1="885.0388" y2="891.0388"/><line style="stroke:#FF9800;stroke-width:1;" x1="1096" x2="1090" y1="891.0388" y2="891.0388"/><text fill="#000000" font-family="Verdana" font-size="14" font-weight="bold" lengthAdjust="spacing" textLength="133.3418" x="868.3291" y="895.0339">MySQL Database</text></g><!--entity HTML/CSS/JS--><g class="entity" data-entity="HTML.CSS.JS" data-source-line="16" data-uid="ent0004" id="entity_HTML.CSS.JS"><rect fill="#FFFFFF" height="46.2969" rx="2.5" ry="2.5" style="stroke:#000000;stroke-width:1;" width="128.9561" x="478.52" y="228.5888"/><rect fill="#FFFFFF" height="10" style="stroke:#000000;stroke-width:1;" width="15" x="587.4761" y="233.5888"/><rect fill="#FFFFFF" height="2" style="stroke:#000000;stroke-width:1;" width="4" x="585.4761" y="235.5888"/><rect fill="#FFFFFF" height="2" style="stroke:#000000;stroke-width:1;" width="4" x="585.4761" y="239.5888"/><text fill="#000000" font-family="Verdana" font-size="14" lengthAdjust="spacing" textLength="88.9561" x="493.52" y="261.5839">HTML/CSS/JS</text></g><!--entity AJAX Engine--><g class="entity" data-entity="AJAX Engine" data-source-line="17" data-uid="ent0005" id="entity_AJAX Engine"><rect fill="#FFFFFF" height="46.2969" rx="2.5" ry="2.5" style="stroke:#000000;stroke-width:1;" width="125.3057" x="642.35" y="228.5888"/><rect fill="#FFFFFF" height="10" style="stroke:#000000;stroke-width:1;" width="15" x="747.6557" y="233.5888"/><rect fill="#FFFFFF" height="2" style="stroke:#000000;stroke-width:1;" width="4" x="745.6557" y="235.5888"/><rect fill="#FFFFFF" height="2" style="stroke:#000000;stroke-width:1;" width="4" x="745.6557" y="239.5888"/><text fill="#000000" font-family="Verdana" font-size="14" lengthAdjust="spacing" textLength="85.3057" x="657.35" y="261.5839">AJAX Engine</text></g><!--entity HTTP Handler--><g class="entity" data-entity="HTTP Handler" data-source-line="23" data-uid="ent0008" id="entity_HTTP Handler"><rect fill="#FFFFFF" height="46.2969" rx="2.5" ry="2.5" style="stroke:#000000;stroke-width:1;" width="135.6484" x="267.18" y="520.8888"/><rect fill="#FFFFFF" height="10" style="stroke:#000000;stroke-width:1;" width="15" x="382.8284" y="525.8888"/><rect fill="#FFFFFF" height="2" style="stroke:#000000;stroke-width:1;" width="4" x="380.8284" y="527.8888"/><rect fill="#FFFFFF" height="2" style="stroke:#000000;stroke-width:1;" width="4" x="380.8284" y="531.8888"/><text fill="#000000" font-family="Verdana" font-size="14" lengthAdjust="spacing" textLength="95.6484" x="282.18" y="553.8839">HTTP Handler</text></g><!--entity PHP Runtime--><g class="entity" data-entity="PHP Runtime" data-source-line="24" data-uid="ent0009" id="entity_PHP Runtime"><rect fill="#FFFFFF" height="46.2969" rx="2.5" ry="2.5" style="stroke:#000000;stroke-width:1;" width="130.9658" x="437.52" y="520.8888"/><rect fill="#FFFFFF" height="10" style="stroke:#000000;stroke-width:1;" width="15" x="548.4858" y="525.8888"/><rect fill="#FFFFFF" height="2" style="stroke:#000000;stroke-width:1;" width="4" x="546.4858" y="527.8888"/><rect fill="#FFFFFF" height="2" style="stroke:#000000;stroke-width:1;" width="4" x="546.4858" y="531.8888"/><text fill="#000000" font-family="Verdana" font-size="14" lengthAdjust="spacing" textLength="90.9658" x="452.52" y="553.8839">PHP Runtime</text></g><!--entity src/home.php--><g class="entity" data-entity="src.home.php" data-source-line="28" data-uid="ent0011" id="entity_src.home.php"><rect fill="#FFFFFF" height="46.2969" rx="2.5" ry="2.5" style="stroke:#000000;stroke-width:1;" width="136.25" x="84.88" y="699.1888"/><rect fill="#FFFFFF" height="10" style="stroke:#000000;stroke-width:1;" width="15" x="201.13" y="704.1888"/><rect fill="#FFFFFF" height="2" style="stroke:#000000;stroke-width:1;" width="4" x="199.13" y="706.1888"/><rect fill="#FFFFFF" height="2" style="stroke:#000000;stroke-width:1;" width="4" x="199.13" y="710.1888"/><text fill="#000000" font-family="Verdana" font-size="14" lengthAdjust="spacing" textLength="96.25" x="99.88" y="732.1839">src/home.php</text></g><!--entity src/typing_test.php--><g class="entity" data-entity="src.typing_test.php" data-source-line="29" data-uid="ent0012" id="entity_src.typing_test.php"><rect fill="#FFFFFF" height="46.2969" rx="2.5" ry="2.5" style="stroke:#000000;stroke-width:1;" width="174.7568" x="256.62" y="699.1888"/><rect fill="#FFFFFF" height="10" style="stroke:#000000;stroke-width:1;" width="15" x="411.3768" y="704.1888"/><rect fill="#FFFFFF" height="2" style="stroke:#000000;stroke-width:1;" width="4" x="409.3768" y="706.1888"/><rect fill="#FFFFFF" height="2" style="stroke:#000000;stroke-width:1;" width="4" x="409.3768" y="710.1888"/><text fill="#000000" font-family="Verdana" font-size="14" lengthAdjust="spacing" textLength="134.7568" x="271.62" y="732.1839">src/typing_test.php</text></g><!--entity src/login.php--><g class="entity" data-entity="src.login.php" data-source-line="30" data-uid="ent0013" id="entity_src.login.php"><rect fill="#FFFFFF" height="46.2969" rx="2.5" ry="2.5" style="stroke:#000000;stroke-width:1;" width="130.665" x="466.67" y="699.1888"/><rect fill="#FFFFFF" height="10" style="stroke:#000000;stroke-width:1;" width="15" x="577.335" y="704.1888"/><rect fill="#FFFFFF" height="2" style="stroke:#000000;stroke-width:1;" width="4" x="575.335" y="706.1888"/><rect fill="#FFFFFF" height="2" style="stroke:#000000;stroke-width:1;" width="4" x="575.335" y="710.1888"/><text fill="#000000" font-family="Verdana" font-size="14" lengthAdjust="spacing" textLength="90.665" x="481.67" y="732.1839">src/login.php</text></g><!--entity src/results.php--><g class="entity" data-entity="src.results.php" data-source-line="31" data-uid="ent0014" id="entity_src.results.php"><rect fill="#FFFFFF" height="46.2969" rx="2.5" ry="2.5" style="stroke:#000000;stroke-width:1;" width="143.7695" x="85.12" y="923.0388"/><rect fill="#FFFFFF" height="10" style="stroke:#000000;stroke-width:1;" width="15" x="208.8895" y="928.0388"/><rect fill="#FFFFFF" height="2" style="stroke:#000000;stroke-width:1;" width="4" x="206.8895" y="930.0388"/><rect fill="#FFFFFF" height="2" style="stroke:#000000;stroke-width:1;" width="4" x="206.8895" y="934.0388"/><text fill="#000000" font-family="Verdana" font-size="14" lengthAdjust="spacing" textLength="103.7695" x="100.12" y="956.0339">src/results.php</text></g><!--entity assets/css/--><g class="entity" data-entity="assets.css." data-source-line="32" data-uid="ent0015" id="entity_assets.css."><rect fill="#FFFFFF" height="46.2969" rx="2.5" ry="2.5" style="stroke:#000000;stroke-width:1;" width="116.2822" x="263.86" y="923.0388"/><rect fill="#FFFFFF" height="10" style="stroke:#000000;stroke-width:1;" width="15" x="360.1422" y="928.0388"/><rect fill="#FFFFFF" height="2" style="stroke:#000000;stroke-width:1;" width="4" x="358.1422" y="930.0388"/><rect fill="#FFFFFF" height="2" style="stroke:#000000;stroke-width:1;" width="4" x="358.1422" y="934.0388"/><text fill="#000000" font-family="Verdana" font-size="14" lengthAdjust="spacing" textLength="76.2822" x="278.86" y="956.0339">assets/css/</text></g><!--entity assets/js/--><g class="entity" data-entity="assets.js." data-source-line="33" data-uid="ent0016" id="entity_assets.js."><rect fill="#FFFFFF" height="46.2969" rx="2.5" ry="2.5" style="stroke:#000000;stroke-width:1;" width="105.1807" x="415.41" y="923.0388"/><rect fill="#FFFFFF" height="10" style="stroke:#000000;stroke-width:1;" width="15" x="500.5907" y="928.0388"/><rect fill="#FFFFFF" height="2" style="stroke:#000000;stroke-width:1;" width="4" x="498.5907" y="930.0388"/><rect fill="#FFFFFF" height="2" style="stroke:#000000;stroke-width:1;" width="4" x="498.5907" y="934.0388"/><text fill="#000000" font-family="Verdana" font-size="14" lengthAdjust="spacing" textLength="65.1807" x="430.41" y="956.0339">assets/js/</text></g><!--entity assets/images/--><g class="entity" data-entity="assets.images." data-source-line="34" data-uid="ent0017" id="entity_assets.images."><rect fill="#FFFFFF" height="46.2969" rx="2.5" ry="2.5" style="stroke:#000000;stroke-width:1;" width="144.8975" x="84.55" y="1034.8788"/><rect fill="#FFFFFF" height="10" style="stroke:#000000;stroke-width:1;" width="15" x="209.4475" y="1039.8788"/><rect fill="#FFFFFF" height="2" style="stroke:#000000;stroke-width:1;" width="4" x="207.4475" y="1041.8788"/><rect fill="#FFFFFF" height="2" style="stroke:#000000;stroke-width:1;" width="4" x="207.4475" y="1045.8788"/><text fill="#000000" font-family="Verdana" font-size="14" lengthAdjust="spacing" textLength="104.8975" x="99.55" y="1067.8739">assets/images/</text></g><!--entity user table--><g class="entity" data-entity="user table" data-source-line="40" data-uid="ent0020" id="entity_user table"><rect fill="#FFFFFF" height="46.2969" rx="2.5" ry="2.5" style="stroke:#000000;stroke-width:1;" width="110.4443" x="792.78" y="923.0388"/><rect fill="#FFFFFF" height="10" style="stroke:#000000;stroke-width:1;" width="15" x="883.2243" y="928.0388"/><rect fill="#FFFFFF" height="2" style="stroke:#000000;stroke-width:1;" width="4" x="881.2243" y="930.0388"/><rect fill="#FFFFFF" height="2" style="stroke:#000000;stroke-width:1;" width="4" x="881.2243" y="934.0388"/><text fill="#000000" font-family="Verdana" font-size="14" lengthAdjust="spacing" textLength="70.4443" x="807.78" y="956.0339">user table</text></g><!--entity result table--><g class="entity" data-entity="result table" data-source-line="41" data-uid="ent0021" id="entity_result table"><rect fill="#FFFFFF" height="46.2969" rx="2.5" ry="2.5" style="stroke:#000000;stroke-width:1;" width="119.8232" x="938.09" y="923.0388"/><rect fill="#FFFFFF" height="10" style="stroke:#000000;stroke-width:1;" width="15" x="1037.9132" y="928.0388"/><rect fill="#FFFFFF" height="2" style="stroke:#000000;stroke-width:1;" width="4" x="1035.9132" y="930.0388"/><rect fill="#FFFFFF" height="2" style="stroke:#000000;stroke-width:1;" width="4" x="1035.9132" y="934.0388"/><text fill="#000000" font-family="Verdana" font-size="14" lengthAdjust="spacing" textLength="79.8232" x="953.09" y="956.0339">result table</text></g><!--entity download table--><g class="entity" data-entity="download table" data-source-line="42" data-uid="ent0022" id="entity_download table"><rect fill="#FFFFFF" height="46.2969" rx="2.5" ry="2.5" style="stroke:#000000;stroke-width:1;" width="147.6045" x="793.2" y="1034.8788"/><rect fill="#FFFFFF" height="10" style="stroke:#000000;stroke-width:1;" width="15" x="920.8045" y="1039.8788"/><rect fill="#FFFFFF" height="2" style="stroke:#000000;stroke-width:1;" width="4" x="918.8045" y="1041.8788"/><rect fill="#FFFFFF" height="2" style="stroke:#000000;stroke-width:1;" width="4" x="918.8045" y="1045.8788"/><text fill="#000000" font-family="Verdana" font-size="14" lengthAdjust="spacing" textLength="107.6045" x="808.2" y="1067.8739">download table</text></g><g class="entity" data-entity="GMN28" data-source-line="57" data-uid="ent0029" id="entity_GMN28"><path d="M875.35,224.0388 L875.35,279.4372 L1062.6522,279.4372 L1062.6522,234.0388 L1052.6522,224.0388 L875.35,224.0388" fill="#FFFFFF" style="stroke:#000000;stroke-width:1;"/><path d="M1052.6522,224.0388 L1052.6522,234.0388 L1062.6522,234.0388 L1052.6522,224.0388" fill="#FFFFFF" style="stroke:#000000;stroke-width:1;"/><text fill="#000000" font-family="Verdana" font-size="13" lengthAdjust="spacing" textLength="124.5029" x="881.35" y="241.1056">"User's device with</text><text fill="#000000" font-family="Verdana" font-size="13" lengthAdjust="spacing" textLength="137.8965" x="881.35" y="256.2385">modern web browser</text><text fill="#000000" font-family="Verdana" font-size="13" lengthAdjust="spacing" textLength="166.3022" x="881.35" y="271.3713">(Chrome, Firefox, Safari)"</text></g><g class="entity" data-entity="GMN31" data-source-line="59" data-uid="ent0032" id="entity_GMN31"><path d="M899.05,694.6388 L899.05,750.0372 L1108.9436,750.0372 L1108.9436,704.6388 L1098.9436,694.6388 L899.05,694.6388" fill="#FFFFFF" style="stroke:#000000;stroke-width:1;"/><path d="M1098.9436,694.6388 L1098.9436,704.6388 L1108.9436,704.6388 L1098.9436,694.6388" fill="#FFFFFF" style="stroke:#000000;stroke-width:1;"/><text fill="#000000" font-family="Verdana" font-size="13" lengthAdjust="spacing" textLength="118.7075" x="905.05" y="711.7056">"LAMP/LEMP stack</text><text fill="#000000" font-family="Verdana" font-size="13" lengthAdjust="spacing" textLength="120.3262" x="905.05" y="726.8385">PHP 7.4+ required</text><text fill="#000000" font-family="Verdana" font-size="13" lengthAdjust="spacing" textLength="188.8936" x="905.05" y="741.9713">Composer for dependencies"</text></g><g class="entity" data-entity="GMN34" data-source-line="61" data-uid="ent0035" id="entity_GMN34"><path d="M1176.75,918.4788 L1176.75,973.8772 L1305.2539,973.8772 L1305.2539,928.4788 L1295.2539,918.4788 L1176.75,918.4788" fill="#FFFFFF" style="stroke:#000000;stroke-width:1;"/><path d="M1295.2539,918.4788 L1295.2539,928.4788 L1305.2539,928.4788 L1295.2539,918.4788" fill="#FFFFFF" style="stroke:#000000;stroke-width:1;"/><text fill="#000000" font-family="Verdana" font-size="13" lengthAdjust="spacing" textLength="86.3154" x="1182.75" y="935.5456">"MySQL 5.7+</text><text fill="#000000" font-family="Verdana" font-size="13" lengthAdjust="spacing" textLength="107.3198" x="1182.75" y="950.6785">Stores user data</text><text fill="#000000" font-family="Verdana" font-size="13" lengthAdjust="spacing" textLength="107.5039" x="1182.75" y="965.8113">and test results"</text></g><!--link client to webserver--><g class="link" data-entity-1="client" data-entity-2="webserver" data-source-line="49" data-uid="lnk23" id="link_client_webserver"><path d="M449.9021,339.1095 C450.0155,339.2714 450.1291,339.433 450.2431,339.5943 C450.4711,339.917 450.7004,340.2386 450.9309,340.559 C454.6197,345.6864 458.6363,350.5238 463,354.8888 C492.51,384.4188 507.82,383.5388 548,394.8888 C563.49,399.2688 607.04,393.3388 620,402.8888 C623.3638,405.3694 626.5445,408.0752 629.552,410.9692 C631.0558,412.4162 632.5162,413.9103 633.9346,415.4467 C634.6438,416.2149 635.3425,416.9937 636.0308,417.7825 C636.2028,417.9797 632.4605,413.6297 632.6313,413.8282" fill="none" id="client-to-webserver" style="stroke:#000000;stroke-width:1;"/><polygon fill="#000000" points="636.545,418.376,633.7063,408.9451,633.2836,414.5862,627.6426,414.1634,636.545,418.376" style="stroke:#000000;stroke-width:1;"/><text fill="#000000" font-family="Verdana" font-size="13" lengthAdjust="spacing" textLength="79.625" x="549" y="375.9556">HTTP/HTTPS</text><text fill="#000000" font-family="Verdana" font-size="13" lengthAdjust="spacing" textLength="76.1021" x="550.7615" y="391.0885">Port 80/443</text></g><!--link webserver to dbserver--><g class="link" data-entity-1="webserver" data-entity-2="dbserver" data-source-line="50" data-uid="lnk24" id="link_webserver_dbserver"><path d="M689.0428,568.3267 C689.1286,568.5685 689.2151,568.8117 689.3021,569.0565 C689.9983,571.0146 690.7327,573.0682 691.5031,575.2081 C697.6663,592.3275 706.1325,614.9688 715.785,638.3788 C735.09,685.1988 759.14,735.0938 779,750.0388 C897.82,839.4288 1000.79,703.0588 1109,805.0388 C1111.8606,807.7344 1114.4904,810.6288 1116.9069,813.6873 C1118.1151,815.2166 1119.27,816.7869 1120.3738,818.3939 C1120.9257,819.1974 1118.2263,814.9592 1118.7529,815.7805" fill="none" id="webserver-to-dbserver" style="stroke:#000000;stroke-width:1;"/><polygon fill="#000000" points="1121.9915,820.8314,1120.5009,811.096,1119.2926,816.6223,1113.7663,815.4141,1121.9915,820.8314" style="stroke:#000000;stroke-width:1;"/><text fill="#000000" font-family="Verdana" font-size="13" lengthAdjust="spacing" textLength="101.6704" x="780" y="719.4056">MySQL Protocol</text><text fill="#000000" font-family="Verdana" font-size="13" lengthAdjust="spacing" textLength="63.4512" x="799.1096" y="734.5385">Port 3306</text></g><!--link browser to httpserver--><g class="link" data-entity-1="browser" data-entity-2="httpserver" data-source-line="53" data-uid="lnk25" id="link_browser_httpserver"><path d="M804.7265,299.1187 C804.6971,299.4593 804.6666,299.8005 804.6349,300.1423 C804.3817,302.8768 804.0545,305.6487 803.6406,308.4342 C802.8126,314.0051 801.6373,319.6304 800.0105,325.1192 C796.7569,336.0969 791.6975,346.5288 784,354.8888 C783.79,355.1188 608.2,402.6388 608,402.8888 C598.52,414.9413 593.4638,429.5494 591.2281,444.7253 C590.1103,452.3133 589.6977,460.0432 589.7898,467.6666 C589.8128,469.5725 589.8674,471.4716 589.9504,473.3603 C589.9919,474.3046 590.0405,475.2463 590.0958,476.1849 C590.1234,476.6542 589.7564,471.1358 589.7873,471.6034" fill="none" id="browser-to-httpserver" style="stroke:#000000;stroke-width:1;"/><polygon fill="#000000" points="590.1837,477.5903,593.5804,468.3457,589.8534,472.6013,585.5979,468.8743,590.1837,477.5903" style="stroke:#000000;stroke-width:1;"/><text fill="#000000" font-family="Verdana" font-size="13" lengthAdjust="spacing" textLength="93.3994" x="755" y="383.4556">Web Requests</text></g><!--link httpserver to app--><g class="link" data-entity-1="httpserver" data-entity-2="app" data-source-line="54" data-uid="lnk26" id="link_httpserver_app"><path d="M606.2132,591.4543 C606.2231,591.5629 606.233,591.6714 606.2429,591.78 C606.402,593.5167 606.5724,595.2546 606.7547,596.9843 C607.1195,600.4436 607.5325,603.87 608,607.1888 C609.7825,619.8438 612.2019,633.1831 614.8367,646.1036 C615.4954,649.3337 614.9072,646.6715 615.5863,649.832" fill="none" id="httpserver-to-app" style="stroke:#000000;stroke-width:1;"/><polygon fill="#000000" points="616.8467,655.6982,618.8668,646.0587,615.7964,650.8097,611.0453,647.7392,616.8467,655.6982" style="stroke:#000000;stroke-width:1;"/><text fill="#000000" font-family="Verdana" font-size="13" lengthAdjust="spacing" textLength="79.4155" x="612" y="628.2556">Process PHP</text></g><!--link app to mysql--><g class="link" data-entity-1="app" data-entity-2="mysql" data-source-line="55" data-uid="lnk27" id="link_app_mysql"><path d="M641.1351,782.3295 C641.2526,782.5561 641.3715,782.7817 641.492,783.0064 C642.4555,784.8039 643.5152,786.5407 644.6798,788.1981 C647.0092,791.513 649.7588,794.51 653,797.0388 C671.45,811.4188 1056.53,789.4788 1074,805.0388 C1079.7775,810.1813 1083.8619,821.28 1086.7366,835.092 C1088.1739,841.998 1089.3088,849.5824 1090.2018,857.4397 C1090.6482,861.3683 1091.0342,865.3652 1091.3672,869.3796 C1091.5337,871.3869 1091.687,873.3985 1091.828,875.4081 C1091.8985,876.413 1091.9659,877.4173 1092.0304,878.4204 C1092.0626,878.9219 1091.7261,873.4345 1091.7569,873.9353" fill="none" id="app-to-mysql" style="stroke:#000000;stroke-width:1;"/><polygon fill="#000000" points="1092.1248,879.924,1095.5654,870.6956,1091.8182,874.9334,1087.5805,871.1862,1092.1248,879.924" style="stroke:#000000;stroke-width:1;"/><text fill="#000000" font-family="Verdana" font-size="13" lengthAdjust="spacing" textLength="80.0566" x="654" y="793.1056">SQL Queries</text></g><!--link client to GMN28--><g class="link" data-entity-1="client" data-entity-2="GMN28" data-source-line="57" data-uid="lnk30" id="link_client_GMN28"><path d="M443.6271,126.0397 C444.2348,125.1332 444.8553,124.2381 445.4888,123.3553 C446.7559,121.5897 448.0751,119.8729 449.4487,118.2113 C452.1958,114.8881 455.1602,111.7853 458.3589,108.9523 C464.7564,103.2864 472.0913,98.7 480.5,95.5888 C513.95,83.2188 768.05,83.2188 801.5,95.5888 C867.68,120.0788 922.61,185.6788 950.08,223.6088" fill="none" id="client-GMN28" style="stroke:#000000;stroke-width:1;stroke-dasharray:7,7;"/></g><!--link webserver to GMN31--><g class="link" data-entity-1="webserver" data-entity-2="GMN31" data-source-line="59" data-uid="lnk33" id="link_webserver_GMN31"><path d="M689.2856,548.8435 C689.4092,548.9005 689.534,548.9581 689.6601,549.0163 C690.669,549.4821 691.7588,549.986 692.9256,550.5265 C695.2593,551.6075 697.9011,552.8349 700.82,554.1966 C712.4956,559.6431 728.605,567.2375 747.1625,576.2013 C784.2775,594.1288 831.185,617.5338 872,640.1888 C902.69,657.2188 936.4,677.9788 962.06,694.2288" fill="none" id="webserver-GMN31" style="stroke:#000000;stroke-width:1;stroke-dasharray:7,7;"/></g><!--link GMN34 to dbserver--><g class="link" data-entity-1="GMN34" data-entity-2="dbserver" data-source-line="61" data-uid="lnk36" id="link_GMN34_dbserver"><path d="M1176.28,946.1788 C1170.53,946.1788 1164.78,946.1788 1159.03,946.1788 C1156.155,946.1788 1153.28,946.1788 1150.405,946.1788 C1150.0456,946.1788 1149.6863,946.1788 1149.3269,946.1788 C1149.237,946.1788 1149.1472,946.1788 1149.0573,946.1788" fill="none" id="GMN34-dbserver" style="stroke:#000000;stroke-width:1;stroke-dasharray:7,7;"/></g><!--SRC=[VLJRRjf047ttLqpTXxJAnLIGXkQX4Y5OKGIL4rErKecgnHxmDkjTPtSTGglyUsTjI9royOC5EsVFd9avupSsmnoX48nBpznpMJ3DSf0gHVZZ0JqNBBcVQrNAjA-4ql1sq0rF1zqwfdIAUdNUwVV2qrPr7YffO_uRuKFBUsxGCctvZ2Ls5tKOXkr1QvCw33zrMuxAizmAX50may5uMN0vXp4Q2v5WTgPqFf6NM0Yrp55QwEaaunOJMshqlAeclo-u2uqOXIJwm0mazL6jwKMY_msdSA7Lmg2kODFwzmhddaJbXPBkxe-hyMWOzECuk8xljiLxrxtlC91pobd7drqrjIINA4RzkCgpmAcf_cqewXMa6eClnF9KGJDhYrVO3LNZ2AwOJ0NghRAYgmXkIsbv_YBBlV_BMxUxLnI29yno9Qlah2YsPpKw2JALuqcH5NUx0BOQtazBmzkB4uggtOlGQ4fXpKuCCmQj2H9ZWdtnN_l3F6TpN4CQmxjabasPmUO4qrq372tZco6ihrJOV6aUnFO-bivj11MuLLXTznv0gXPIA9Os8PLoppk0lfAIDeE6QRpL0XmVVswOxnnyPv_0lUA9Z9Isq6q5dKxRz_wXt9sqSQMkCDBAgaI9rRLsk_NHhvFcUIbN9e9YXJBUUhKSMyFJv_LktE93IJOnljU8EQXp864eMuB609dPzzoPYzLzfQZJSrEYvaW4D3IBeFayiw1cwyqdr5UYFQ39uIDF41RSPXEPqu2rT2rPx_v4lkjdcgnz127NE5DFHn2p6TFy_PfxggnLkID_rSfXRnG5my4e0cFfgqUDeSqxE-aSWgRgY2kToBuRdMi3VSX8IO4oHPaqT0kSLR8t6tvwSdOuaR5LP0geV9EIoIQILX_SYi5gIVo_]--></g></svg>