<svg xmlns="http://www.w3.org/2000/svg" xmlns:xlink="http://www.w3.org/1999/xlink" contentStyleType="text/css" data-diagram-type="CLASS" height="544px" preserveAspectRatio="none" style="width:591px;height:544px;background:#FFFFFF;" version="1.1" viewBox="0 0 591 544" width="591px" zoomAndPan="magnify"><title>Flash Typing Test Platform
Runtime Object Snapshot</title><defs/><g><g class="title" data-source-line="11"><text fill="#000000" font-family="Verdana" font-size="22" font-weight="bold" lengthAdjust="spacing" textLength="334.2217" x="124.1791" y="35.4209">Flash Typing Test Platform</text><text fill="#000000" font-family="Verdana" font-size="22" font-weight="bold" lengthAdjust="spacing" textLength="316.4434" x="133.0682" y="61.0303">Runtime Object Snapshot</text></g><g class="entity" data-entity="user" data-source-line="13" data-uid="ent0002" id="entity_user"><rect fill="#E3F2FD" height="70.2031" rx="2.5" ry="2.5" style="stroke:#1976D2;stroke-width:1;" width="162.8398" x="421.74" y="184.4788"/><text fill="#000000" font-family="Verdana" font-size="10" lengthAdjust="spacing" textLength="26.1621" x="490.0789" y="195.761">:User</text><line style="stroke:#1976D2;stroke-width:1;" x1="422.74" x2="583.5798" y1="200.1194" y2="200.1194"/><text fill="#000000" font-family="Verdana" font-size="10" lengthAdjust="spacing" textLength="42.9492" x="427.74" y="213.4016">id = 101</text><text fill="#000000" font-family="Verdana" font-size="10" lengthAdjust="spacing" textLength="119.2969" x="427.74" y="225.0422">username = "john_doe"</text><text fill="#000000" font-family="Verdana" font-size="10" lengthAdjust="spacing" textLength="150.8398" x="427.74" y="236.6829">email = "john@example.com"</text><text fill="#000000" font-family="Verdana" font-size="10" lengthAdjust="spacing" textLength="131.123" x="427.74" y="248.3235">createdAt = "2025-09-15"</text></g><g class="entity" data-entity="test" data-source-line="20" data-uid="ent0003" id="entity_test"><rect fill="#E3F2FD" height="70.2031" rx="2.5" ry="2.5" style="stroke:#1976D2;stroke-width:1;" width="188.3135" x="12" y="184.4788"/><text fill="#000000" font-family="Verdana" font-size="10" lengthAdjust="spacing" textLength="58.5986" x="76.8574" y="195.761">:TypingTest</text><line style="stroke:#1976D2;stroke-width:1;" x1="13" x2="199.3135" y1="200.1194" y2="200.1194"/><text fill="#000000" font-family="Verdana" font-size="10" lengthAdjust="spacing" textLength="176.3135" x="18" y="213.4016">testText = "The quick brown fox..."</text><text fill="#000000" font-family="Verdana" font-size="10" lengthAdjust="spacing" textLength="74.8438" x="18" y="225.0422">timeLimit = 45</text><text fill="#000000" font-family="Verdana" font-size="10" lengthAdjust="spacing" textLength="80.0586" x="18" y="236.6829">level = MEDIUM</text><text fill="#000000" font-family="Verdana" font-size="10" lengthAdjust="spacing" textLength="116.9189" x="18" y="248.3235">startTime = "14:30:25"</text></g><g class="entity" data-entity="result" data-source-line="27" data-uid="ent0004" id="entity_result"><rect fill="#E3F2FD" height="81.8438" rx="2.5" ry="2.5" style="stroke:#1976D2;stroke-width:1;" width="137.1563" x="232.58" y="331.6788"/><text fill="#000000" font-family="Verdana" font-size="10" lengthAdjust="spacing" textLength="56.1084" x="273.1039" y="342.961">:TestResult</text><line style="stroke:#1976D2;stroke-width:1;" x1="233.58" x2="368.7363" y1="347.3194" y2="347.3194"/><text fill="#000000" font-family="Verdana" font-size="10" lengthAdjust="spacing" textLength="61.2695" x="238.58" y="360.6016">wpm = 68.5</text><text fill="#000000" font-family="Verdana" font-size="10" lengthAdjust="spacing" textLength="55.4102" x="238.58" y="372.2422">cpm = 342</text><text fill="#000000" font-family="Verdana" font-size="10" lengthAdjust="spacing" textLength="91.6211" x="238.58" y="383.8829">accuracy = 94.2%</text><text fill="#000000" font-family="Verdana" font-size="10" lengthAdjust="spacing" textLength="66.0303" x="238.58" y="395.5235">mistakes = 3</text><text fill="#000000" font-family="Verdana" font-size="10" lengthAdjust="spacing" textLength="125.1563" x="238.58" y="407.1641">testDate = "2025-09-17"</text></g><g class="entity" data-entity="level" data-source-line="35" data-uid="ent0005" id="entity_level"><rect fill="#E3F2FD" height="46.9219" rx="2.5" ry="2.5" style="stroke:#1976D2;stroke-width:1;" width="161.2725" x="25.52" y="349.1488"/><text fill="#000000" font-family="Verdana" font-size="10" lengthAdjust="spacing" textLength="116.2354" x="48.0386" y="360.431">MEDIUM:DifficultyLevel</text><line style="stroke:#1976D2;stroke-width:1;" x1="26.52" x2="185.7925" y1="364.7894" y2="364.7894"/><text fill="#000000" font-family="Verdana" font-size="10" lengthAdjust="spacing" textLength="74.8438" x="31.52" y="378.0716">timeLimit = 45</text><text fill="#000000" font-family="Verdana" font-size="10" lengthAdjust="spacing" textLength="149.2725" x="31.52" y="389.7122">description = "Medium Level"</text></g><g class="entity" data-entity="db" data-source-line="40" data-uid="ent0006" id="entity_db"><rect fill="#E3F2FD" height="46.9219" rx="2.5" ry="2.5" style="stroke:#1976D2;stroke-width:1;" width="115.0811" x="445.62" y="490.5288"/><text fill="#000000" font-family="Verdana" font-size="10" lengthAdjust="spacing" textLength="94.917" x="455.702" y="501.811">:DatabaseManager</text><line style="stroke:#1976D2;stroke-width:1;" x1="446.62" x2="559.7011" y1="506.1694" y2="506.1694"/><text fill="#000000" font-family="Verdana" font-size="10" lengthAdjust="spacing" textLength="103.0811" x="451.62" y="519.4516">instance = singleton</text><text fill="#000000" font-family="Verdana" font-size="10" lengthAdjust="spacing" textLength="100.2295" x="451.62" y="531.0922">connection = active</text></g><g class="entity" data-entity="GMN12" data-source-line="52" data-uid="ent0013" id="entity_GMN12"><path d="M426.56,83.2188 L426.56,123.4844 A0,0 0 0 0 426.56,123.4844 L499.16,123.4844 L503.16,184.2888 L507.16,123.4844 L579.7563,123.4844 A0,0 0 0 0 579.7563,123.4844 L579.7563,93.2188 L569.7563,83.2188 L426.56,83.2188 A0,0 0 0 0 426.56,83.2188" fill="#FFFFFF" style="stroke:#000000;stroke-width:1;"/><path d="M569.7563,83.2188 L569.7563,93.2188 L579.7563,93.2188 L569.7563,83.2188" fill="#FFFFFF" style="stroke:#000000;stroke-width:1;"/><text fill="#000000" font-family="Verdana" font-size="13" lengthAdjust="spacing" textLength="131.1616" x="432.56" y="100.2856">"Active user session</text><text fill="#000000" font-family="Verdana" font-size="13" lengthAdjust="spacing" textLength="132.1963" x="432.56" y="115.4185">with authentication"</text></g><g class="entity" data-entity="GMN15" data-source-line="54" data-uid="ent0016" id="entity_GMN15"><path d="M235.81,199.4488 L235.81,215.5788 L200.65,219.5788 L235.81,223.5788 L235.81,239.7144 A0,0 0 0 0 235.81,239.7144 L386.5053,239.7144 A0,0 0 0 0 386.5053,239.7144 L386.5053,209.4488 L376.5053,199.4488 L235.81,199.4488 A0,0 0 0 0 235.81,199.4488" fill="#FFFFFF" style="stroke:#000000;stroke-width:1;"/><path d="M376.5053,199.4488 L376.5053,209.4488 L386.5053,209.4488 L376.5053,199.4488" fill="#FFFFFF" style="stroke:#000000;stroke-width:1;"/><text fill="#000000" font-family="Verdana" font-size="13" lengthAdjust="spacing" textLength="129.6953" x="241.81" y="216.5156">"Current typing test</text><text fill="#000000" font-family="Verdana" font-size="13" lengthAdjust="spacing" textLength="78.6538" x="241.81" y="231.6485">in progress"</text></g><g class="entity" data-entity="GMN18" data-source-line="56" data-uid="ent0019" id="entity_GMN18"><path d="M55.75,493.8588 L55.75,534.1244 A0,0 0 0 0 55.75,534.1244 L218.5693,534.1244 A0,0 0 0 0 218.5693,534.1244 L218.5693,503.8588 L208.5693,493.8588 L163.92,493.8588 L253.72,413.9188 L155.92,493.8588 L55.75,493.8588 A0,0 0 0 0 55.75,493.8588" fill="#FFFFFF" style="stroke:#000000;stroke-width:1;"/><path d="M208.5693,493.8588 L208.5693,503.8588 L218.5693,503.8588 L208.5693,493.8588" fill="#FFFFFF" style="stroke:#000000;stroke-width:1;"/><text fill="#000000" font-family="Verdana" font-size="13" lengthAdjust="spacing" textLength="141.8193" x="61.75" y="510.9256">"Performance metrics</text><text fill="#000000" font-family="Verdana" font-size="13" lengthAdjust="spacing" textLength="138.7217" x="61.75" y="526.0585">from completed test"</text></g><g class="entity" data-entity="GMN21" data-source-line="58" data-uid="ent0022" id="entity_GMN21"><path d="M253.25,493.8588 L253.25,534.1244 A0,0 0 0 0 253.25,534.1244 L411.061,534.1244 A0,0 0 0 0 411.061,534.1244 L411.061,517.9888 L445.39,513.9888 L411.061,509.9888 L411.061,503.8588 L401.061,493.8588 L253.25,493.8588 A0,0 0 0 0 253.25,493.8588" fill="#FFFFFF" style="stroke:#000000;stroke-width:1;"/><path d="M401.061,493.8588 L401.061,503.8588 L411.061,503.8588 L401.061,493.8588" fill="#FFFFFF" style="stroke:#000000;stroke-width:1;"/><text fill="#000000" font-family="Verdana" font-size="13" lengthAdjust="spacing" textLength="131.6377" x="259.25" y="510.9256">"Singleton database</text><text fill="#000000" font-family="Verdana" font-size="13" lengthAdjust="spacing" textLength="136.811" x="259.25" y="526.0585">connection instance"</text></g><!--link user to result--><g class="link" data-entity-1="user" data-entity-2="result" data-source-line="46" data-uid="lnk7" id="link_user_result"><path codeLine="46" d="M452.63,254.9688 C439.05,264.4388 424.44,274.8188 411.16,284.6788 C391.13,299.5588 374.193,312.7104 355.463,327.6304" fill="none" id="user-to-result" style="stroke:#424242;stroke-width:1;"/><polygon fill="#424242" points="350.77,331.3688,360.3018,328.8899,354.6809,328.2534,355.3173,322.6325,350.77,331.3688" style="stroke:#424242;stroke-width:1;"/><text fill="#000000" font-family="Verdana" font-size="13" lengthAdjust="spacing" textLength="64.1748" x="412.16" y="297.7456">has result</text></g><!--link test to result--><g class="link" data-entity-1="test" data-entity-2="result" data-source-line="47" data-uid="lnk8" id="link_test_result"><path codeLine="47" d="M163.63,255.0488 C177.86,264.2188 192.83,274.4388 206.16,284.6788 C224.76,298.9888 239.7128,312.0851 256.0328,327.3851" fill="none" id="test-to-result" style="stroke:#424242;stroke-width:1;"/><polygon fill="#424242" points="260.41,331.4888,256.5799,322.4151,256.7623,328.069,251.1084,328.2514,260.41,331.4888" style="stroke:#424242;stroke-width:1;"/><text fill="#000000" font-family="Verdana" font-size="13" lengthAdjust="spacing" textLength="65.6665" x="227.16" y="297.7456">generates</text></g><!--link test to level--><g class="link" data-entity-1="test" data-entity-2="level" data-source-line="48" data-uid="lnk9" id="link_test_level"><path codeLine="48" d="M106.16,254.8488 C106.16,283.5688 106.16,317.7688 106.16,342.7188" fill="none" id="test-to-level" style="stroke:#424242;stroke-width:1;"/><polygon fill="#424242" points="106.16,348.7188,110.16,339.7188,106.16,343.7188,102.16,339.7188,106.16,348.7188" style="stroke:#424242;stroke-width:1;"/><text fill="#000000" font-family="Verdana" font-size="13" lengthAdjust="spacing" textLength="90.3335" x="107.16" y="297.7456">uses difficulty</text></g><!--link result to db--><g class="link" data-entity-1="result" data-entity-2="db" data-source-line="49" data-uid="lnk10" id="link_result_db"><path codeLine="49" d="M339.21,413.5888 C355.51,429.3988 375.33,446.9888 395.16,460.5288 C411.51,471.6988 425.1754,479.2349 442.7154,487.5249" fill="none" id="result-to-db" style="stroke:#424242;stroke-width:1;"/><polygon fill="#424242" points="448.14,490.0888,441.7123,482.6265,443.6195,487.9522,438.2938,489.8594,448.14,490.0888" style="stroke:#424242;stroke-width:1;"/><text fill="#000000" font-family="Verdana" font-size="13" lengthAdjust="spacing" textLength="80.1772" x="396.16" y="456.5956">persisted by</text></g><!--link user to db--><g class="link" data-entity-1="user" data-entity-2="db" data-source-line="50" data-uid="lnk11" id="link_user_db"><path codeLine="50" d="M503.16,254.9888 C503.16,315.5188 503.16,433.4988 503.16,484.3988" fill="none" id="user-to-db" style="stroke:#424242;stroke-width:1;"/><polygon fill="#424242" points="503.16,490.3988,507.16,481.3988,503.16,485.3988,499.16,481.3988,503.16,490.3988" style="stroke:#424242;stroke-width:1;"/><text fill="#000000" font-family="Verdana" font-size="13" lengthAdjust="spacing" textLength="57.4019" x="504.16" y="377.1756">stored in</text></g><!--SRC=[TLJVJzim47xFN-5bclRKgWq5HYMcTPHAI5H3KDugJOvpQKoTSsOxK8Rsl-zi9nq5BNcnxxiVttTd-uEhe0RMA2uniLk93JUyPZf_0E5cpXcPjmwkXCOx-HlOw9tFGgCBqFWrbdEntHZTOd6XbJRiuo9yxwBPIyBe-_xM_V9eaItc4TEc0DFPnsUd9_Cis6V6wAVEFCdyd_n94YUT0hPGt5PizTn8tB0LMCTk57UbDlKQRrjqaYJ_Y0Jka3UsqYv9EaRfzDw2IHcthAL5nr0Mx9maZiF6sv5JZdEMFkWAVnOQqe10pQNgpTzWn-j6mL3eEiB207TGp9ntoKRPyM1qDXWVfvxvldoaxLa74ixJZoJySWMx4BsgWFrgfTYodFg0hDIxuN0OotXzrxAMtd5o74mA7i4JMrxEh-wNmMGTDsubeupnP7eqccPlgL31Mx2jYbHCM7PadfgQ0a- -36C14RP7apWSBaHhk7Wcqzbac7qAnbfIoIrOxxVNCwU677JZz812v3kToxAKWee_NtiXWKsKzF8_nGLOOMJZf4QVVmc5R6iMmmz44WEUSmjBZdpJJRx8-xaZSKRXALgQYWAdCUhLY1GVitDQF8BF-fdT0XqrCjjADfOzILSnnNDGDWd7QJ3uslTnoj9gtzKq2OC-X3U0OAX1zXKQPHD8wOZelZ5fqiLv9-9F7WqOIps7WkK4xyj7q3fj296O9Wbg6eBJ3TDbFFI4puAckALAbYIjCSZXBJqQT8b4qDc76xcfd4yGc5A2YzOOScCkNaDlNgD4rXYz8Qgs3yorSxhsaV-4tu3njpLqlWPwXOHTOsd8ZUuINIcloIViSoWeG-qexQwV52kwsQxnrRpwcQP_0G00]--></g></svg>