<svg xmlns="http://www.w3.org/2000/svg" xmlns:xlink="http://www.w3.org/1999/xlink" contentStyleType="text/css" data-diagram-type="SEQUENCE" height="608px" preserveAspectRatio="none" style="width:487px;height:608px;background:#FFFFFF;" version="1.1" viewBox="0 0 487 608" width="487px" zoomAndPan="magnify"><title>Flash Platform - Test Execution Flow</title><defs/><g><text fill="#000000" font-family="Verdana" font-size="22" font-weight="bold" lengthAdjust="spacing" textLength="454.3086" x="15" y="35.4209">Flash Platform - Test Execution Flow</text><g><title>User</title><rect fill="#000000" fill-opacity="0.00000" height="398.7266" width="8" x="33.9048" y="128.9063"/><line style="stroke:#000000;stroke-width:1;stroke-dasharray:5,5;" x1="36.9497" x2="36.9497" y1="128.9063" y2="527.6328"/></g><g><title>Browser</title><rect fill="#000000" fill-opacity="0.00000" height="398.7266" width="8" x="147.7241" y="128.9063"/><line style="stroke:#000000;stroke-width:1;stroke-dasharray:5,5;" x1="151.2046" x2="151.2046" y1="128.9063" y2="527.6328"/></g><g><title>TestService</title><rect fill="#000000" fill-opacity="0.00000" height="398.7266" width="8" x="293.7134" y="128.9063"/><line style="stroke:#000000;stroke-width:1;stroke-dasharray:5,5;" x1="296.8687" x2="296.8687" y1="128.9063" y2="527.6328"/></g><g><title>Database</title><rect fill="#000000" fill-opacity="0.00000" height="398.7266" width="8" x="411.9585" y="128.9063"/><line style="stroke:#000000;stroke-width:1;stroke-dasharray:5,5;" x1="415.5581" x2="415.5581" y1="128.9063" y2="527.6328"/></g><g class="participant participant-head" data-participant="User"><text fill="#000000" font-family="Verdana" font-size="14" lengthAdjust="spacing" textLength="31.9102" x="18.9497" y="125.6045">User</text><ellipse cx="37.9048" cy="60.6094" fill="#FFFFFF" rx="8" ry="8" style="stroke:#000000;stroke-width:1;"/><path d="M37.9048,68.6094 L37.9048,95.6094 M24.9048,76.6094 L50.9048,76.6094 M37.9048,95.6094 L24.9048,110.6094 M37.9048,95.6094 L50.9048,110.6094" fill="none" style="stroke:#000000;stroke-width:1;"/></g><g class="participant participant-tail" data-participant="User"><text fill="#000000" font-family="Verdana" font-size="14" lengthAdjust="spacing" textLength="31.9102" x="18.9497" y="539.6279">User</text><ellipse cx="37.9048" cy="551.9297" fill="#FFFFFF" rx="8" ry="8" style="stroke:#000000;stroke-width:1;"/><path d="M37.9048,559.9297 L37.9048,586.9297 M24.9048,567.9297 L50.9048,567.9297 M37.9048,586.9297 L24.9048,601.9297 M37.9048,586.9297 L50.9048,601.9297" fill="none" style="stroke:#000000;stroke-width:1;"/></g><g class="participant participant-head" data-participant="Browser"><rect fill="#FFE4E1" height="30.2969" rx="2.5" ry="2.5" style="stroke:#DC143C;stroke-width:1;" width="71.0391" x="116.2046" y="97.6094"/><text fill="#000000" font-family="Verdana" font-size="14" lengthAdjust="spacing" textLength="57.0391" x="123.2046" y="117.6045">Browser</text></g><g class="participant participant-tail" data-participant="Browser"><rect fill="#FFE4E1" height="30.2969" rx="2.5" ry="2.5" style="stroke:#DC143C;stroke-width:1;" width="71.0391" x="116.2046" y="526.6328"/><text fill="#000000" font-family="Verdana" font-size="14" lengthAdjust="spacing" textLength="57.0391" x="123.2046" y="546.6279">Browser</text></g><g class="participant participant-head" data-participant="TestService"><rect fill="#FFE4E1" height="30.2969" rx="2.5" ry="2.5" style="stroke:#DC143C;stroke-width:1;" width="95.6895" x="249.8687" y="97.6094"/><text fill="#000000" font-family="Verdana" font-size="14" lengthAdjust="spacing" textLength="81.6895" x="256.8687" y="117.6045">TestService</text></g><g class="participant participant-tail" data-participant="TestService"><rect fill="#FFE4E1" height="30.2969" rx="2.5" ry="2.5" style="stroke:#DC143C;stroke-width:1;" width="95.6895" x="249.8687" y="526.6328"/><text fill="#000000" font-family="Verdana" font-size="14" lengthAdjust="spacing" textLength="81.6895" x="256.8687" y="546.6279">TestService</text></g><g class="participant participant-head" data-participant="Database"><rect fill="#FFE4E1" height="30.2969" rx="2.5" ry="2.5" style="stroke:#DC143C;stroke-width:1;" width="80.8008" x="375.5581" y="97.6094"/><text fill="#000000" font-family="Verdana" font-size="14" lengthAdjust="spacing" textLength="66.8008" x="382.5581" y="117.6045">Database</text></g><g class="participant participant-tail" data-participant="Database"><rect fill="#FFE4E1" height="30.2969" rx="2.5" ry="2.5" style="stroke:#DC143C;stroke-width:1;" width="80.8008" x="375.5581" y="526.6328"/><text fill="#000000" font-family="Verdana" font-size="14" lengthAdjust="spacing" textLength="66.8008" x="382.5581" y="546.6279">Database</text></g><g class="message" data-participant-1="User" data-participant-2="Browser"><polygon fill="#000000" points="139.7241,156.0391,149.7241,160.0391,139.7241,164.0391,143.7241,160.0391" style="stroke:#000000;stroke-width:1;"/><line style="stroke:#000000;stroke-width:1;" x1="37.9048" x2="145.7241" y1="160.0391" y2="160.0391"/><text fill="#000000" font-family="Verdana" font-size="13" lengthAdjust="spacing" textLength="60.855" x="44.9048" y="154.9731">Start test</text></g><g class="message" data-participant-1="Browser" data-participant-2="TestService"><polygon fill="#000000" points="285.7134,185.1719,295.7134,189.1719,285.7134,193.1719,289.7134,189.1719" style="stroke:#000000;stroke-width:1;"/><line style="stroke:#000000;stroke-width:1;" x1="151.7241" x2="291.7134" y1="189.1719" y2="189.1719"/><text fill="#000000" font-family="Verdana" font-size="13" lengthAdjust="spacing" textLength="79.5044" x="158.7241" y="184.106">createTest()</text></g><g class="message" data-participant-1="TestService" data-participant-2="Database"><polygon fill="#000000" points="403.9585,214.3047,413.9585,218.3047,403.9585,222.3047,407.9585,218.3047" style="stroke:#000000;stroke-width:1;"/><line style="stroke:#000000;stroke-width:1;" x1="297.7134" x2="409.9585" y1="218.3047" y2="218.3047"/><text fill="#000000" font-family="Verdana" font-size="13" lengthAdjust="spacing" textLength="86.9629" x="304.7134" y="213.2388">fetch content</text></g><g class="message" data-participant-1="Database" data-participant-2="TestService"><polygon fill="#000000" points="308.7134,243.4375,298.7134,247.4375,308.7134,251.4375,304.7134,247.4375" style="stroke:#000000;stroke-width:1;"/><line style="stroke:#000000;stroke-width:1;stroke-dasharray:2,2;" x1="302.7134" x2="414.9585" y1="247.4375" y2="247.4375"/><text fill="#000000" font-family="Verdana" font-size="13" lengthAdjust="spacing" textLength="58.3794" x="314.7134" y="242.3716">test data</text></g><g class="message" data-participant-1="TestService" data-participant-2="Browser"><polygon fill="#000000" points="162.7241,272.5703,152.7241,276.5703,162.7241,280.5703,158.7241,276.5703" style="stroke:#000000;stroke-width:1;"/><line style="stroke:#000000;stroke-width:1;stroke-dasharray:2,2;" x1="156.7241" x2="296.7134" y1="276.5703" y2="276.5703"/><text fill="#000000" font-family="Verdana" font-size="13" lengthAdjust="spacing" textLength="66.3521" x="168.7241" y="271.5044">test ready</text></g><g class="message" data-participant-1="User" data-participant-2="Browser"><polygon fill="#000000" points="139.7241,301.7031,149.7241,305.7031,139.7241,309.7031,143.7241,305.7031" style="stroke:#000000;stroke-width:1;"/><line style="stroke:#000000;stroke-width:1;" x1="37.9048" x2="145.7241" y1="305.7031" y2="305.7031"/><text fill="#000000" font-family="Verdana" font-size="13" lengthAdjust="spacing" textLength="59.0586" x="44.9048" y="300.6372">type text</text></g><g class="message" data-participant-1="Browser" data-participant-2="TestService"><polygon fill="#000000" points="285.7134,330.8359,295.7134,334.8359,285.7134,338.8359,289.7134,334.8359" style="stroke:#000000;stroke-width:1;"/><line style="stroke:#000000;stroke-width:1;" x1="151.7241" x2="291.7134" y1="334.8359" y2="334.8359"/><text fill="#000000" font-family="Verdana" font-size="13" lengthAdjust="spacing" textLength="111.5537" x="158.7241" y="329.77">calculate metrics</text></g><g class="message" data-participant-1="TestService" data-participant-2="Browser"><polygon fill="#000000" points="162.7241,359.9688,152.7241,363.9688,162.7241,367.9688,158.7241,363.9688" style="stroke:#000000;stroke-width:1;"/><line style="stroke:#000000;stroke-width:1;stroke-dasharray:2,2;" x1="156.7241" x2="296.7134" y1="363.9688" y2="363.9688"/><text fill="#000000" font-family="Verdana" font-size="13" lengthAdjust="spacing" textLength="121.9893" x="168.7241" y="358.9028">live WPM/accuracy</text></g><g class="message" data-participant-1="User" data-participant-2="Browser"><polygon fill="#000000" points="139.7241,389.1016,149.7241,393.1016,139.7241,397.1016,143.7241,393.1016" style="stroke:#000000;stroke-width:1;"/><line style="stroke:#000000;stroke-width:1;" x1="37.9048" x2="145.7241" y1="393.1016" y2="393.1016"/><text fill="#000000" font-family="Verdana" font-size="13" lengthAdjust="spacing" textLength="89.8193" x="44.9048" y="388.0356">complete test</text></g><g class="message" data-participant-1="Browser" data-participant-2="TestService"><polygon fill="#000000" points="285.7134,418.2344,295.7134,422.2344,285.7134,426.2344,289.7134,422.2344" style="stroke:#000000;stroke-width:1;"/><line style="stroke:#000000;stroke-width:1;" x1="151.7241" x2="291.7134" y1="422.2344" y2="422.2344"/><text fill="#000000" font-family="Verdana" font-size="13" lengthAdjust="spacing" textLength="92.606" x="158.7241" y="417.1685">submit results</text></g><g class="message" data-participant-1="TestService" data-participant-2="Database"><polygon fill="#000000" points="403.9585,447.3672,413.9585,451.3672,403.9585,455.3672,407.9585,451.3672" style="stroke:#000000;stroke-width:1;"/><line style="stroke:#000000;stroke-width:1;" x1="297.7134" x2="409.9585" y1="451.3672" y2="451.3672"/><text fill="#000000" font-family="Verdana" font-size="13" lengthAdjust="spacing" textLength="71.627" x="304.7134" y="446.3013">save result</text></g><g class="message" data-participant-1="Database" data-participant-2="TestService"><polygon fill="#000000" points="308.7134,476.5,298.7134,480.5,308.7134,484.5,304.7134,480.5" style="stroke:#000000;stroke-width:1;"/><line style="stroke:#000000;stroke-width:1;stroke-dasharray:2,2;" x1="302.7134" x2="414.9585" y1="480.5" y2="480.5"/><text fill="#000000" font-family="Verdana" font-size="13" lengthAdjust="spacing" textLength="38.6826" x="314.7134" y="475.4341">saved</text></g><g class="message" data-participant-1="TestService" data-participant-2="Browser"><polygon fill="#000000" points="162.7241,505.6328,152.7241,509.6328,162.7241,513.6328,158.7241,509.6328" style="stroke:#000000;stroke-width:1;"/><line style="stroke:#000000;stroke-width:1;stroke-dasharray:2,2;" x1="156.7241" x2="296.7134" y1="509.6328" y2="509.6328"/><text fill="#000000" font-family="Verdana" font-size="13" lengthAdjust="spacing" textLength="81.5674" x="168.7241" y="504.5669">show results</text></g><!--SRC=[XL2xJWCn4EptAnRHG16XY5GK57brI942ejxiRJWhFljax-KXnB-pHpYKG7IuS34pEpEQAosb4gmzkG1vuq9DYIgqNnsxceBYEw2zCV7cBSKc59FeOyBh-NmscWsFN4o5f6zyEXcExYVm0Q1ElU3SKovnuKdNCLKum6V9YhEzSACk1kFZ3e1OxVWbIuBJx76AkzzOUx-Kj7KiP_YKb5QK1Q2rmS5ZTuqFk5GJejebTA3n9qwcuIIaqc8tjt1AcRBpDjbQb4la65I2mWyn-EFNfc5X_BdPMQylZUKMXqkjzL2BIVPzfSbpOziALgB9SUu9ysuh-BfukYFc9X5VpEHOrLvK_XahDwlAjTLpupNtp9N9Ge-olh5QMT7JFPTnrwLz0W00]--></g></svg>