<svg xmlns="http://www.w3.org/2000/svg" xmlns:xlink="http://www.w3.org/1999/xlink" contentStyleType="text/css" data-diagram-type="STATE" height="493px" preserveAspectRatio="none" style="width:482px;height:493px;background:#FFFFFF;" version="1.1" viewBox="0 0 482 493" width="482px" zoomAndPan="magnify"><title>Flash Platform - Test Session States</title><defs/><g><g class="title" data-source-line="7"><text fill="#000000" font-family="Verdana" font-size="22" font-weight="bold" lengthAdjust="spacing" textLength="449.6357" x="15" y="35.4209">Flash Platform - Test Session States</text></g><g id="Idle"><rect fill="#E6FFE6" height="50.2656" rx="12.5" ry="12.5" style="stroke:#228B22;stroke-width:1;" width="105.418" x="167.0406" y="154.6094"/><line style="stroke:#228B22;stroke-width:1;" x1="167.0406" x2="272.4586" y1="180.9063" y2="180.9063"/><text fill="#000000" font-family="Verdana" font-size="14" lengthAdjust="spacing" textLength="25.5186" x="206.9903" y="172.6045">Idle</text><text fill="#000000" font-family="Verdana" font-size="12" lengthAdjust="spacing" textLength="85.418" x="172.0406" y="197.0449">Ready to start</text></g><g id="Testing"><rect fill="#E6FFE6" height="64.2344" rx="12.5" ry="12.5" style="stroke:#228B22;stroke-width:1;" width="140.7852" x="107.3606" y="281.8694"/><line style="stroke:#228B22;stroke-width:1;" x1="107.3606" x2="248.1458" y1="308.1663" y2="308.1663"/><text fill="#000000" font-family="Verdana" font-size="14" lengthAdjust="spacing" textLength="51.5977" x="151.9544" y="299.8645">Testing</text><text fill="#000000" font-family="Verdana" font-size="12" lengthAdjust="spacing" textLength="74.959" x="112.3606" y="324.3049">Timer active</text><text fill="#000000" font-family="Verdana" font-size="12" lengthAdjust="spacing" textLength="120.7852" x="112.3606" y="338.2737">Tracking keystrokes</text></g><g id="Completed"><rect fill="#E6FFE6" height="64.2344" rx="12.5" ry="12.5" style="stroke:#228B22;stroke-width:1;" width="131.498" x="182.0006" y="423.1094"/><line style="stroke:#228B22;stroke-width:1;" x1="182.0006" x2="313.4987" y1="449.4063" y2="449.4063"/><text fill="#000000" font-family="Verdana" font-size="14" lengthAdjust="spacing" textLength="76.3574" x="209.5709" y="441.1045">Completed</text><text fill="#000000" font-family="Verdana" font-size="12" lengthAdjust="spacing" textLength="111.498" x="187.0006" y="465.5449">Calculating results</text><text fill="#000000" font-family="Verdana" font-size="12" lengthAdjust="spacing" textLength="71.4727" x="187.0006" y="479.5137">Saving data</text></g><ellipse cx="219.7506" cy="67.6094" fill="#FFFFFF" rx="10" ry="10" style="stroke:#000000;stroke-width:1;"/><!--link *start* to Idle--><g class="link" data-entity-1=".start." data-entity-2="Idle" data-source-line="9" data-uid="lnk3" id="link_.start._Idle"><path d="M219.7506,77.9994 C219.7506,94.7494 219.7506,124.2694 219.7506,148.3294" fill="none" id="*start*-to-Idle" style="stroke:#000000;stroke-width:1;"/><polygon fill="#000000" points="219.7506,154.3294,223.7506,145.3294,219.7506,149.3294,215.7506,145.3294,219.7506,154.3294" style="stroke:#000000;stroke-width:1;"/><text fill="#000000" font-family="Verdana" font-size="13" lengthAdjust="spacing" textLength="78.4951" x="220.7506" y="120.6763">User arrives</text></g><!--link Idle to Testing--><g class="link" data-entity-1="Idle" data-entity-2="Testing" data-source-line="25" data-uid="lnk4" id="link_Idle_Testing"><path d="M166.6106,195.1294 C146.7706,203.3694 126.2806,215.9594 114.7506,234.8694 C104.7806,251.2394 110.5999,263.8918 125.5099,277.6418" fill="none" id="Idle-to-Testing" style="stroke:#000000;stroke-width:1;"/><polygon fill="#000000" points="129.9206,281.7094,126.0162,272.6675,126.245,278.3197,120.5928,278.5485,129.9206,281.7094" style="stroke:#000000;stroke-width:1;"/><text fill="#000000" font-family="Verdana" font-size="13" lengthAdjust="spacing" textLength="60.855" x="115.7506" y="247.9363">Start test</text></g><!--link Testing to Idle--><g class="link" data-entity-1="Testing" data-entity-2="Idle" data-source-line="28" data-uid="lnk7" id="link_Testing_Idle"><path d="M187.7406,281.5394 C195.1506,258.1994 203.3056,232.5383 210.1356,211.0183" fill="none" id="Testing-to-Idle" style="stroke:#000000;stroke-width:1;"/><polygon fill="#000000" points="211.9506,205.2994,205.4155,212.6677,210.4381,210.0651,213.0406,215.0877,211.9506,205.2994" style="stroke:#000000;stroke-width:1;"/><text fill="#000000" font-family="Verdana" font-size="13" lengthAdjust="spacing" textLength="73.1377" x="203.7506" y="247.9363">Cancel test</text></g><!--link Testing to Completed--><g class="link" data-entity-1="Testing" data-entity-2="Completed" data-source-line="26" data-uid="lnk5" id="link_Testing_Completed"><path d="M193.6406,346.5794 C205.0906,369.3694 217.7951,394.639 229.2351,417.389" fill="none" id="Testing-to-Completed" style="stroke:#000000;stroke-width:1;"/><polygon fill="#000000" points="231.9306,422.7494,231.4609,412.9117,229.6844,418.2824,224.3137,416.5058,231.9306,422.7494" style="stroke:#000000;stroke-width:1;"/><text fill="#000000" font-family="Verdana" font-size="13" lengthAdjust="spacing" textLength="52.8379" x="218.7506" y="389.1763">Time up</text></g><!--link Completed to Idle--><g class="link" data-entity-1="Completed" data-entity-2="Idle" data-source-line="27" data-uid="lnk6" id="link_Completed_Idle"><path d="M267.6406,422.6394 C272.4906,413.4494 277.0506,403.1694 279.7506,393.1094 C364.9806,75.7794 297.0006,258.6494 285.7506,234.8694 C280.2406,223.2194 275.5112,217.0082 265.5212,208.9082" fill="none" id="Completed-to-Idle" style="stroke:#000000;stroke-width:1;"/><polygon fill="#000000" points="260.8606,205.1294,265.3322,213.9046,264.7444,208.2784,270.3706,207.6906,260.8606,205.1294" style="stroke:#000000;stroke-width:1;"/><text fill="#000000" font-family="Verdana" font-size="13" lengthAdjust="spacing" textLength="79.1045" x="307.7506" y="318.5563">View results</text></g><!--SRC=[PL2nReD03DtlArnrgyJ245KC7OA2bAqgQPUgWmLkSkBWaC-aYgh-Uyz00cflElizl_ViEpbHIz0xj9q9ZUrwP6mX20h1ju7ujbWrH_P3L-VUUORxtQOeTfi9yrmJp_qqVTocgVanHgmuWi9XEC6pG_dqt4821me29OLWVGUbMWHZtXy-84cUO5_7aGnU0p4WipqhEEKOeIdCp7eXh2yWNeEogEN4L0VR7MVojShWO5kLhIJA_eKuxgVVXYv1s3VHzwQN-xPt95JFYakTGOwk6k9oEiiK1YVX7wV4iy8r2ghec5wNNUnBNG3Y9SHScqfOYsXu67gpz5RtUhFqTRDVAynuZbr5RZJu1G00]--></g></svg>