<svg xmlns="http://www.w3.org/2000/svg" xmlns:xlink="http://www.w3.org/1999/xlink" contentStyleType="text/css" data-diagram-type="ACTIVITY" height="785px" preserveAspectRatio="none" style="width:460px;height:785px;background:#FFFFFF;" version="1.1" viewBox="0 0 460 785" width="460px" zoomAndPan="magnify"><title>Flash Platform - Core Test Process</title><defs/><g><g class="title" data-source-line="7"><text fill="#000000" font-family="Verdana" font-size="22" font-weight="bold" lengthAdjust="spacing" textLength="427.8936" x="15" y="35.4209">Flash Platform - Core Test Process</text></g><ellipse cx="216.6904" cy="61.6094" fill="#FFFFFF" rx="10" ry="10" style="stroke:#000000;stroke-width:1;"/><rect fill="#F0F0F0" height="33.9688" rx="12.5" ry="12.5" style="stroke:#696969;stroke-width:1;" width="100.4668" x="166.457" y="91.6094"/><text fill="#000000" font-family="Verdana" font-size="12" lengthAdjust="spacing" textLength="80.4668" x="176.457" y="112.748">Visit Platform</text><polygon fill="#F0F0F0" points="198.8369,145.5781,234.5439,145.5781,246.5439,157.5781,234.5439,169.5781,198.8369,169.5781,186.8369,157.5781,198.8369,145.5781" style="stroke:#696969;stroke-width:1;"/><text fill="#000000" font-family="Verdana" font-size="11" lengthAdjust="spacing" textLength="35.707" x="198.8369" y="161.3862">Login?</text><text fill="#000000" font-family="Verdana" font-size="11" lengthAdjust="spacing" textLength="19.0083" x="167.8286" y="154.9839">yes</text><text fill="#000000" font-family="Verdana" font-size="11" lengthAdjust="spacing" textLength="13.7017" x="246.5439" y="154.9839">no</text><rect fill="#F0F0F0" height="33.9688" rx="12.5" ry="12.5" style="stroke:#696969;stroke-width:1;" width="135.9746" x="83.1069" y="179.5781"/><text fill="#000000" font-family="Verdana" font-size="12" lengthAdjust="spacing" textLength="115.9746" x="93.1069" y="200.7168">Authenticated User</text><rect fill="#F0F0F0" height="33.9688" rx="12.5" ry="12.5" style="stroke:#696969;stroke-width:1;" width="86.4102" x="239.0815" y="179.5781"/><text fill="#000000" font-family="Verdana" font-size="12" lengthAdjust="spacing" textLength="66.4102" x="249.0815" y="200.7168">Guest User</text><polygon fill="#F0F0F0" points="216.6904,219.5469,228.6904,231.5469,216.6904,243.5469,204.6904,231.5469,216.6904,219.5469" style="stroke:#696969;stroke-width:1;"/><rect fill="#F0F0F0" height="33.9688" rx="12.5" ry="12.5" style="stroke:#696969;stroke-width:1;" width="114.5352" x="159.4229" y="263.5469"/><text fill="#000000" font-family="Verdana" font-size="12" lengthAdjust="spacing" textLength="94.5352" x="169.4229" y="284.6855">Select Difficulty</text><rect fill="#F0F0F0" height="33.9688" rx="12.5" ry="12.5" style="stroke:#696969;stroke-width:1;" width="123.2188" x="155.0811" y="317.5156"/><text fill="#000000" font-family="Verdana" font-size="12" lengthAdjust="spacing" textLength="103.2188" x="165.0811" y="338.6543">Start Typing Test</text><rect fill="#000000" height="6" rx="2.5" ry="2.5" style="stroke:#000000;stroke-width:1;" width="283.248" x="75.0664" y="371.4844"/><rect fill="#F0F0F0" height="33.9688" rx="12.5" ry="12.5" style="stroke:#696969;stroke-width:1;" width="104.0996" x="89.0664" y="397.4844"/><text fill="#000000" font-family="Verdana" font-size="12" lengthAdjust="spacing" textLength="84.0996" x="99.0664" y="418.623">Monitor Timer</text><rect fill="#F0F0F0" height="33.9688" rx="12.5" ry="12.5" style="stroke:#696969;stroke-width:1;" width="123.1484" x="221.166" y="397.4844"/><text fill="#000000" font-family="Verdana" font-size="12" lengthAdjust="spacing" textLength="103.1484" x="231.166" y="418.623">Track Keystrokes</text><rect fill="#000000" height="6" rx="2.5" ry="2.5" style="stroke:#000000;stroke-width:1;" width="283.248" x="75.0664" y="451.4531"/><rect fill="#F0F0F0" height="33.9688" rx="12.5" ry="12.5" style="stroke:#696969;stroke-width:1;" width="123.7285" x="154.8262" y="477.4531"/><text fill="#000000" font-family="Verdana" font-size="12" lengthAdjust="spacing" textLength="103.7285" x="164.8262" y="498.5918">Calculate Results</text><polygon fill="#F0F0F0" points="174.9006,531.4219,258.4802,531.4219,270.4802,543.4219,258.4802,555.4219,174.9006,555.4219,162.9006,543.4219,174.9006,531.4219" style="stroke:#696969;stroke-width:1;"/><text fill="#000000" font-family="Verdana" font-size="11" lengthAdjust="spacing" textLength="83.5796" x="174.9006" y="547.23">Authenticated?</text><text fill="#000000" font-family="Verdana" font-size="11" lengthAdjust="spacing" textLength="19.0083" x="143.8923" y="540.8276">yes</text><text fill="#000000" font-family="Verdana" font-size="11" lengthAdjust="spacing" textLength="13.7017" x="270.4802" y="540.8276">no</text><rect fill="#F0F0F0" height="33.9688" rx="12.5" ry="12.5" style="stroke:#696969;stroke-width:1;" width="126.3887" x="66.5454" y="565.4219"/><text fill="#000000" font-family="Verdana" font-size="12" lengthAdjust="spacing" textLength="106.3887" x="76.5454" y="586.5605">Save to Database</text><rect fill="#F0F0F0" height="33.9688" rx="12.5" ry="12.5" style="stroke:#696969;stroke-width:1;" width="110.6855" x="74.397" y="619.3906"/><text fill="#000000" font-family="Verdana" font-size="12" lengthAdjust="spacing" textLength="90.6855" x="84.397" y="640.5293">Show Analytics</text><rect fill="#F0F0F0" height="33.9688" rx="12.5" ry="12.5" style="stroke:#696969;stroke-width:1;" width="181.4141" x="212.9341" y="565.4219"/><text fill="#000000" font-family="Verdana" font-size="12" lengthAdjust="spacing" textLength="161.4141" x="222.9341" y="586.5605">Display Temporary Results</text><polygon fill="#F0F0F0" points="216.6904,659.3594,228.6904,671.3594,216.6904,683.3594,204.6904,671.3594,216.6904,659.3594" style="stroke:#696969;stroke-width:1;"/><rect fill="#F0F0F0" height="33.9688" rx="12.5" ry="12.5" style="stroke:#696969;stroke-width:1;" width="92.4043" x="170.4883" y="703.3594"/><text fill="#000000" font-family="Verdana" font-size="12" lengthAdjust="spacing" textLength="72.4043" x="180.4883" y="724.498">End Session</text><ellipse cx="216.6904" cy="768.3281" fill="none" rx="11" ry="11" style="stroke:#000000;stroke-width:1;"/><ellipse cx="216.6904" cy="768.3281" fill="#FFFFFF" rx="6" ry="6" style="stroke:#000000;stroke-width:1;"/><line style="stroke:#000000;stroke-width:1;" x1="216.6904" x2="216.6904" y1="71.6094" y2="91.6094"/><polygon fill="#000000" points="212.6904,81.6094,216.6904,91.6094,220.6904,81.6094,216.6904,85.6094" style="stroke:#000000;stroke-width:1;"/><line style="stroke:#000000;stroke-width:1;" x1="186.8369" x2="151.0942" y1="157.5781" y2="157.5781"/><line style="stroke:#000000;stroke-width:1;" x1="151.0942" x2="151.0942" y1="157.5781" y2="179.5781"/><polygon fill="#000000" points="147.0942,169.5781,151.0942,179.5781,155.0942,169.5781,151.0942,173.5781" style="stroke:#000000;stroke-width:1;"/><line style="stroke:#000000;stroke-width:1;" x1="246.5439" x2="282.2866" y1="157.5781" y2="157.5781"/><line style="stroke:#000000;stroke-width:1;" x1="282.2866" x2="282.2866" y1="157.5781" y2="179.5781"/><polygon fill="#000000" points="278.2866,169.5781,282.2866,179.5781,286.2866,169.5781,282.2866,173.5781" style="stroke:#000000;stroke-width:1;"/><line style="stroke:#000000;stroke-width:1;" x1="151.0942" x2="151.0942" y1="213.5469" y2="231.5469"/><line style="stroke:#000000;stroke-width:1;" x1="151.0942" x2="204.6904" y1="231.5469" y2="231.5469"/><polygon fill="#000000" points="194.6904,227.5469,204.6904,231.5469,194.6904,235.5469,198.6904,231.5469" style="stroke:#000000;stroke-width:1;"/><line style="stroke:#000000;stroke-width:1;" x1="282.2866" x2="282.2866" y1="213.5469" y2="231.5469"/><line style="stroke:#000000;stroke-width:1;" x1="282.2866" x2="228.6904" y1="231.5469" y2="231.5469"/><polygon fill="#000000" points="238.6904,227.5469,228.6904,231.5469,238.6904,235.5469,234.6904,231.5469" style="stroke:#000000;stroke-width:1;"/><line style="stroke:#000000;stroke-width:1;" x1="216.6904" x2="216.6904" y1="125.5781" y2="145.5781"/><polygon fill="#000000" points="212.6904,135.5781,216.6904,145.5781,220.6904,135.5781,216.6904,139.5781" style="stroke:#000000;stroke-width:1;"/><line style="stroke:#000000;stroke-width:1;" x1="216.6904" x2="216.6904" y1="243.5469" y2="263.5469"/><polygon fill="#000000" points="212.6904,253.5469,216.6904,263.5469,220.6904,253.5469,216.6904,257.5469" style="stroke:#000000;stroke-width:1;"/><line style="stroke:#000000;stroke-width:1;" x1="216.6904" x2="216.6904" y1="297.5156" y2="317.5156"/><polygon fill="#000000" points="212.6904,307.5156,216.6904,317.5156,220.6904,307.5156,216.6904,311.5156" style="stroke:#000000;stroke-width:1;"/><line style="stroke:#000000;stroke-width:1;" x1="141.1162" x2="141.1162" y1="377.4844" y2="397.4844"/><polygon fill="#000000" points="137.1162,387.4844,141.1162,397.4844,145.1162,387.4844,141.1162,391.4844" style="stroke:#000000;stroke-width:1;"/><line style="stroke:#000000;stroke-width:1;" x1="282.7402" x2="282.7402" y1="377.4844" y2="397.4844"/><polygon fill="#000000" points="278.7402,387.4844,282.7402,397.4844,286.7402,387.4844,282.7402,391.4844" style="stroke:#000000;stroke-width:1;"/><line style="stroke:#000000;stroke-width:1;" x1="141.1162" x2="141.1162" y1="431.4531" y2="451.4531"/><polygon fill="#000000" points="137.1162,441.4531,141.1162,451.4531,145.1162,441.4531,141.1162,445.4531" style="stroke:#000000;stroke-width:1;"/><line style="stroke:#000000;stroke-width:1;" x1="282.7402" x2="282.7402" y1="431.4531" y2="451.4531"/><polygon fill="#000000" points="278.7402,441.4531,282.7402,451.4531,286.7402,441.4531,282.7402,445.4531" style="stroke:#000000;stroke-width:1;"/><line style="stroke:#000000;stroke-width:1;" x1="216.6904" x2="216.6904" y1="351.4844" y2="371.4844"/><polygon fill="#000000" points="212.6904,361.4844,216.6904,371.4844,220.6904,361.4844,216.6904,365.4844" style="stroke:#000000;stroke-width:1;"/><line style="stroke:#000000;stroke-width:1;" x1="216.6904" x2="216.6904" y1="457.4531" y2="477.4531"/><polygon fill="#000000" points="212.6904,467.4531,216.6904,477.4531,220.6904,467.4531,216.6904,471.4531" style="stroke:#000000;stroke-width:1;"/><line style="stroke:#000000;stroke-width:1;" x1="129.7397" x2="129.7397" y1="599.3906" y2="619.3906"/><polygon fill="#000000" points="125.7397,609.3906,129.7397,619.3906,133.7397,609.3906,129.7397,613.3906" style="stroke:#000000;stroke-width:1;"/><line style="stroke:#000000;stroke-width:1;" x1="162.9006" x2="129.7397" y1="543.4219" y2="543.4219"/><line style="stroke:#000000;stroke-width:1;" x1="129.7397" x2="129.7397" y1="543.4219" y2="565.4219"/><polygon fill="#000000" points="125.7397,555.4219,129.7397,565.4219,133.7397,555.4219,129.7397,559.4219" style="stroke:#000000;stroke-width:1;"/><line style="stroke:#000000;stroke-width:1;" x1="270.4802" x2="303.6411" y1="543.4219" y2="543.4219"/><line style="stroke:#000000;stroke-width:1;" x1="303.6411" x2="303.6411" y1="543.4219" y2="565.4219"/><polygon fill="#000000" points="299.6411,555.4219,303.6411,565.4219,307.6411,555.4219,303.6411,559.4219" style="stroke:#000000;stroke-width:1;"/><line style="stroke:#000000;stroke-width:1;" x1="129.7397" x2="129.7397" y1="653.3594" y2="671.3594"/><line style="stroke:#000000;stroke-width:1;" x1="129.7397" x2="204.6904" y1="671.3594" y2="671.3594"/><polygon fill="#000000" points="194.6904,667.3594,204.6904,671.3594,194.6904,675.3594,198.6904,671.3594" style="stroke:#000000;stroke-width:1;"/><line style="stroke:#000000;stroke-width:1;" x1="303.6411" x2="303.6411" y1="599.3906" y2="671.3594"/><line style="stroke:#000000;stroke-width:1;" x1="303.6411" x2="228.6904" y1="671.3594" y2="671.3594"/><polygon fill="#000000" points="238.6904,667.3594,228.6904,671.3594,238.6904,675.3594,234.6904,671.3594" style="stroke:#000000;stroke-width:1;"/><line style="stroke:#000000;stroke-width:1;" x1="216.6904" x2="216.6904" y1="511.4219" y2="531.4219"/><polygon fill="#000000" points="212.6904,521.4219,216.6904,531.4219,220.6904,521.4219,216.6904,525.4219" style="stroke:#000000;stroke-width:1;"/><line style="stroke:#000000;stroke-width:1;" x1="216.6904" x2="216.6904" y1="683.3594" y2="703.3594"/><polygon fill="#000000" points="212.6904,693.3594,216.6904,703.3594,220.6904,693.3594,216.6904,697.3594" style="stroke:#000000;stroke-width:1;"/><line style="stroke:#000000;stroke-width:1;" x1="216.6904" x2="216.6904" y1="737.3281" y2="757.3281"/><polygon fill="#000000" points="212.6904,747.3281,216.6904,757.3281,220.6904,747.3281,216.6904,751.3281" style="stroke:#000000;stroke-width:1;"/><!--SRC=[RL71JiCm3BtdAuouR0SaJaYi1mGRum184olSJUjsLjEaYhsX2F7l95q18OXlxzb-xpadkgEUOB38paZ7Ri20FM2bV62Dy6uWlHkikZRulQkNtle0f-lpN4VEXvh2X5zSvZ8VnYYh9LXRb1riB6hZGmzdiFI1e2HHs0HVaOWneXZKcCKB2-jtRs4CDp1xy2sxgpaacmvcaMG-YYwkznbHhb2fXcUXK1YoGZ1pVcgvssUPYN8rDqbZIvOgXHKt3LTxgx78O3O0PHpOjQEt12OBtN7DetUiALl9VTwK2S0sdskaov1k0_SKHOFlI4Oj6CVDOeasgIIBy4IIv6HAzSlzF-csU21G3ojKV4MXOe9t_Wsk7TgOHkLFu1LB-iUO8lI33nZYZ-fN_jlaRPkkpjuL-V9- -0G0]--></g></svg>