<svg xmlns="http://www.w3.org/2000/svg" xmlns:xlink="http://www.w3.org/1999/xlink" contentStyleType="text/css" data-diagram-type="CLASS" height="547px" preserveAspectRatio="none" style="width:492px;height:547px;background:#FFFFFF;" version="1.1" viewBox="0 0 492 547" width="492px" zoomAndPan="magnify"><title>Flash Platform - Refined Class Model</title><defs/><g><g class="title" data-source-line="7"><text fill="#000000" font-family="Verdana" font-size="22" font-weight="bold" lengthAdjust="spacing" textLength="456.3281" x="15" y="35.4209">Flash Platform - Refined Class Model</text></g><!--class User--><g class="entity" data-entity="User" data-source-line="9" data-uid="ent0002" id="entity_User"><rect fill="#F0F8FF" height="125.4844" rx="2.5" ry="2.5" style="stroke:#4682B4;stroke-width:1;" width="203.0195" x="14.8982" y="212.1994"/><ellipse cx="96.7029" cy="226.1994" fill="#FFFFFF" rx="9" ry="9" style="stroke:#000000;stroke-width:1;"/><path d="M99.6716,231.84 Q99.0935,232.1369 98.4529,232.2775 Q97.8122,232.4337 97.1091,232.4337 Q94.6091,232.4337 93.281,230.7931 Q91.9685,229.1369 91.9685,226.0119 Q91.9685,222.8869 93.281,221.2306 Q94.6091,219.5744 97.1091,219.5744 Q97.8122,219.5744 98.4529,219.7306 Q99.1091,219.8869 99.6716,220.1837 L99.6716,222.9025 Q99.0466,222.3244 98.4529,222.0587 Q97.8591,221.7775 97.2341,221.7775 Q95.8904,221.7775 95.2029,222.8556 Q94.5154,223.9181 94.5154,226.0119 Q94.5154,228.1056 95.2029,229.1837 Q95.8904,230.2462 97.2341,230.2462 Q97.8591,230.2462 98.4529,229.9806 Q99.0466,229.6994 99.6716,229.1212 L99.6716,231.84 Z " fill="#000000"/><text fill="#000000" font-family="Verdana" font-size="14" lengthAdjust="spacing" textLength="31.9102" x="114.2029" y="231.0461">User</text><line style="stroke:#4682B4;stroke-width:1;" x1="15.8982" x2="216.9177" y1="240.1994" y2="240.1994"/><rect fill="none" height="6" style="stroke:#000000;stroke-width:1;" width="6" x="22.8982" y="250.8478"/><text fill="#000000" font-family="Verdana" font-size="14" lengthAdjust="spacing" textLength="40.1953" x="32.8982" y="257.1945">id: int</text><rect fill="none" height="6" style="stroke:#000000;stroke-width:1;" width="6" x="22.8982" y="267.1447"/><text fill="#000000" font-family="Verdana" font-size="14" lengthAdjust="spacing" textLength="119.5947" x="32.8982" y="273.4914">username: string</text><rect fill="none" height="6" style="stroke:#000000;stroke-width:1;" width="6" x="22.8982" y="283.4416"/><text fill="#000000" font-family="Verdana" font-size="14" lengthAdjust="spacing" textLength="87.9648" x="32.8982" y="289.7882">email: string</text><line style="stroke:#4682B4;stroke-width:1;" x1="15.8982" x2="216.9177" y1="297.09" y2="297.09"/><ellipse cx="25.8982" cy="310.7384" fill="#FFFFFF" rx="3" ry="3" style="stroke:#000000;stroke-width:1;"/><text fill="#000000" font-family="Verdana" font-size="14" lengthAdjust="spacing" textLength="139.0566" x="32.8982" y="314.0851">authenticate(): bool</text><ellipse cx="25.8982" cy="327.0353" fill="#FFFFFF" rx="3" ry="3" style="stroke:#000000;stroke-width:1;"/><text fill="#000000" font-family="Verdana" font-size="14" lengthAdjust="spacing" textLength="179.0195" x="32.8982" y="330.382">getResults(): TestResult[]</text></g><!--class TypingTest--><g class="entity" data-entity="TypingTest" data-source-line="18" data-uid="ent0003" id="entity_TypingTest"><rect fill="#F0F8FF" height="125.4844" rx="2.5" ry="2.5" style="stroke:#4682B4;stroke-width:1;" width="232.0518" x="253.3782" y="212.1994"/><ellipse cx="326.9934" cy="226.1994" fill="#FFFFFF" rx="9" ry="9" style="stroke:#000000;stroke-width:1;"/><path d="M329.9622,231.84 Q329.384,232.1369 328.7434,232.2775 Q328.1028,232.4337 327.3997,232.4337 Q324.8997,232.4337 323.5715,230.7931 Q322.259,229.1369 322.259,226.0119 Q322.259,222.8869 323.5715,221.2306 Q324.8997,219.5744 327.3997,219.5744 Q328.1028,219.5744 328.7434,219.7306 Q329.3997,219.8869 329.9622,220.1837 L329.9622,222.9025 Q329.3372,222.3244 328.7434,222.0587 Q328.1497,221.7775 327.5247,221.7775 Q326.1809,221.7775 325.4934,222.8556 Q324.8059,223.9181 324.8059,226.0119 Q324.8059,228.1056 325.4934,229.1837 Q326.1809,230.2462 327.5247,230.2462 Q328.1497,230.2462 328.7434,229.9806 Q329.3372,229.6994 329.9622,229.1212 L329.9622,231.84 Z " fill="#000000"/><text fill="#000000" font-family="Verdana" font-size="14" lengthAdjust="spacing" textLength="77.3213" x="344.4934" y="231.0461">TypingTest</text><line style="stroke:#4682B4;stroke-width:1;" x1="254.3782" x2="484.4299" y1="240.1994" y2="240.1994"/><rect fill="none" height="6" style="stroke:#000000;stroke-width:1;" width="6" x="261.3782" y="250.8478"/><text fill="#000000" font-family="Verdana" font-size="14" lengthAdjust="spacing" textLength="77.2324" x="271.3782" y="257.1945">text: string</text><rect fill="none" height="6" style="stroke:#000000;stroke-width:1;" width="6" x="261.3782" y="267.1447"/><text fill="#000000" font-family="Verdana" font-size="14" lengthAdjust="spacing" textLength="93.7549" x="271.3782" y="273.4914">timeLimit: int</text><rect fill="none" height="6" style="stroke:#000000;stroke-width:1;" width="6" x="261.3782" y="283.4416"/><text fill="#000000" font-family="Verdana" font-size="14" lengthAdjust="spacing" textLength="169.7773" x="271.3782" y="289.7882">difficulty: DifficultyLevel</text><line style="stroke:#4682B4;stroke-width:1;" x1="254.3782" x2="484.4299" y1="297.09" y2="297.09"/><ellipse cx="264.3782" cy="310.7384" fill="#FFFFFF" rx="3" ry="3" style="stroke:#000000;stroke-width:1;"/><text fill="#000000" font-family="Verdana" font-size="14" lengthAdjust="spacing" textLength="82.3252" x="271.3782" y="314.0851">start(): void</text><ellipse cx="264.3782" cy="327.0353" fill="#FFFFFF" rx="3" ry="3" style="stroke:#000000;stroke-width:1;"/><text fill="#000000" font-family="Verdana" font-size="14" lengthAdjust="spacing" textLength="208.0518" x="271.3782" y="330.382">calculateMetrics(): TestResult</text></g><!--class TestResult--><g class="entity" data-entity="TestResult" data-source-line="27" data-uid="ent0004" id="entity_TestResult"><rect fill="#F0F8FF" height="125.4844" rx="2.5" ry="2.5" style="stroke:#4682B4;stroke-width:1;" width="129.875" x="96.4682" y="414.6894"/><ellipse cx="122.0862" cy="428.6894" fill="#FFFFFF" rx="9" ry="9" style="stroke:#000000;stroke-width:1;"/><path d="M125.055,434.33 Q124.4768,434.6269 123.8362,434.7675 Q123.1956,434.9238 122.4925,434.9238 Q119.9925,434.9238 118.6643,433.2831 Q117.3518,431.6269 117.3518,428.5019 Q117.3518,425.3769 118.6643,423.7206 Q119.9925,422.0644 122.4925,422.0644 Q123.1956,422.0644 123.8362,422.2206 Q124.4925,422.3769 125.055,422.6738 L125.055,425.3925 Q124.43,424.8144 123.8362,424.5488 Q123.2425,424.2675 122.6175,424.2675 Q121.2737,424.2675 120.5862,425.3456 Q119.8987,426.4081 119.8987,428.5019 Q119.8987,430.5956 120.5862,431.6738 Q121.2737,432.7363 122.6175,432.7363 Q123.2425,432.7363 123.8362,432.4706 Q124.43,432.1894 125.055,431.6113 L125.055,434.33 Z " fill="#000000"/><text fill="#000000" font-family="Verdana" font-size="14" lengthAdjust="spacing" textLength="73.835" x="136.8902" y="433.5361">TestResult</text><line style="stroke:#4682B4;stroke-width:1;" x1="97.4682" x2="225.3432" y1="442.6894" y2="442.6894"/><rect fill="none" height="6" style="stroke:#000000;stroke-width:1;" width="6" x="104.4682" y="453.3378"/><text fill="#000000" font-family="Verdana" font-size="14" lengthAdjust="spacing" textLength="74.5938" x="114.4682" y="459.6845">wpm: float</text><rect fill="none" height="6" style="stroke:#000000;stroke-width:1;" width="6" x="104.4682" y="469.6347"/><text fill="#000000" font-family="Verdana" font-size="14" lengthAdjust="spacing" textLength="103.7832" x="114.4682" y="475.9814">accuracy: float</text><rect fill="none" height="6" style="stroke:#000000;stroke-width:1;" width="6" x="104.4682" y="485.9316"/><text fill="#000000" font-family="Verdana" font-size="14" lengthAdjust="spacing" textLength="90.3232" x="114.4682" y="492.2782">mistakes: int</text><line style="stroke:#4682B4;stroke-width:1;" x1="97.4682" x2="225.3432" y1="499.58" y2="499.58"/><ellipse cx="107.4682" cy="513.2284" fill="#FFFFFF" rx="3" ry="3" style="stroke:#000000;stroke-width:1;"/><text fill="#000000" font-family="Verdana" font-size="14" lengthAdjust="spacing" textLength="82.7695" x="114.4682" y="516.5751">save(): bool</text><ellipse cx="107.4682" cy="529.5253" fill="#FFFFFF" rx="3" ry="3" style="stroke:#000000;stroke-width:1;"/><text fill="#000000" font-family="Verdana" font-size="14" lengthAdjust="spacing" textLength="105.875" x="114.4682" y="532.872">export(): string</text></g><!--class DifficultyLevel--><g class="entity" data-entity="DifficultyLevel" data-source-line="36" data-uid="ent0005" id="entity_DifficultyLevel"><rect fill="#F0F8FF" height="92.8906" rx="2.5" ry="2.5" style="stroke:#4682B4;stroke-width:1;" width="127.8525" x="305.4782" y="430.9794"/><ellipse cx="318.4782" cy="444.9794" fill="#FFFFFF" rx="9" ry="9" style="stroke:#000000;stroke-width:1;"/><path d="M322.5876,450.9794 L314.8688,450.9794 L314.8688,438.5888 L322.5876,438.5888 L322.5876,440.745 L317.3219,440.745 L317.3219,443.4169 L322.0876,443.4169 L322.0876,445.5731 L317.3219,445.5731 L317.3219,448.8231 L322.5876,448.8231 L322.5876,450.9794 Z " fill="#000000"/><text fill="#000000" font-family="Verdana" font-size="14" lengthAdjust="spacing" textLength="99.8525" x="330.4782" y="449.8261">DifficultyLevel</text><line style="stroke:#4682B4;stroke-width:1;" x1="306.4782" x2="432.3307" y1="458.9794" y2="458.9794"/><text fill="#000000" font-family="Verdana" font-size="14" lengthAdjust="spacing" textLength="35.8613" x="311.4782" y="475.9745">EASY</text><text fill="#000000" font-family="Verdana" font-size="14" lengthAdjust="spacing" textLength="58.1602" x="311.4782" y="492.2714">MEDIUM</text><text fill="#000000" font-family="Verdana" font-size="14" lengthAdjust="spacing" textLength="40.6123" x="311.4782" y="508.5682">HARD</text><line style="stroke:#4682B4;stroke-width:1;" x1="306.4782" x2="432.3307" y1="515.87" y2="515.87"/></g><!--class TestService--><g class="entity" data-entity="TestService" data-source-line="42" data-uid="ent0006" id="entity_TestService"><rect fill="#F0F8FF" height="76.5938" rx="2.5" ry="2.5" style="stroke:#4682B4;stroke-width:1;" width="196.1084" x="271.3582" y="58.6094"/><ellipse cx="324.8177" cy="72.6094" fill="#FFFFFF" rx="9" ry="9" style="stroke:#000000;stroke-width:1;"/><path d="M327.7864,78.25 Q327.2083,78.5469 326.5677,78.6875 Q325.927,78.8438 325.2239,78.8438 Q322.7239,78.8438 321.3958,77.2031 Q320.0833,75.5469 320.0833,72.4219 Q320.0833,69.2969 321.3958,67.6406 Q322.7239,65.9844 325.2239,65.9844 Q325.927,65.9844 326.5677,66.1406 Q327.2239,66.2969 327.7864,66.5938 L327.7864,69.3125 Q327.1614,68.7344 326.5677,68.4688 Q325.9739,68.1875 325.3489,68.1875 Q324.0052,68.1875 323.3177,69.2656 Q322.6302,70.3281 322.6302,72.4219 Q322.6302,74.5156 323.3177,75.5938 Q324.0052,76.6563 325.3489,76.6563 Q325.9739,76.6563 326.5677,76.3906 Q327.1614,76.1094 327.7864,75.5313 L327.7864,78.25 Z " fill="#000000"/><text fill="#000000" font-family="Verdana" font-size="14" lengthAdjust="spacing" textLength="81.6895" x="342.3177" y="77.4561">TestService</text><line style="stroke:#4682B4;stroke-width:1;" x1="272.3582" x2="466.4666" y1="86.6094" y2="86.6094"/><line style="stroke:#4682B4;stroke-width:1;" x1="272.3582" x2="466.4666" y1="94.6094" y2="94.6094"/><ellipse cx="282.3582" cy="108.2578" fill="#FFFFFF" rx="3" ry="3" style="stroke:#000000;stroke-width:1;"/><text fill="#000000" font-family="Verdana" font-size="14" lengthAdjust="spacing" textLength="172.1084" x="289.3582" y="111.6045">createTest(): TypingTest</text><ellipse cx="282.3582" cy="124.5547" fill="#FFFFFF" rx="3" ry="3" style="stroke:#000000;stroke-width:1;"/><text fill="#000000" font-family="Verdana" font-size="14" lengthAdjust="spacing" textLength="147.9912" x="289.3582" y="127.9014">processResult(): bool</text></g><!--link User to TestResult--><g class="link" data-entity-1="User" data-entity-2="TestResult" data-source-line="47" data-uid="lnk7" id="link_User_TestResult"><path codeLine="47" d="M132.091,345.805 C137.541,370.075 138.0744,372.4767 143.5244,396.7467" fill="none" id="User-TestResult" style="stroke:#000000;stroke-width:1;"/><line style="stroke:#000000;stroke-width:1;" x1="127.3118" x2="135.1174" y1="342.7786" y2="341.0258"/><line style="stroke:#000000;stroke-width:1;" x1="127.9691" x2="135.7747" y1="345.7057" y2="343.9529"/><line style="stroke:#000000;stroke-width:1;" x1="132.091" x2="130.3382" y1="345.805" y2="337.9994"/><line style="stroke:#000000;stroke-width:1;" x1="145.7154" x2="153.3224" y1="406.5038" y2="412.9948"/><line style="stroke:#000000;stroke-width:1;" x1="145.7154" x2="141.614" y1="406.5038" y2="415.624"/><line style="stroke:#000000;stroke-width:1;" x1="145.7154" x2="147.4682" y1="406.5038" y2="414.3094"/><ellipse cx="144.4008" cy="400.6495" fill="none" rx="4" ry="4" style="stroke:#000000;stroke-width:1;"/></g><!--link TypingTest to TestResult--><g class="link" data-entity-1="TypingTest" data-entity-2="TestResult" data-source-line="48" data-uid="lnk8" id="link_TypingTest_TestResult"><path codeLine="48" d="M305.0182,337.9994 C279.8482,362.2694 255.3482,385.8755 230.1682,410.1455" fill="none" id="TypingTest-to-TestResult" style="stroke:#000000;stroke-width:1;"/><polygon fill="#000000" points="225.8482,414.3094,235.1041,410.9436,229.4482,410.8395,229.5523,405.1836,225.8482,414.3094" style="stroke:#000000;stroke-width:1;"/><text fill="#000000" font-family="Verdana" font-size="13" lengthAdjust="spacing" textLength="48.3247" x="272.4082" y="380.7563">creates</text></g><!--link TypingTest to DifficultyLevel--><g class="link" data-entity-1="TypingTest" data-entity-2="DifficultyLevel" data-source-line="49" data-uid="lnk9" id="link_TypingTest_DifficultyLevel"><path codeLine="49" d="M369.4082,337.9994 C369.4082,367.9094 369.4082,397.1294 369.4082,424.5694" fill="none" id="TypingTest-to-DifficultyLevel" style="stroke:#000000;stroke-width:1;"/><polygon fill="#000000" points="369.4082,430.5694,373.4082,421.5694,369.4082,425.5694,365.4082,421.5694,369.4082,430.5694" style="stroke:#000000;stroke-width:1;"/><text fill="#000000" font-family="Verdana" font-size="13" lengthAdjust="spacing" textLength="29.7832" x="370.4082" y="380.7563">uses</text></g><!--link TestService to TypingTest--><g class="link" data-entity-1="TestService" data-entity-2="TypingTest" data-source-line="50" data-uid="lnk10" id="link_TestService_TypingTest"><path codeLine="50" d="M369.4082,135.6694 C369.4082,157.8994 369.4082,180.5494 369.4082,206.0094" fill="none" id="TestService-to-TypingTest" style="stroke:#000000;stroke-width:1;stroke-dasharray:7,7;"/><polygon fill="#000000" points="369.4082,212.0094,373.4082,203.0094,369.4082,207.0094,365.4082,203.0094,369.4082,212.0094" style="stroke:#000000;stroke-width:1;"/><text fill="#000000" font-family="Verdana" font-size="13" lengthAdjust="spacing" textLength="59.8584" x="370.4082" y="178.2663">manages</text></g><!--SRC=[NP9DIyD048Rl-HKZNXH94IaYEGYjDIYq85KF8Xx6pQGEtO-mkwaMzR-xITQG9fVCpZkPUTx97laFKWILHDQ9sxAkqA828T4v-4uWF7CKsuqrjIvkZ3GMZlFp_2hFEytOWcpCJo-lBkRJv3T9F7j9a8Sc7_0WqPV6AaXXJILhAk2cxRuo1SaawKOzEx9nNWfSPC3QnrCT98sACd3Uijx4D2baUPXBszSPO1rSQSy2FPsSPl1kZ8pIXloQN2szQuGdSl7u-jPmTonF-ogqRBIUoDEN7ytth6Z9YlsGjU2oP17wxJDOzF6ITYGF4Pr7wnk4dU4YvWJAK1wOLnG6YH7XWA_FzNoVbSgWb0R_GL28sgBO7sOLXxbRSWFa7WXturtHLsKwo6Wy492krTXPfBYTFRwqmUfsSV-yQiExsNfn2Fv8TiU2uZV1jANWk55Qk_tgernP8yYvpcxF5pgs5-Rd9qtDzt19Wt-NfjV3LMLnb1lNZDrapOqBLGFOoUHwU2ioKAXnG-uF]--></g></svg>