<svg xmlns="http://www.w3.org/2000/svg" xmlns:xlink="http://www.w3.org/1999/xlink" contentStyleType="text/css" data-diagram-type="SEQUENCE" height="1830px" preserveAspectRatio="none" style="width:1255px;height:1830px;background:#FFFFFF;" version="1.1" viewBox="0 0 1255 1830" width="1255px" zoomAndPan="magnify"><title>Flash Typing Test Platform
Typing Test Execution Sequence</title><defs/><g><text fill="#000000" font-family="Verdana" font-size="22" font-weight="bold" lengthAdjust="spacing" textLength="334.2217" x="464.4858" y="35.4209">Flash Typing Test Platform</text><text fill="#000000" font-family="Verdana" font-size="22" font-weight="bold" lengthAdjust="spacing" textLength="402.9609" x="430.1162" y="61.0303">Typing Test Execution Sequence</text><g><title>Typing Test</title><rect fill="#FFFFFF" height="427.7266" style="stroke:#000000;stroke-width:1;" width="10" x="709.2148" y="447.8438"/></g><rect fill="#FFFFFF" height="175.7969" style="stroke:#000000;stroke-width:1;" width="896.8833" x="26" y="563.2422"/><rect fill="#FFFFFF" height="928.9844" style="stroke:#000000;stroke-width:1;" width="1233.1934" x="16" y="753.0391"/><rect fill="#FFFFFF" height="191.9297" style="stroke:#000000;stroke-width:1;" width="960.7573" x="26" y="1424.8281"/><g><title>User</title><rect fill="#000000" fill-opacity="0.00000" height="1594.7734" width="8" x="50.9551" y="154.5156"/><line style="stroke:#495057;stroke-width:1;stroke-dasharray:5,5;" x1="54" x2="54" y1="154.5156" y2="1749.2891"/></g><g><title>Web Browser</title><rect fill="#000000" fill-opacity="0.00000" height="1594.7734" width="8" x="261.5" y="154.5156"/><line style="stroke:#495057;stroke-width:1;stroke-dasharray:5,5;" x1="265.084" x2="265.084" y1="154.5156" y2="1749.2891"/></g><g><title>Test Controller</title><rect fill="#000000" fill-opacity="0.00000" height="1594.7734" width="8" x="516.085" y="154.5156"/><line style="stroke:#495057;stroke-width:1;stroke-dasharray:5,5;" x1="519.2993" x2="519.2993" y1="154.5156" y2="1749.2891"/></g><g><title>Typing Test</title><rect fill="#000000" fill-opacity="0.00000" height="1594.7734" width="8" x="710.2148" y="154.5156"/><line style="stroke:#495057;stroke-width:1;stroke-dasharray:5,5;" x1="713.3291" x2="713.3291" y1="154.5156" y2="1749.2891"/></g><g><title>Database</title><rect fill="#000000" fill-opacity="0.00000" height="1594.7734" width="8" x="922.3569" y="154.5156"/><line style="stroke:#495057;stroke-width:1;stroke-dasharray:5,5;" x1="925.9565" x2="925.9565" y1="154.5156" y2="1749.2891"/></g><g><title>Results Analytics</title><rect fill="#000000" fill-opacity="0.00000" height="1594.7734" width="8" x="1060.748" y="154.5156"/><line style="stroke:#495057;stroke-width:1;stroke-dasharray:5,5;" x1="1064.1455" x2="1064.1455" y1="154.5156" y2="1749.2891"/></g><g class="participant participant-head" data-participant="User"><text fill="#000000" font-family="Verdana" font-size="14" lengthAdjust="spacing" textLength="31.9102" x="36" y="151.2139">User</text><ellipse cx="54.9551" cy="86.2188" fill="#FFFFFF" rx="8" ry="8" style="stroke:#000000;stroke-width:1;"/><path d="M54.9551,94.2188 L54.9551,121.2188 M41.9551,102.2188 L67.9551,102.2188 M54.9551,121.2188 L41.9551,136.2188 M54.9551,121.2188 L67.9551,136.2188" fill="none" style="stroke:#000000;stroke-width:1;"/></g><g class="participant participant-tail" data-participant="User"><text fill="#000000" font-family="Verdana" font-size="14" lengthAdjust="spacing" textLength="31.9102" x="36" y="1761.2842">User</text><ellipse cx="54.9551" cy="1773.5859" fill="#FFFFFF" rx="8" ry="8" style="stroke:#000000;stroke-width:1;"/><path d="M54.9551,1781.5859 L54.9551,1808.5859 M41.9551,1789.5859 L67.9551,1789.5859 M54.9551,1808.5859 L41.9551,1823.5859 M54.9551,1808.5859 L67.9551,1823.5859" fill="none" style="stroke:#000000;stroke-width:1;"/></g><g class="participant participant-head" data-participant="Browser"><rect fill="#FFFFFF" height="30.2969" rx="2.5" ry="2.5" style="stroke:#495057;stroke-width:1;" width="106.832" x="212.084" y="123.2188"/><text fill="#000000" font-family="Verdana" font-size="14" lengthAdjust="spacing" textLength="92.832" x="219.084" y="143.2139">Web Browser</text></g><g class="participant participant-tail" data-participant="Browser"><rect fill="#FFFFFF" height="30.2969" rx="2.5" ry="2.5" style="stroke:#495057;stroke-width:1;" width="106.832" x="212.084" y="1748.2891"/><text fill="#000000" font-family="Verdana" font-size="14" lengthAdjust="spacing" textLength="92.832" x="219.084" y="1768.2842">Web Browser</text></g><g class="participant participant-head" data-participant="Controller"><rect fill="#FFFFFF" height="30.2969" rx="2.5" ry="2.5" style="stroke:#495057;stroke-width:1;" width="117.5713" x="461.2993" y="123.2188"/><text fill="#000000" font-family="Verdana" font-size="14" lengthAdjust="spacing" textLength="103.5713" x="468.2993" y="143.2139">Test Controller</text></g><g class="participant participant-tail" data-participant="Controller"><rect fill="#FFFFFF" height="30.2969" rx="2.5" ry="2.5" style="stroke:#495057;stroke-width:1;" width="117.5713" x="461.2993" y="1748.2891"/><text fill="#000000" font-family="Verdana" font-size="14" lengthAdjust="spacing" textLength="103.5713" x="468.2993" y="1768.2842">Test Controller</text></g><g class="participant participant-head" data-participant="Test"><rect fill="#FFFFFF" height="30.2969" rx="2.5" ry="2.5" style="stroke:#495057;stroke-width:1;" width="95.7715" x="666.3291" y="123.2188"/><text fill="#000000" font-family="Verdana" font-size="14" lengthAdjust="spacing" textLength="81.7715" x="673.3291" y="143.2139">Typing Test</text></g><g class="participant participant-tail" data-participant="Test"><rect fill="#FFFFFF" height="30.2969" rx="2.5" ry="2.5" style="stroke:#495057;stroke-width:1;" width="95.7715" x="666.3291" y="1748.2891"/><text fill="#000000" font-family="Verdana" font-size="14" lengthAdjust="spacing" textLength="81.7715" x="673.3291" y="1768.2842">Typing Test</text></g><g class="participant participant-head" data-participant="DB"><rect fill="#FFFFFF" height="30.2969" rx="2.5" ry="2.5" style="stroke:#495057;stroke-width:1;" width="80.8008" x="885.9565" y="123.2188"/><text fill="#000000" font-family="Verdana" font-size="14" lengthAdjust="spacing" textLength="66.8008" x="892.9565" y="143.2139">Database</text></g><g class="participant participant-tail" data-participant="DB"><rect fill="#FFFFFF" height="30.2969" rx="2.5" ry="2.5" style="stroke:#495057;stroke-width:1;" width="80.8008" x="885.9565" y="1748.2891"/><text fill="#000000" font-family="Verdana" font-size="14" lengthAdjust="spacing" textLength="66.8008" x="892.9565" y="1768.2842">Database</text></g><g class="participant participant-head" data-participant="Analytics"><rect fill="#FFFFFF" height="30.2969" rx="2.5" ry="2.5" style="stroke:#495057;stroke-width:1;" width="133.2051" x="998.1455" y="123.2188"/><text fill="#000000" font-family="Verdana" font-size="14" lengthAdjust="spacing" textLength="119.2051" x="1005.1455" y="143.2139">Results Analytics</text></g><g class="participant participant-tail" data-participant="Analytics"><rect fill="#FFFFFF" height="30.2969" rx="2.5" ry="2.5" style="stroke:#495057;stroke-width:1;" width="133.2051" x="998.1455" y="1748.2891"/><text fill="#000000" font-family="Verdana" font-size="14" lengthAdjust="spacing" textLength="119.2051" x="1005.1455" y="1768.2842">Results Analytics</text></g><g><title>Typing Test</title><rect fill="#FFFFFF" height="427.7266" style="stroke:#000000;stroke-width:1;" width="10" x="709.2148" y="447.8438"/></g><g class="message" data-participant-1="User" data-participant-2="Browser"><polygon fill="#000000" points="253.5,181.6484,263.5,185.6484,253.5,189.6484,257.5,185.6484" style="stroke:#000000;stroke-width:1;"/><line style="stroke:#000000;stroke-width:2;" x1="54.9551" x2="259.5" y1="185.6484" y2="185.6484"/><text fill="#000000" font-family="Verdana" font-size="13" lengthAdjust="spacing" textLength="135.7002" x="61.9551" y="180.5825">Select difficulty level</text></g><g class="message" data-participant-1="Browser" data-participant-2="Controller"><polygon fill="#000000" points="508.085,210.7813,518.085,214.7813,508.085,218.7813,512.085,214.7813" style="stroke:#000000;stroke-width:1;"/><line style="stroke:#000000;stroke-width:2;" x1="265.5" x2="514.085" y1="214.7813" y2="214.7813"/><text fill="#000000" font-family="Verdana" font-size="13" lengthAdjust="spacing" textLength="230.585" x="272.5" y="209.7153">POST /start_test {level: "MEDIUM"}</text></g><g class="message" data-participant-1="Controller" data-participant-2="Test"><polygon fill="#000000" points="702.2148,239.9141,712.2148,243.9141,702.2148,247.9141,706.2148,243.9141" style="stroke:#000000;stroke-width:1;"/><line style="stroke:#000000;stroke-width:2;" x1="520.085" x2="708.2148" y1="243.9141" y2="243.9141"/><text fill="#000000" font-family="Verdana" font-size="13" lengthAdjust="spacing" textLength="170.1299" x="527.085" y="238.8481">createTest(MEDIUM, user)</text></g><g class="message" data-participant-1="Test" data-participant-2="DB"><polygon fill="#000000" points="914.3569,269.0469,924.3569,273.0469,914.3569,277.0469,918.3569,273.0469" style="stroke:#000000;stroke-width:1;"/><line style="stroke:#000000;stroke-width:2;" x1="714.2148" x2="920.3569" y1="273.0469" y2="273.0469"/><text fill="#000000" font-family="Verdana" font-size="13" lengthAdjust="spacing" textLength="149.2271" x="721.2148" y="267.981">fetch test text for level</text></g><g class="message" data-participant-1="DB" data-participant-2="Test"><polygon fill="#000000" points="725.2148,298.1797,715.2148,302.1797,725.2148,306.1797,721.2148,302.1797" style="stroke:#000000;stroke-width:1;"/><line style="stroke:#000000;stroke-width:2;stroke-dasharray:2,2;" x1="719.2148" x2="925.3569" y1="302.1797" y2="302.1797"/><text fill="#000000" font-family="Verdana" font-size="13" lengthAdjust="spacing" textLength="123.2651" x="731.2148" y="297.1138">return test content</text></g><g class="message" data-participant-1="Test" data-participant-2="Controller"><polygon fill="#000000" points="531.085,327.3125,521.085,331.3125,531.085,335.3125,527.085,331.3125" style="stroke:#000000;stroke-width:1;"/><line style="stroke:#000000;stroke-width:2;stroke-dasharray:2,2;" x1="525.085" x2="713.2148" y1="331.3125" y2="331.3125"/><text fill="#000000" font-family="Verdana" font-size="13" lengthAdjust="spacing" textLength="138.106" x="537.085" y="326.2466">test instance created</text></g><g class="message" data-participant-1="Controller" data-participant-2="Browser"><polygon fill="#000000" points="276.5,356.4453,266.5,360.4453,276.5,364.4453,272.5,360.4453" style="stroke:#000000;stroke-width:1;"/><line style="stroke:#000000;stroke-width:2;" x1="270.5" x2="519.085" y1="360.4453" y2="360.4453"/><text fill="#000000" font-family="Verdana" font-size="13" lengthAdjust="spacing" textLength="134.3862" x="282.5" y="355.3794">render test interface</text></g><g class="message" data-participant-1="Browser" data-participant-2="User"><polygon fill="#000000" points="65.9551,385.5781,55.9551,389.5781,65.9551,393.5781,61.9551,389.5781" style="stroke:#000000;stroke-width:1;"/><line style="stroke:#000000;stroke-width:2;stroke-dasharray:2,2;" x1="59.9551" x2="264.5" y1="389.5781" y2="389.5781"/><text fill="#000000" font-family="Verdana" font-size="13" lengthAdjust="spacing" textLength="158.3931" x="71.9551" y="384.5122">display test text &amp; timer</text></g><g class="message" data-participant-1="User" data-participant-2="Browser"><polygon fill="#000000" points="253.5,414.7109,263.5,418.7109,253.5,422.7109,257.5,418.7109" style="stroke:#000000;stroke-width:1;"/><line style="stroke:#000000;stroke-width:2;" x1="54.9551" x2="259.5" y1="418.7109" y2="418.7109"/><text fill="#000000" font-family="Verdana" font-size="13" lengthAdjust="spacing" textLength="75.5562" x="61.9551" y="413.645">start typing</text></g><g class="message" data-participant-1="Browser" data-participant-2="Test"><polygon fill="#000000" points="697.2148,443.8438,707.2148,447.8438,697.2148,451.8438,701.2148,447.8438" style="stroke:#000000;stroke-width:1;"/><line style="stroke:#000000;stroke-width:2;" x1="265.5" x2="703.2148" y1="447.8438" y2="447.8438"/><text fill="#000000" font-family="Verdana" font-size="13" lengthAdjust="spacing" textLength="68.231" x="272.5" y="442.7778">startTest()</text></g><g class="message" data-participant-1="Test" data-participant-2="Test"><line style="stroke:#000000;stroke-width:2;" x1="719.2148" x2="761.2148" y1="476.9766" y2="476.9766"/><line style="stroke:#000000;stroke-width:2;" x1="761.2148" x2="761.2148" y1="476.9766" y2="489.9766"/><line style="stroke:#000000;stroke-width:2;" x1="720.2148" x2="761.2148" y1="489.9766" y2="489.9766"/><polygon fill="#000000" points="730.2148,485.9766,720.2148,489.9766,730.2148,493.9766,726.2148,489.9766" style="stroke:#000000;stroke-width:1;"/><text fill="#000000" font-family="Verdana" font-size="13" lengthAdjust="spacing" textLength="93.0313" x="726.2148" y="471.9106">initialize timer</text></g><g class="message" data-participant-1="Test" data-participant-2="Browser"><polygon fill="#000000" points="276.5,515.1094,266.5,519.1094,276.5,523.1094,272.5,519.1094" style="stroke:#000000;stroke-width:1;"/><line style="stroke:#000000;stroke-width:2;" x1="270.5" x2="708.2148" y1="519.1094" y2="519.1094"/><text fill="#000000" font-family="Verdana" font-size="13" lengthAdjust="spacing" textLength="85.376" x="282.5" y="514.0435">timer started</text></g><g class="message" data-participant-1="Browser" data-participant-2="User"><polygon fill="#000000" points="65.9551,544.2422,55.9551,548.2422,65.9551,552.2422,61.9551,548.2422" style="stroke:#000000;stroke-width:1;"/><line style="stroke:#000000;stroke-width:2;stroke-dasharray:2,2;" x1="59.9551" x2="264.5" y1="548.2422" y2="548.2422"/><text fill="#000000" font-family="Verdana" font-size="13" lengthAdjust="spacing" textLength="109.4844" x="71.9551" y="543.1763">show countdown</text></g><path d="M26,563.2422 L102.624,563.2422 L102.624,570.375 L92.624,580.375 L26,580.375 L26,563.2422" fill="#FFFFFF" style="stroke:#000000;stroke-width:1;"/><rect fill="none" height="175.7969" style="stroke:#000000;stroke-width:1;" width="896.8833" x="26" y="563.2422"/><text fill="#000000" font-family="Verdana" font-size="13" font-weight="bold" lengthAdjust="spacing" textLength="31.624" x="41" y="576.3091">loop</text><text fill="#000000" font-family="Verdana" font-size="11" font-weight="bold" lengthAdjust="spacing" textLength="110.1343" x="117.624" y="575.4526">[Every keystroke]</text><g class="message" data-participant-1="User" data-participant-2="Browser"><polygon fill="#000000" points="253.5,597.5078,263.5,601.5078,253.5,605.5078,257.5,601.5078" style="stroke:#000000;stroke-width:1;"/><line style="stroke:#000000;stroke-width:2;" x1="54.9551" x2="259.5" y1="601.5078" y2="601.5078"/><text fill="#000000" font-family="Verdana" font-size="13" lengthAdjust="spacing" textLength="95.4243" x="61.9551" y="596.4419">type character</text></g><g class="message" data-participant-1="Browser" data-participant-2="Test"><polygon fill="#000000" points="697.2148,626.6406,707.2148,630.6406,697.2148,634.6406,701.2148,630.6406" style="stroke:#000000;stroke-width:1;"/><line style="stroke:#000000;stroke-width:2;" x1="265.5" x2="703.2148" y1="630.6406" y2="630.6406"/><text fill="#000000" font-family="Verdana" font-size="13" lengthAdjust="spacing" textLength="214.9761" x="272.5" y="625.5747">validateCharacter(char, position)</text></g><g class="message" data-participant-1="Test" data-participant-2="Test"><line style="stroke:#000000;stroke-width:2;" x1="719.2148" x2="761.2148" y1="659.7734" y2="659.7734"/><line style="stroke:#000000;stroke-width:2;" x1="761.2148" x2="761.2148" y1="659.7734" y2="672.7734"/><line style="stroke:#000000;stroke-width:2;" x1="720.2148" x2="761.2148" y1="672.7734" y2="672.7734"/><polygon fill="#000000" points="730.2148,668.7734,720.2148,672.7734,730.2148,676.7734,726.2148,672.7734" style="stroke:#000000;stroke-width:1;"/><text fill="#000000" font-family="Verdana" font-size="13" lengthAdjust="spacing" textLength="174.6685" x="726.2148" y="654.7075">calculate real-time metrics</text></g><g class="message" data-participant-1="Test" data-participant-2="Browser"><polygon fill="#000000" points="276.5,697.9063,266.5,701.9063,276.5,705.9063,272.5,701.9063" style="stroke:#000000;stroke-width:1;"/><line style="stroke:#000000;stroke-width:2;" x1="270.5" x2="708.2148" y1="701.9063" y2="701.9063"/><text fill="#000000" font-family="Verdana" font-size="13" lengthAdjust="spacing" textLength="177.3916" x="282.5" y="696.8403">update WPM/CPM/accuracy</text></g><g class="message" data-participant-1="Browser" data-participant-2="User"><polygon fill="#000000" points="65.9551,727.0391,55.9551,731.0391,65.9551,735.0391,61.9551,731.0391" style="stroke:#000000;stroke-width:1;"/><line style="stroke:#000000;stroke-width:2;stroke-dasharray:2,2;" x1="59.9551" x2="264.5" y1="731.0391" y2="731.0391"/><text fill="#000000" font-family="Verdana" font-size="13" lengthAdjust="spacing" textLength="125.9756" x="71.9551" y="725.9731">display live metrics</text></g><path d="M16,753.0391 L80.4429,753.0391 L80.4429,760.1719 L70.4429,770.1719 L16,770.1719 L16,753.0391" fill="#FFFFFF" style="stroke:#000000;stroke-width:1;"/><rect fill="none" height="928.9844" style="stroke:#000000;stroke-width:1;" width="1233.1934" x="16" y="753.0391"/><text fill="#000000" font-family="Verdana" font-size="13" font-weight="bold" lengthAdjust="spacing" textLength="19.4429" x="31" y="766.106">alt</text><text fill="#000000" font-family="Verdana" font-size="11" font-weight="bold" lengthAdjust="spacing" textLength="208.7852" x="95.4429" y="765.2495">[Time expires OR test completed]</text><g class="message" data-participant-1="Test" data-participant-2="Test"><line style="stroke:#000000;stroke-width:2;" x1="719.2148" x2="761.2148" y1="791.3047" y2="791.3047"/><line style="stroke:#000000;stroke-width:2;" x1="761.2148" x2="761.2148" y1="791.3047" y2="804.3047"/><line style="stroke:#000000;stroke-width:2;" x1="720.2148" x2="761.2148" y1="804.3047" y2="804.3047"/><polygon fill="#000000" points="730.2148,800.3047,720.2148,804.3047,730.2148,808.3047,726.2148,804.3047" style="stroke:#000000;stroke-width:1;"/><text fill="#000000" font-family="Verdana" font-size="13" lengthAdjust="spacing" textLength="75.7783" x="726.2148" y="786.2388">stopTimer()</text></g><g class="message" data-participant-1="Test" data-participant-2="Test"><line style="stroke:#000000;stroke-width:2;" x1="719.2148" x2="761.2148" y1="833.4375" y2="833.4375"/><line style="stroke:#000000;stroke-width:2;" x1="761.2148" x2="761.2148" y1="833.4375" y2="846.4375"/><line style="stroke:#000000;stroke-width:2;" x1="720.2148" x2="761.2148" y1="846.4375" y2="846.4375"/><polygon fill="#000000" points="730.2148,842.4375,720.2148,846.4375,730.2148,850.4375,726.2148,846.4375" style="stroke:#000000;stroke-width:1;"/><text fill="#000000" font-family="Verdana" font-size="13" lengthAdjust="spacing" textLength="147.0244" x="726.2148" y="828.3716">calculateFinalMetrics()</text></g><g class="message" data-participant-1="Test" data-participant-2="Controller"><polygon fill="#000000" points="531.085,871.5703,521.085,875.5703,531.085,879.5703,527.085,875.5703" style="stroke:#000000;stroke-width:1;"/><line style="stroke:#000000;stroke-width:2;" x1="525.085" x2="713.2148" y1="875.5703" y2="875.5703"/><text fill="#000000" font-family="Verdana" font-size="13" lengthAdjust="spacing" textLength="148.6113" x="537.085" y="870.5044">submitTest(typedText)</text></g><g class="message" data-participant-1="Controller" data-participant-2="Test"><polygon fill="#000000" points="702.2148,900.7031,712.2148,904.7031,702.2148,908.7031,706.2148,904.7031" style="stroke:#000000;stroke-width:1;"/><line style="stroke:#000000;stroke-width:2;" x1="520.085" x2="708.2148" y1="904.7031" y2="904.7031"/><text fill="#000000" font-family="Verdana" font-size="13" lengthAdjust="spacing" textLength="109.7891" x="527.085" y="899.6372">generateResult()</text></g><g class="message" data-participant-1="Test" data-participant-2="Test"><line style="stroke:#000000;stroke-width:2;" x1="714.2148" x2="756.2148" y1="933.8359" y2="933.8359"/><line style="stroke:#000000;stroke-width:2;" x1="756.2148" x2="756.2148" y1="933.8359" y2="946.8359"/><line style="stroke:#000000;stroke-width:2;" x1="715.2148" x2="756.2148" y1="946.8359" y2="946.8359"/><polygon fill="#000000" points="725.2148,942.8359,715.2148,946.8359,725.2148,950.8359,721.2148,946.8359" style="stroke:#000000;stroke-width:1;"/><text fill="#000000" font-family="Verdana" font-size="13" lengthAdjust="spacing" textLength="198.1421" x="721.2148" y="928.77">calculate WPM, CPM, accuracy</text></g><g class="message" data-participant-1="Test" data-participant-2="Test"><line style="stroke:#000000;stroke-width:2;" x1="714.2148" x2="756.2148" y1="975.9688" y2="975.9688"/><line style="stroke:#000000;stroke-width:2;" x1="756.2148" x2="756.2148" y1="975.9688" y2="988.9688"/><line style="stroke:#000000;stroke-width:2;" x1="715.2148" x2="756.2148" y1="988.9688" y2="988.9688"/><polygon fill="#000000" points="725.2148,984.9688,715.2148,988.9688,725.2148,992.9688,721.2148,988.9688" style="stroke:#000000;stroke-width:1;"/><text fill="#000000" font-family="Verdana" font-size="13" lengthAdjust="spacing" textLength="192.626" x="721.2148" y="970.9028">count mistakes (Levenshtein)</text></g><g class="message" data-participant-1="Test" data-participant-2="Controller"><polygon fill="#000000" points="531.085,1014.1016,521.085,1018.1016,531.085,1022.1016,527.085,1018.1016" style="stroke:#000000;stroke-width:1;"/><line style="stroke:#000000;stroke-width:2;stroke-dasharray:2,2;" x1="525.085" x2="713.2148" y1="1018.1016" y2="1018.1016"/><text fill="#000000" font-family="Verdana" font-size="13" lengthAdjust="spacing" textLength="112.7534" x="537.085" y="1013.0356">TestResult object</text></g><g class="message" data-participant-1="Controller" data-participant-2="DB"><polygon fill="#000000" points="914.3569,1043.2344,924.3569,1047.2344,914.3569,1051.2344,918.3569,1047.2344" style="stroke:#000000;stroke-width:1;"/><line style="stroke:#000000;stroke-width:2;" x1="520.085" x2="920.3569" y1="1047.2344" y2="1047.2344"/><text fill="#000000" font-family="Verdana" font-size="13" lengthAdjust="spacing" textLength="118.3901" x="527.085" y="1042.1685">saveResult(result)</text></g><g class="message" data-participant-1="DB" data-participant-2="Controller"><polygon fill="#000000" points="531.085,1072.3672,521.085,1076.3672,531.085,1080.3672,527.085,1076.3672" style="stroke:#000000;stroke-width:1;"/><line style="stroke:#000000;stroke-width:2;stroke-dasharray:2,2;" x1="525.085" x2="925.3569" y1="1076.3672" y2="1076.3672"/><text fill="#000000" font-family="Verdana" font-size="13" lengthAdjust="spacing" textLength="141.3242" x="537.085" y="1071.3013">result saved (ID: 123)</text></g><g class="message" data-participant-1="Controller" data-participant-2="Analytics"><polygon fill="#000000" points="1052.748,1101.5,1062.748,1105.5,1052.748,1109.5,1056.748,1105.5" style="stroke:#000000;stroke-width:1;"/><line style="stroke:#000000;stroke-width:2;" x1="520.085" x2="1058.748" y1="1105.5" y2="1105.5"/><text fill="#000000" font-family="Verdana" font-size="13" lengthAdjust="spacing" textLength="201.7539" x="527.085" y="1100.4341">generateAnalytics(user, result)</text></g><g class="message" data-participant-1="Analytics" data-participant-2="DB"><polygon fill="#000000" points="937.3569,1130.6328,927.3569,1134.6328,937.3569,1138.6328,933.3569,1134.6328" style="stroke:#000000;stroke-width:1;"/><line style="stroke:#000000;stroke-width:2;" x1="931.3569" x2="1063.748" y1="1134.6328" y2="1134.6328"/><text fill="#000000" font-family="Verdana" font-size="13" lengthAdjust="spacing" textLength="114.3911" x="943.3569" y="1129.5669">fetch user history</text></g><g class="message" data-participant-1="DB" data-participant-2="Analytics"><polygon fill="#000000" points="1052.748,1159.7656,1062.748,1163.7656,1052.748,1167.7656,1056.748,1163.7656" style="stroke:#000000;stroke-width:1;"/><line style="stroke:#000000;stroke-width:2;stroke-dasharray:2,2;" x1="926.3569" x2="1058.748" y1="1163.7656" y2="1163.7656"/><text fill="#000000" font-family="Verdana" font-size="13" lengthAdjust="spacing" textLength="103.835" x="933.3569" y="1158.6997">previous results</text></g><g class="message" data-participant-1="Analytics" data-participant-2="Analytics"><line style="stroke:#000000;stroke-width:2;" x1="1064.748" x2="1106.748" y1="1192.8984" y2="1192.8984"/><line style="stroke:#000000;stroke-width:2;" x1="1106.748" x2="1106.748" y1="1192.8984" y2="1205.8984"/><line style="stroke:#000000;stroke-width:2;" x1="1065.748" x2="1106.748" y1="1205.8984" y2="1205.8984"/><polygon fill="#000000" points="1075.748,1201.8984,1065.748,1205.8984,1075.748,1209.8984,1071.748,1205.8984" style="stroke:#000000;stroke-width:1;"/><text fill="#000000" font-family="Verdana" font-size="13" lengthAdjust="spacing" textLength="165.4453" x="1071.748" y="1187.8325">calculate progress trends</text></g><g class="message" data-participant-1="Analytics" data-participant-2="Controller"><polygon fill="#000000" points="531.085,1231.0313,521.085,1235.0313,531.085,1239.0313,527.085,1235.0313" style="stroke:#000000;stroke-width:1;"/><line style="stroke:#000000;stroke-width:2;stroke-dasharray:2,2;" x1="525.085" x2="1063.748" y1="1235.0313" y2="1235.0313"/><text fill="#000000" font-family="Verdana" font-size="13" lengthAdjust="spacing" textLength="91.5205" x="537.085" y="1229.9653">analytics data</text></g><g class="message" data-participant-1="Controller" data-participant-2="Browser"><polygon fill="#000000" points="276.5,1260.1641,266.5,1264.1641,276.5,1268.1641,272.5,1264.1641" style="stroke:#000000;stroke-width:1;"/><line style="stroke:#000000;stroke-width:2;" x1="270.5" x2="519.085" y1="1264.1641" y2="1264.1641"/><text fill="#000000" font-family="Verdana" font-size="13" lengthAdjust="spacing" textLength="127.7466" x="282.5" y="1259.0981">render results page</text></g><g class="message" data-participant-1="Browser" data-participant-2="User"><polygon fill="#000000" points="65.9551,1289.2969,55.9551,1293.2969,65.9551,1297.2969,61.9551,1293.2969" style="stroke:#000000;stroke-width:1;"/><line style="stroke:#000000;stroke-width:2;stroke-dasharray:2,2;" x1="59.9551" x2="264.5" y1="1293.2969" y2="1293.2969"/><text fill="#000000" font-family="Verdana" font-size="13" lengthAdjust="spacing" textLength="186.5449" x="71.9551" y="1288.231">display performance metrics</text></g><g class="message" data-participant-1="User" data-participant-2="Browser"><polygon fill="#000000" points="253.5,1318.4297,263.5,1322.4297,253.5,1326.4297,257.5,1322.4297" style="stroke:#000000;stroke-width:1;"/><line style="stroke:#000000;stroke-width:2;" x1="54.9551" x2="259.5" y1="1322.4297" y2="1322.4297"/><text fill="#000000" font-family="Verdana" font-size="13" lengthAdjust="spacing" textLength="149.0938" x="61.9551" y="1317.3638">view detailed analytics</text></g><g class="message" data-participant-1="Browser" data-participant-2="Analytics"><polygon fill="#000000" points="1052.748,1347.5625,1062.748,1351.5625,1052.748,1355.5625,1056.748,1351.5625" style="stroke:#000000;stroke-width:1;"/><line style="stroke:#000000;stroke-width:2;" x1="265.5" x2="1058.748" y1="1351.5625" y2="1351.5625"/><text fill="#000000" font-family="Verdana" font-size="13" lengthAdjust="spacing" textLength="158.6216" x="272.5" y="1346.4966">getProgressCharts(user)</text></g><g class="message" data-participant-1="Analytics" data-participant-2="Browser"><polygon fill="#000000" points="276.5,1376.6953,266.5,1380.6953,276.5,1384.6953,272.5,1380.6953" style="stroke:#000000;stroke-width:1;"/><line style="stroke:#000000;stroke-width:2;stroke-dasharray:2,2;" x1="270.5" x2="1063.748" y1="1380.6953" y2="1380.6953"/><text fill="#000000" font-family="Verdana" font-size="13" lengthAdjust="spacing" textLength="114.9941" x="282.5" y="1375.6294">charts and trends</text></g><g class="message" data-participant-1="Browser" data-participant-2="User"><polygon fill="#000000" points="65.9551,1405.8281,55.9551,1409.8281,65.9551,1413.8281,61.9551,1409.8281" style="stroke:#000000;stroke-width:1;"/><line style="stroke:#000000;stroke-width:2;stroke-dasharray:2,2;" x1="59.9551" x2="264.5" y1="1409.8281" y2="1409.8281"/><text fill="#000000" font-family="Verdana" font-size="13" lengthAdjust="spacing" textLength="179.7529" x="71.9551" y="1404.7622">show progress visualization</text></g><path d="M26,1424.8281 L95.4512,1424.8281 L95.4512,1431.9609 L85.4512,1441.9609 L26,1441.9609 L26,1424.8281" fill="#FFFFFF" style="stroke:#000000;stroke-width:1;"/><rect fill="none" height="191.9297" style="stroke:#000000;stroke-width:1;" width="960.7573" x="26" y="1424.8281"/><text fill="#000000" font-family="Verdana" font-size="13" font-weight="bold" lengthAdjust="spacing" textLength="24.4512" x="41" y="1437.895">opt</text><text fill="#000000" font-family="Verdana" font-size="11" font-weight="bold" lengthAdjust="spacing" textLength="118.0298" x="110.4512" y="1437.0386">[Download results]</text><g class="message" data-participant-1="User" data-participant-2="Browser"><polygon fill="#000000" points="253.5,1459.0938,263.5,1463.0938,253.5,1467.0938,257.5,1463.0938" style="stroke:#000000;stroke-width:1;"/><line style="stroke:#000000;stroke-width:2;" x1="54.9551" x2="259.5" y1="1463.0938" y2="1463.0938"/><text fill="#000000" font-family="Verdana" font-size="13" lengthAdjust="spacing" textLength="96.04" x="61.9551" y="1458.0278">click download</text></g><g class="message" data-participant-1="Browser" data-participant-2="Controller"><polygon fill="#000000" points="508.085,1488.2266,518.085,1492.2266,508.085,1496.2266,512.085,1492.2266" style="stroke:#000000;stroke-width:1;"/><line style="stroke:#000000;stroke-width:2;" x1="265.5" x2="514.085" y1="1492.2266" y2="1492.2266"/><text fill="#000000" font-family="Verdana" font-size="13" lengthAdjust="spacing" textLength="147.9385" x="272.5" y="1487.1606">GET /download_results</text></g><g class="message" data-participant-1="Controller" data-participant-2="DB"><polygon fill="#000000" points="914.3569,1517.3594,924.3569,1521.3594,914.3569,1525.3594,918.3569,1521.3594" style="stroke:#000000;stroke-width:1;"/><line style="stroke:#000000;stroke-width:2;" x1="520.085" x2="920.3569" y1="1521.3594" y2="1521.3594"/><text fill="#000000" font-family="Verdana" font-size="13" lengthAdjust="spacing" textLength="121.6973" x="527.085" y="1516.2935">fetch result details</text></g><g class="message" data-participant-1="DB" data-participant-2="Controller"><polygon fill="#000000" points="531.085,1546.4922,521.085,1550.4922,531.085,1554.4922,527.085,1550.4922" style="stroke:#000000;stroke-width:1;"/><line style="stroke:#000000;stroke-width:2;stroke-dasharray:2,2;" x1="525.085" x2="925.3569" y1="1550.4922" y2="1550.4922"/><text fill="#000000" font-family="Verdana" font-size="13" lengthAdjust="spacing" textLength="70.478" x="537.085" y="1545.4263">result data</text></g><g class="message" data-participant-1="Controller" data-participant-2="Browser"><polygon fill="#000000" points="276.5,1575.625,266.5,1579.625,276.5,1583.625,272.5,1579.625" style="stroke:#000000;stroke-width:1;"/><line style="stroke:#000000;stroke-width:2;stroke-dasharray:2,2;" x1="270.5" x2="519.085" y1="1579.625" y2="1579.625"/><text fill="#000000" font-family="Verdana" font-size="13" lengthAdjust="spacing" textLength="79.8599" x="282.5" y="1574.5591">CSV/PDF file</text></g><g class="message" data-participant-1="Browser" data-participant-2="User"><polygon fill="#000000" points="65.9551,1604.7578,55.9551,1608.7578,65.9551,1612.7578,61.9551,1608.7578" style="stroke:#000000;stroke-width:1;"/><line style="stroke:#000000;stroke-width:2;stroke-dasharray:2,2;" x1="59.9551" x2="264.5" y1="1608.7578" y2="1608.7578"/><text fill="#000000" font-family="Verdana" font-size="13" lengthAdjust="spacing" textLength="86.7915" x="71.9551" y="1603.6919">download file</text></g><g class="message" data-participant-1="User" data-participant-2="Browser"><polygon fill="#000000" points="253.5,1640.8906,263.5,1644.8906,253.5,1648.8906,257.5,1644.8906" style="stroke:#000000;stroke-width:1;"/><line style="stroke:#000000;stroke-width:2;" x1="54.9551" x2="259.5" y1="1644.8906" y2="1644.8906"/><text fill="#000000" font-family="Verdana" font-size="13" lengthAdjust="spacing" textLength="112.6582" x="61.9551" y="1639.8247">take another test</text></g><g class="message" data-participant-1="Browser" data-participant-2="Controller"><polygon fill="#000000" points="508.085,1670.0234,518.085,1674.0234,508.085,1678.0234,512.085,1674.0234" style="stroke:#000000;stroke-width:1;"/><line style="stroke:#000000;stroke-width:2;" x1="265.5" x2="514.085" y1="1674.0234" y2="1674.0234"/><text fill="#000000" font-family="Verdana" font-size="13" lengthAdjust="spacing" textLength="159.6372" x="272.5" y="1668.9575">redirect to test selection</text></g><path d="M10,1694.0234 L10,1734.0234 L1110,1734.0234 L1110,1704.0234 L1100,1694.0234 L10,1694.0234" fill="#FFFFFF" style="stroke:#000000;stroke-width:1;"/><path d="M1100,1694.0234 L1100,1704.0234 L1110,1704.0234 L1100,1694.0234" fill="#FFFFFF" style="stroke:#000000;stroke-width:1;"/><text fill="#000000" font-family="Verdana" font-size="13" lengthAdjust="spacing" textLength="205.626" x="440.2305" y="1711.0903">"Complete typing test flow with</text><text fill="#000000" font-family="Verdana" font-size="13" lengthAdjust="spacing" textLength="230.8896" x="440.2305" y="1726.2231">real-time monitoring and analytics"</text><!--SRC=[XLRRRXit47tVhvYgG241Cfoc3OhweK0isK60615YkNa94D2x8oyZYjoGivBLel_U8RbthHm3ahNauSoPCnVkJvJZ3g5GGkh4RQKkX1KxSFYzH9tYMslDOPtBTAlHENWz0laWD_pHU6riXdPXbB7my-z_lddrveyHz4fOagaiXAQn0mb9KWYtIhWSriT2wYTOeoDOAK4ROtTVT7VrvXdJagJHS5_PJnAH4XjyS6YJedK6ay_u2DSS3MzCGBZwTnyKh2wC9ckKge3jum3R4Wau_wEFM0eIZy9Xs5vUzpS_eIiLENYhXJhoiWkevYb9V0XmyLTD5AuuI8KfGIOt6vdouICetADAQWI3MxACNtsyNyEb8tRxbNna_mRy5KpkRfRl7-uc_oL9vm0V3_5VGMfH4Fg7QKJEeMG7ioJiCsvvpQWDKff3C4puJC3vgGZnzaLhpIALLaTWokvGKsLeI3X0f6R6dCgAHJRasEfXKNC5rQS8xKPm1JHgCFOX0ZFfkCAF7Qw_0CaTPtH4vQ0NKCXkLzegch0Tf9dvMfDxvXXpNujJ0QMM98MI_s3bgzvlNONrQ97Z727kSdDWpKfDcJde9576572pHtk4BHuTgxB51FZlD0mEW2NCkVjILYQ0JeFPCx-C0rZKkAa_COV2EEdxQXRE3G9BXUBgys5pWjI53m9sIDPNRHVUSYaBxmG-h-uk5_mHQLgoksEVr6cwbDotbZdNtDoAOEtzuNCXBJhu-AckgrsXqAiuGjYHAVmfEtqvdbl9tNSN_GsWlJ9rvUDEnXhmAcThhgW8px1V4dujV8sssHDgj8oDe-07vBnwSrZuhvv-Gxml5jX9BgejwpFzm0sfNKueUyaSXkHN8mqmZzzuofoZ7ZhVYNrDseP_qNJLzZt3SJ-So63wVda5lxx-RNREUZF-EkeqQrC_W-RGzTZY-qF98o5d4OmzTgbrxHSMzzAKhZBeJWrsqMqU2ckUhByDoS-VasD30KIpnJqWpWL-CjGgKb289_nHdnGy-VXk34EpsuXd9iDUue4hbOHKd9E6tt14z7D1gofiFoeevc8s4dlh9Wr0jfzrbJetv1fLzzALVceAFt_QC4n1iEGPg8p8UXaRZp5L_Cu2MNMW0PwxAT_Ty4LPexyEpOzqG2opghYZbYt-XJveQc1ejyT-SV_tvMfv2nlEq2dtJW7KWZH0FoLVIBqV2fmHmszzyTvCNbB5OiP3bjyuoCGfwy8BYCzBcCPi1y7mRHGypNiLCrbK4xcwIQE1ZU9K7oJbNtJdxZ1yKnhhGRvOceAS_0y0]--></g></svg>