<svg xmlns="http://www.w3.org/2000/svg" xmlns:xlink="http://www.w3.org/1999/xlink" contentStyleType="text/css" data-diagram-type="STATE" height="1373px" preserveAspectRatio="none" style="width:1211px;height:1373px;background:#FFFFFF;" version="1.1" viewBox="0 0 1211 1373" width="1211px" zoomAndPan="magnify"><title>Flash Typing Test Platform
User Session State Diagram</title><defs/><g><g class="title" data-source-line="7"><text fill="#000000" font-family="Verdana" font-size="22" font-weight="bold" lengthAdjust="spacing" textLength="334.2217" x="434.0933" y="35.4209">Flash Typing Test Platform</text><text fill="#000000" font-family="Verdana" font-size="22" font-weight="bold" lengthAdjust="spacing" textLength="346.6396" x="427.8843" y="61.0303">User Session State Diagram</text></g><!--cluster Authenticated--><g class="cluster" data-entity="Authenticated" data-source-line="33" data-uid="ent0005" id="cluster_Authenticated"><path d="M24.5,484.6288 L665.5,484.6288 A12.5,12.5 0 0 1 678,497.1288 L678,552.8319 L12,552.8319 L12,497.1288 A12.5,12.5 0 0 1 24.5,484.6288" fill="#FFFFFF"/><path d="M12,552.8319 L678,552.8319 L678,1347.4188 A12.5,12.5 0 0 1 665.5,1359.9188 L24.5,1359.9188 A12.5,12.5 0 0 1 12,1347.4188 L12,552.8319" fill="#FFFFFF"/><rect fill="none" height="875.29" rx="12.5" ry="12.5" style="stroke:#000000;stroke-width:1;" width="666" x="12" y="484.6288"/><line style="stroke:#000000;stroke-width:1;" x1="12" x2="678" y1="552.8319" y2="552.8319"/><line style="stroke:#000000;stroke-width:1;" x1="12" x2="678" y1="505.9256" y2="505.9256"/><text fill="#000000" font-family="Verdana" font-size="14" lengthAdjust="spacing" textLength="98.9434" x="295.5283" y="501.6239">Authenticated</text><text fill="#000000" font-family="Verdana" font-size="12" lengthAdjust="spacing" textLength="89.0039" x="17" y="519.5643">Logged in user</text><text fill="#000000" font-family="Verdana" font-size="12" lengthAdjust="spacing" textLength="133.1191" x="17" y="533.533">Access to full features</text><text fill="#000000" font-family="Verdana" font-size="12" lengthAdjust="spacing" textLength="163.916" x="17" y="547.5018">Results saved permanently</text></g><!--cluster ActiveTest--><g class="cluster" data-entity="ActiveTest" data-source-line="43" data-uid="ent0007" id="cluster_ActiveTest"><path d="M64.5,590.6288 L320.5,590.6288 A12.5,12.5 0 0 1 333,603.1288 L333,658.8319 L52,658.8319 L52,603.1288 A12.5,12.5 0 0 1 64.5,590.6288" fill="#FFFFFF"/><path d="M52,658.8319 L333,658.8319 L333,1019.0088 A12.5,12.5 0 0 1 320.5,1031.5088 L64.5,1031.5088 A12.5,12.5 0 0 1 52,1019.0088 L52,658.8319" fill="#FFFFFF"/><rect fill="none" height="440.88" rx="12.5" ry="12.5" style="stroke:#000000;stroke-width:1;" width="281" x="52" y="590.6288"/><line style="stroke:#000000;stroke-width:1;" x1="52" x2="333" y1="658.8319" y2="658.8319"/><line style="stroke:#000000;stroke-width:1;" x1="52" x2="333" y1="611.9256" y2="611.9256"/><text fill="#000000" font-family="Verdana" font-size="14" lengthAdjust="spacing" textLength="73.5" x="155.75" y="607.6239">ActiveTest</text><text fill="#000000" font-family="Verdana" font-size="12" lengthAdjust="spacing" textLength="84.791" x="57" y="625.5643">Timer running</text><text fill="#000000" font-family="Verdana" font-size="12" lengthAdjust="spacing" textLength="190.1074" x="57" y="639.533">Real-time WPM/CPM calculation</text><text fill="#000000" font-family="Verdana" font-size="12" lengthAdjust="spacing" textLength="129.2402" x="57" y="653.5018">Keystroke monitoring</text></g><g id="Authenticated.TestSelection"><rect fill="#FFFFFF" height="64.2344" rx="12.5" ry="12.5" style="stroke:#000000;stroke-width:1;" width="152.5449" x="425.73" y="1271.6888"/><line style="stroke:#000000;stroke-width:1;" x1="425.73" x2="578.2749" y1="1297.9856" y2="1297.9856"/><text fill="#000000" font-family="Verdana" font-size="14" lengthAdjust="spacing" textLength="94.4658" x="454.7696" y="1289.6839">TestSelection</text><text fill="#000000" font-family="Verdana" font-size="12" lengthAdjust="spacing" textLength="132.5449" x="430.73" y="1314.1243">Choose difficulty level</text><text fill="#000000" font-family="Verdana" font-size="12" lengthAdjust="spacing" textLength="113.2852" x="430.73" y="1328.093">Easy/Medium/Hard</text></g><g id="Authenticated.TestCompleted"><rect fill="#FFFFFF" height="78.2031" rx="12.5" ry="12.5" style="stroke:#000000;stroke-width:1;" width="154.4199" x="356.79" y="936.2888"/><line style="stroke:#000000;stroke-width:1;" x1="356.79" x2="511.2099" y1="962.5856" y2="962.5856"/><text fill="#000000" font-family="Verdana" font-size="14" lengthAdjust="spacing" textLength="106.3057" x="380.8471" y="954.2839">TestCompleted</text><text fill="#000000" font-family="Verdana" font-size="12" lengthAdjust="spacing" textLength="134.4199" x="361.79" y="978.7243">Calculate final metrics</text><text fill="#000000" font-family="Verdana" font-size="12" lengthAdjust="spacing" textLength="125.6777" x="361.79" y="992.693">WPM, CPM, Accuracy</text><text fill="#000000" font-family="Verdana" font-size="12" lengthAdjust="spacing" textLength="104.7656" x="361.79" y="1006.6618">Save to database</text></g><g id="Authenticated.ViewingResults"><rect fill="#FFFFFF" height="92.1719" rx="12.5" ry="12.5" style="stroke:#000000;stroke-width:1;" width="154.1328" x="361.93" y="1102.5088"/><line style="stroke:#000000;stroke-width:1;" x1="361.93" x2="516.0628" y1="1128.8056" y2="1128.8056"/><text fill="#000000" font-family="Verdana" font-size="14" lengthAdjust="spacing" textLength="106.3604" x="385.8162" y="1120.5039">ViewingResults</text><text fill="#000000" font-family="Verdana" font-size="12" lengthAdjust="spacing" textLength="115.3711" x="366.93" y="1144.9443">Display test results</text><text fill="#000000" font-family="Verdana" font-size="12" lengthAdjust="spacing" textLength="134.1328" x="366.93" y="1158.913">Performance analytics</text><text fill="#000000" font-family="Verdana" font-size="12" lengthAdjust="spacing" textLength="93.2109" x="366.93" y="1172.8818">Progress charts</text><text fill="#000000" font-family="Verdana" font-size="12" lengthAdjust="spacing" textLength="101.4082" x="366.93" y="1186.8505">Download option</text></g><g id="Authenticated.ActiveTest.Typing"><rect fill="#FFFFFF" height="78.2031" rx="12.5" ry="12.5" style="stroke:#000000;stroke-width:1;" width="142.1387" x="159.93" y="781.0888"/><line style="stroke:#000000;stroke-width:1;" x1="159.93" x2="302.0687" y1="807.3856" y2="807.3856"/><text fill="#000000" font-family="Verdana" font-size="14" lengthAdjust="spacing" textLength="47.373" x="207.3128" y="799.0839">Typing</text><text fill="#000000" font-family="Verdana" font-size="12" lengthAdjust="spacing" textLength="119.8711" x="164.93" y="823.5243">User actively typing</text><text fill="#000000" font-family="Verdana" font-size="12" lengthAdjust="spacing" textLength="122.1387" x="164.93" y="837.493">Character validation</text><text fill="#000000" font-family="Verdana" font-size="12" lengthAdjust="spacing" textLength="106.8164" x="164.93" y="851.4618">Mistake detection</text></g><g id="Authenticated.ActiveTest.Paused"><rect fill="#FFFFFF" height="64.2344" rx="12.5" ry="12.5" style="stroke:#000000;stroke-width:1;" width="171.5586" x="106.22" y="943.2788"/><line style="stroke:#000000;stroke-width:1;" x1="106.22" x2="277.7786" y1="969.5756" y2="969.5756"/><text fill="#000000" font-family="Verdana" font-size="14" lengthAdjust="spacing" textLength="50.6885" x="166.6551" y="961.2739">Paused</text><text fill="#000000" font-family="Verdana" font-size="12" lengthAdjust="spacing" textLength="151.5586" x="111.22" y="985.7143">Test temporarily stopped</text><text fill="#000000" font-family="Verdana" font-size="12" lengthAdjust="spacing" textLength="82.3125" x="111.22" y="999.683">Timer paused</text></g><g id="Guest"><rect fill="#FFFFFF" height="78.2031" rx="12.5" ry="12.5" style="stroke:#000000;stroke-width:1;" width="184.4082" x="570.8" y="180.2188"/><line style="stroke:#000000;stroke-width:1;" x1="570.8" x2="755.2082" y1="206.5156" y2="206.5156"/><text fill="#000000" font-family="Verdana" font-size="14" lengthAdjust="spacing" textLength="41.1182" x="642.445" y="198.2139">Guest</text><text fill="#000000" font-family="Verdana" font-size="12" lengthAdjust="spacing" textLength="140.6953" x="575.8" y="222.6543">User browsing platform</text><text fill="#000000" font-family="Verdana" font-size="12" lengthAdjust="spacing" textLength="164.4082" x="575.8" y="236.623">Can view home, about, tips</text><text fill="#000000" font-family="Verdana" font-size="12" lengthAdjust="spacing" textLength="126.9785" x="575.8" y="250.5918">No test results saved</text></g><g id="Registering"><rect fill="#FFFFFF" height="78.2031" rx="12.5" ry="12.5" style="stroke:#000000;stroke-width:1;" width="161.4395" x="364.28" y="335.4288"/><line style="stroke:#000000;stroke-width:1;" x1="364.28" x2="525.7195" y1="361.7256" y2="361.7256"/><text fill="#000000" font-family="Verdana" font-size="14" lengthAdjust="spacing" textLength="79.9189" x="405.0403" y="353.4239">Registering</text><text fill="#000000" font-family="Verdana" font-size="12" lengthAdjust="spacing" textLength="140.7773" x="369.28" y="377.8643">Filling registration form</text><text fill="#000000" font-family="Verdana" font-size="12" lengthAdjust="spacing" textLength="96.1875" x="369.28" y="391.833">Email validation</text><text fill="#000000" font-family="Verdana" font-size="12" lengthAdjust="spacing" textLength="141.4395" x="369.28" y="405.8018">Password requirements</text></g><g id="LoggingIn"><rect fill="#FFFFFF" height="78.2031" rx="12.5" ry="12.5" style="stroke:#000000;stroke-width:1;" width="147.0371" x="947.48" y="335.4288"/><line style="stroke:#000000;stroke-width:1;" x1="947.48" x2="1094.5171" y1="361.7256" y2="361.7256"/><text fill="#000000" font-family="Verdana" font-size="14" lengthAdjust="spacing" textLength="68.79" x="986.6035" y="353.4239">LoggingIn</text><text fill="#000000" font-family="Verdana" font-size="12" lengthAdjust="spacing" textLength="102.5215" x="952.48" y="377.8643">Enter credentials</text><text fill="#000000" font-family="Verdana" font-size="12" lengthAdjust="spacing" textLength="127.0371" x="952.48" y="391.833">Authentication check</text><text fill="#000000" font-family="Verdana" font-size="12" lengthAdjust="spacing" textLength="98.8535" x="952.48" y="405.8018">Session creation</text></g><g id="GuestTesting"><rect fill="#FFFFFF" height="78.2031" rx="12.5" ry="12.5" style="stroke:#000000;stroke-width:1;" width="160.7773" x="729.61" y="335.4288"/><line style="stroke:#000000;stroke-width:1;" x1="729.61" x2="890.3873" y1="361.7256" y2="361.7256"/><text fill="#000000" font-family="Verdana" font-size="14" lengthAdjust="spacing" textLength="92.7158" x="763.6408" y="353.4239">GuestTesting</text><text fill="#000000" font-family="Verdana" font-size="12" lengthAdjust="spacing" textLength="140.7773" x="734.61" y="377.8643">Temporary test session</text><text fill="#000000" font-family="Verdana" font-size="12" lengthAdjust="spacing" textLength="100.1191" x="734.61" y="391.833">No results saved</text><text fill="#000000" font-family="Verdana" font-size="12" lengthAdjust="spacing" textLength="98.4023" x="734.61" y="405.8018">Limited features</text></g><g id="ForgotPassword"><rect fill="#FFFFFF" height="78.2031" rx="12.5" ry="12.5" style="stroke:#000000;stroke-width:1;" width="160.9355" x="791.53" y="625.8888"/><line style="stroke:#000000;stroke-width:1;" x1="791.53" x2="952.4655" y1="652.1856" y2="652.1856"/><text fill="#000000" font-family="Verdana" font-size="14" lengthAdjust="spacing" textLength="111.583" x="816.2063" y="643.8839">ForgotPassword</text><text fill="#000000" font-family="Verdana" font-size="12" lengthAdjust="spacing" textLength="113.3906" x="796.53" y="668.3243">Password recovery</text><text fill="#000000" font-family="Verdana" font-size="12" lengthAdjust="spacing" textLength="104.3555" x="796.53" y="682.293">Email verification</text><text fill="#000000" font-family="Verdana" font-size="12" lengthAdjust="spacing" textLength="140.9355" x="796.53" y="696.2618">Reset token generation</text></g><ellipse cx="663" cy="93.2188" fill="#FFFFFF" rx="10" ry="10" style="stroke:#000000;stroke-width:1;"/><ellipse cx="713" cy="820.1888" fill="none" rx="11" ry="11" style="stroke:#000000;stroke-width:1;"/><ellipse cx="713" cy="820.1888" fill="#FFFFFF" rx="6" ry="6" style="stroke:#000000;stroke-width:1;"/><g class="entity" data-entity="GMN2" data-source-line="104" data-uid="ent0003" id="entity_GMN2"><path d="M790.15,191.6288 L790.15,215.3288 L755.39,219.3288 L790.15,223.3288 L790.15,247.0272 A0,0 0 0 0 790.15,247.0272 L971.8536,247.0272 A0,0 0 0 0 971.8536,247.0272 L971.8536,201.6288 L961.8536,191.6288 L790.15,191.6288 A0,0 0 0 0 790.15,191.6288" fill="#FFFFFF" style="stroke:#000000;stroke-width:1;"/><path d="M961.8536,191.6288 L961.8536,201.6288 L971.8536,201.6288 L961.8536,191.6288" fill="#FFFFFF" style="stroke:#000000;stroke-width:1;"/><text fill="#000000" font-family="Verdana" font-size="13" lengthAdjust="spacing" textLength="149.373" x="796.15" y="208.6956">"Anonymous users can</text><text fill="#000000" font-family="Verdana" font-size="13" lengthAdjust="spacing" textLength="144.1362" x="796.15" y="223.8285">browse and take tests</text><text fill="#000000" font-family="Verdana" font-size="13" lengthAdjust="spacing" textLength="160.7036" x="796.15" y="238.9613">but results aren't saved"</text></g><g class="entity" data-entity="GMN5" data-source-line="106" data-uid="ent0006" id="entity_GMN5"><path d="M758.69,792.4888 L758.69,847.8872 L931.3165,847.8872 L931.3165,802.4888 L921.3165,792.4888 L758.69,792.4888" fill="#FFFFFF" style="stroke:#000000;stroke-width:1;"/><path d="M921.3165,792.4888 L921.3165,802.4888 L931.3165,802.4888 L921.3165,792.4888" fill="#FFFFFF" style="stroke:#000000;stroke-width:1;"/><text fill="#000000" font-family="Verdana" font-size="13" lengthAdjust="spacing" textLength="151.6265" x="764.69" y="809.5556">"Registered users have</text><text fill="#000000" font-family="Verdana" font-size="13" lengthAdjust="spacing" textLength="143.2856" x="764.69" y="824.6885">full access to features</text><text fill="#000000" font-family="Verdana" font-size="13" lengthAdjust="spacing" textLength="128.9526" x="764.69" y="839.8213">and result tracking"</text></g><g class="entity" data-entity="GMN8" data-source-line="108" data-uid="ent0009" id="entity_GMN8"><path d="M987.32,637.2888 L987.32,692.6872 L1174.6794,692.6872 L1174.6794,647.2888 L1164.6794,637.2888 L987.32,637.2888" fill="#FFFFFF" style="stroke:#000000;stroke-width:1;"/><path d="M1164.6794,637.2888 L1164.6794,647.2888 L1174.6794,647.2888 L1164.6794,637.2888" fill="#FFFFFF" style="stroke:#000000;stroke-width:1;"/><text fill="#000000" font-family="Verdana" font-size="13" lengthAdjust="spacing" textLength="154.3306" x="993.32" y="654.3556">"Core testing state with</text><text fill="#000000" font-family="Verdana" font-size="13" lengthAdjust="spacing" textLength="140.48" x="993.32" y="669.4885">real-time calculations</text><text fill="#000000" font-family="Verdana" font-size="13" lengthAdjust="spacing" textLength="166.3594" x="993.32" y="684.6213">and progress monitoring"</text></g><!--link *start* to Guest--><g class="link" data-entity-1=".start." data-entity-2="Guest" data-source-line="9" data-uid="lnk3" id="link_.start._Guest"><path d="M663,103.5488 C663,119.5588 663,147.1188 663,173.8388" fill="none" id="*start*-to-Guest" style="stroke:#000000;stroke-width:1;"/><polygon fill="#000000" points="663,179.8388,667,170.8388,663,174.8388,659,170.8388,663,179.8388" style="stroke:#000000;stroke-width:1;"/><text fill="#000000" font-family="Verdana" font-size="13" lengthAdjust="spacing" textLength="87.1724" x="664" y="146.2856">Visit Platform</text></g><!--link Guest to Registering--><g class="link" data-entity-1="Guest" data-entity-2="Registering" data-source-line="17" data-uid="lnk4" id="link_Guest_Registering"><path d="M570.53,242.2288 C541.58,252.5588 511.17,267.3888 488,288.4288 C474.15,300.9988 466.4806,313.5199 459.6306,329.7699" fill="none" id="Guest-to-Registering" style="stroke:#000000;stroke-width:1;"/><polygon fill="#000000" points="457.3,335.2988,464.4818,328.5592,459.2422,330.6914,457.11,325.4517,457.3,335.2988" style="stroke:#000000;stroke-width:1;"/><text fill="#000000" font-family="Verdana" font-size="13" lengthAdjust="spacing" textLength="89.2163" x="489" y="301.4956">Click Register</text></g><!--link Registering to Guest--><g class="link" data-entity-1="Registering" data-entity-2="Guest" data-source-line="95" data-uid="lnk15" id="link_Registering_Guest"><path d="M364.09,339.5888 C341.38,325.2388 326.6,307.4388 342,288.4288 C370.33,253.4588 479.9999,236.3073 564.3799,227.8473" fill="none" id="Registering-to-Guest" style="stroke:#000000;stroke-width:1;"/><polygon fill="#000000" points="570.35,227.2487,560.9959,224.1665,565.3749,227.7476,561.7939,232.1266,570.35,227.2487" style="stroke:#000000;stroke-width:1;"/><text fill="#000000" font-family="Verdana" font-size="13" lengthAdjust="spacing" textLength="122.0273" x="343" y="301.4956">Registration Failed</text></g><!--link Guest to LoggingIn--><g class="link" data-entity-1="Guest" data-entity-2="LoggingIn" data-source-line="18" data-uid="lnk5" id="link_Guest_LoggingIn"><path d="M755.56,254.1988 C761.42,255.7787 767.27,257.2088 773,258.4288 C811.4,266.5788 1098.45,259.5187 1125,288.4288 C1143.7,308.7887 1128.0551,325.6332 1100.2151,340.9732" fill="none" id="Guest-to-LoggingIn" style="stroke:#000000;stroke-width:1;"/><polygon fill="#000000" points="1094.96,343.8688,1104.773,343.0288,1099.3392,341.4558,1100.9122,336.022,1094.96,343.8688" style="stroke:#000000;stroke-width:1;"/><text fill="#000000" font-family="Verdana" font-size="13" lengthAdjust="spacing" textLength="70.4082" x="1133" y="301.4956">Click Login</text></g><!--link LoggingIn to Guest--><g class="link" data-entity-1="LoggingIn" data-entity-2="Guest" data-source-line="97" data-uid="lnk17" id="link_LoggingIn_Guest"><path d="M1010.93,335.0888 C1004.53,318.1888 994.46,299.6588 979,288.4288 C904.16,234.0287 862.89,280.3288 773,258.4288 C767.31,257.0387 767.2562,257.1375 761.4162,255.4575" fill="none" id="LoggingIn-to-Guest" style="stroke:#000000;stroke-width:1;"/><polygon fill="#000000" points="755.65,253.7988,763.1934,260.131,760.4551,255.181,765.4051,252.4428,755.65,253.7988" style="stroke:#000000;stroke-width:1;"/><text fill="#000000" font-family="Verdana" font-size="13" lengthAdjust="spacing" textLength="78.3491" x="995" y="301.4956">Login Failed</text></g><!--link Guest to GuestTesting--><g class="link" data-entity-1="Guest" data-entity-2="GuestTesting" data-source-line="19" data-uid="lnk6" id="link_Guest_GuestTesting"><path d="M755.38,253.5187 C790.41,267.0287 823.13,281.1488 828,288.4288 C837.15,302.1088 837.1572,313.88 831.9472,329.42" fill="none" id="Guest-to-GuestTesting" style="stroke:#000000;stroke-width:1;"/><polygon fill="#000000" points="830.04,335.1088,836.6934,327.8471,831.6294,330.3681,829.1083,325.3041,830.04,335.1088" style="stroke:#000000;stroke-width:1;"/><text fill="#000000" font-family="Verdana" font-size="13" lengthAdjust="spacing" textLength="135.0845" x="835" y="301.4956">Start Test (No Login)</text></g><!--link GuestTesting to Guest--><g class="link" data-entity-1="GuestTesting" data-entity-2="Guest" data-source-line="100" data-uid="lnk20" id="link_GuestTesting_Guest"><path d="M729.14,356.9588 C701.12,346.9188 672.59,330.8988 656,305.4288 C647.18,291.8888 646.0553,280.3499 648.9153,264.7899" fill="none" id="GuestTesting-to-Guest" style="stroke:#000000;stroke-width:1;"/><polygon fill="#000000" points="650,258.8888,644.4389,267.0174,649.0961,263.8064,652.3071,268.4636,650,258.8888" style="stroke:#000000;stroke-width:1;"/><text fill="#000000" font-family="Verdana" font-size="13" lengthAdjust="spacing" textLength="162.5889" x="657" y="301.4956">Test Complete (No Save)</text></g><!--link TestSelection to ActiveTest--><g class="link" data-entity-1="TestSelection" data-entity-2="ActiveTest" data-source-line="73" data-uid="lnk7" id="link_TestSelection_ActiveTest"><path d="M551.84,1271.4088 C561.46,1262.9688 570.29,1252.9888 576,1241.6888 C594.47,1205.0888 581,1190.5888 581,1149.5988 C581,819.1888 581,819.1888 581,819.1888 C581,757.6238 535.9725,753.8413 481.9588,752.9538 C454.9519,752.51 425.6984,752.79 398.7036,746.9328 C385.2062,744.0042 372.2734,739.5413 360.4684,732.6865 C354.5659,729.2591 348.9454,725.2337 343.6772,720.5032 C341.0431,718.1379 338.4971,715.5963 336.0479,712.8651 C335.4357,712.1822 334.8294,711.4876 334.2294,710.7808 C333.9294,710.4275 337.4521,714.6969 337.1552,714.3375" fill="none" id="TestSelection-to-ActiveTest" style="stroke:#000000;stroke-width:1;"/><polygon fill="#000000" points="333.334,709.7116,335.9818,719.1979,336.5183,713.5665,342.1497,714.103,333.334,709.7116" style="stroke:#000000;stroke-width:1;"/><text fill="#000000" font-family="Verdana" font-size="13" lengthAdjust="spacing" textLength="63.6987" x="582" y="979.9656">Start Test</text></g><!--link ActiveTest to Typing--><g class="link" data-entity-1="ActiveTest" data-entity-2="Typing" data-source-line="74" data-uid="lnk8" id="link_ActiveTest_Typing"><path d="M324.91,665.9888 C321.2,666.0588 202.02,668.6088 158,734.0888 C147.14,750.2488 151.5715,762.6137 166.2915,776.7437" fill="none" id="ActiveTest-to-Typing" style="stroke:#000000;stroke-width:1;"/><polygon fill="#000000" points="170.62,780.8988,166.8973,771.7806,167.0129,777.4362,161.3572,777.5519,170.62,780.8988" style="stroke:#000000;stroke-width:1;"/><text fill="#000000" font-family="Verdana" font-size="13" lengthAdjust="spacing" textLength="85.1411" x="159" y="747.1556">Begin Typing</text></g><!--link Typing to Paused--><g class="link" data-entity-1="Typing" data-entity-2="Paused" data-source-line="75" data-uid="lnk9" id="link_Typing_Paused"><path d="M159.57,844.7488 C139.33,855.0988 119.65,869.5288 108,889.2888 C96.19,909.3288 105.9634,924.5681 126.1234,939.3681" fill="none" id="Typing-to-Paused" style="stroke:#000000;stroke-width:1;"/><polygon fill="#000000" points="130.96,942.9188,126.0722,934.3683,126.9295,939.9599,121.338,940.8171,130.96,942.9188" style="stroke:#000000;stroke-width:1;"/><text fill="#000000" font-family="Verdana" font-size="13" lengthAdjust="spacing" textLength="70.7573" x="109" y="902.3556">Pause Test</text></g><!--link Paused to Typing--><g class="link" data-entity-1="Paused" data-entity-2="Typing" data-source-line="76" data-uid="lnk10" id="link_Paused_Typing"><path d="M200.04,942.8088 C206.2,918.6188 213.2403,890.9734 219.7803,865.2734" fill="none" id="Paused-to-Typing" style="stroke:#000000;stroke-width:1;"/><polygon fill="#000000" points="221.26,859.4588,215.164,867.1943,220.0269,864.3043,222.9169,869.1672,221.26,859.4588" style="stroke:#000000;stroke-width:1;"/><text fill="#000000" font-family="Verdana" font-size="13" lengthAdjust="spacing" textLength="84.646" x="214" y="902.3556">Resume Test</text></g><!--link Typing to TestCompleted--><g class="link" data-entity-1="Typing" data-entity-2="TestCompleted" data-source-line="77" data-uid="lnk11" id="link_Typing_TestCompleted"><path d="M281.96,859.6588 C312.85,882.9688 347.3308,908.9844 378.2308,932.3044" fill="none" id="Typing-to-TestCompleted" style="stroke:#000000;stroke-width:1;"/><polygon fill="#000000" points="383.02,935.9188,378.2458,927.3044,379.029,932.9068,373.4266,933.69,383.02,935.9188" style="stroke:#000000;stroke-width:1;"/><text fill="#000000" font-family="Verdana" font-size="13" lengthAdjust="spacing" textLength="129.4097" x="339" y="902.3556">Time Up / Complete</text></g><!--link TestCompleted to ViewingResults--><g class="link" data-entity-1="TestCompleted" data-entity-2="ViewingResults" data-source-line="78" data-uid="lnk12" id="link_TestCompleted_ViewingResults"><path d="M435.12,1014.8188 C435.88,1040.6488 436.6937,1068.8113 437.4937,1096.0213" fill="none" id="TestCompleted-to-ViewingResults" style="stroke:#000000;stroke-width:1;"/><polygon fill="#000000" points="437.67,1102.0188,441.4038,1092.9051,437.5231,1097.0209,433.4072,1093.1402,437.67,1102.0188" style="stroke:#000000;stroke-width:1;"/><text fill="#000000" font-family="Verdana" font-size="13" lengthAdjust="spacing" textLength="86.7344" x="437" y="1068.5756">Show Results</text></g><!--link ViewingResults to TestSelection--><g class="link" data-entity-1="ViewingResults" data-entity-2="TestSelection" data-source-line="79" data-uid="lnk13" id="link_ViewingResults_TestSelection"><path d="M439.83,1194.9888 C441.42,1210.3188 444.67,1227.2088 451,1241.6888 C455.6,1252.1888 458.7605,1257.6815 466.0905,1266.5615" fill="none" id="ViewingResults-to-TestSelection" style="stroke:#000000;stroke-width:1;"/><polygon fill="#000000" points="469.91,1271.1888,467.2655,1261.7016,466.7271,1267.3327,461.0959,1266.7943,469.91,1271.1888" style="stroke:#000000;stroke-width:1;"/><text fill="#000000" font-family="Verdana" font-size="13" lengthAdjust="spacing" textLength="119.2725" x="452" y="1237.7556">Take Another Test</text></g><!--link Registering to Authenticated--><g class="link" data-entity-1="Registering" data-entity-2="Authenticated" data-source-line="94" data-uid="lnk14" id="link_Registering_Authenticated"><path d="M436.56,413.7888 C434.99,428.9588 435.53,446.1888 442,460.6288 C445.4156,468.2525 449.274,475.7079 453.5077,482.9869 C453.7723,483.4418 450.9901,478.7281 451.2576,479.1816" fill="none" id="Registering-to-Authenticated" style="stroke:#000000;stroke-width:1;"/><polygon fill="#000000" points="454.3059,484.3496,453.1788,474.5655,451.7657,480.043,446.2882,478.6298,454.3059,484.3496" style="stroke:#000000;stroke-width:1;"/><text fill="#000000" font-family="Verdana" font-size="13" lengthAdjust="spacing" textLength="135.4399" x="443" y="456.6956">Registration Success</text></g><!--link LoggingIn to Authenticated--><g class="link" data-entity-1="LoggingIn" data-entity-2="Authenticated" data-source-line="96" data-uid="lnk16" id="link_LoggingIn_Authenticated"><path d="M947.25,401.8888 C934.26,406.0988 920.8,410.1988 908,413.6288 C842.75,431.1188 810.98,400.4788 759,443.6288 C719,476.8338 696.815,530.7338 684.5988,576.9138 C683.0717,582.6863 681.7004,588.3381 680.4696,593.8139 C679.8542,596.5518 679.2739,599.2456 678.7268,601.8885 C678.59,602.5492 678.4553,603.2067 678.3226,603.861 C678.2563,604.1881 679.371,598.6317 679.3057,598.9571" fill="none" id="LoggingIn-to-Authenticated" style="stroke:#000000;stroke-width:1;"/><polygon fill="#000000" points="678.1252,604.8398,683.8177,596.8028,679.1089,599.9376,675.9741,595.2288,678.1252,604.8398" style="stroke:#000000;stroke-width:1;"/><text fill="#000000" font-family="Verdana" font-size="13" lengthAdjust="spacing" textLength="91.7617" x="760" y="456.6956">Login Success</text></g><!--link LoggingIn to ForgotPassword--><g class="link" data-entity-1="LoggingIn" data-entity-2="ForgotPassword" data-source-line="98" data-uid="lnk18" id="link_LoggingIn_ForgotPassword"><path d="M947.12,399.9588 C913.27,412.7988 878.55,428.8888 869,443.6288 C833.43,498.5388 845.1496,572.6279 857.8896,619.6079" fill="none" id="LoggingIn-to-ForgotPassword" style="stroke:#000000;stroke-width:1;"/><polygon fill="#000000" points="859.46,625.3988,860.965,615.6656,858.1514,620.573,853.2439,617.7594,859.46,625.3988" style="stroke:#000000;stroke-width:1;"/><text fill="#000000" font-family="Verdana" font-size="13" lengthAdjust="spacing" textLength="107.7451" x="870" y="456.6956">Forgot Password</text></g><!--link ForgotPassword to LoggingIn--><g class="link" data-entity-1="ForgotPassword" data-entity-2="LoggingIn" data-source-line="99" data-uid="lnk19" id="link_ForgotPassword_LoggingIn"><path d="M884.49,625.6488 C899.64,583.5488 928.41,515.6788 970,468.6288 C974.25,463.8288 977.84,465.5088 982,460.6288 C993.6,447.0288 1000.1931,434.9662 1006.4931,419.2862" fill="none" id="ForgotPassword-to-LoggingIn" style="stroke:#000000;stroke-width:1;"/><polygon fill="#000000" points="1008.73,413.7188,1001.663,420.5786,1006.8659,418.3583,1009.0862,423.5612,1008.73,413.7188" style="stroke:#000000;stroke-width:1;"/><text fill="#000000" font-family="Verdana" font-size="13" lengthAdjust="spacing" textLength="102.5654" x="994" y="456.6956">Password Reset</text></g><!--link Authenticated to Guest--><g class="link" data-entity-1="Authenticated" data-entity-2="Guest" data-source-line="101" data-uid="lnk21" id="link_Authenticated_Guest"><path d="M652.63,484.5375 C652.5798,483.9355 652.5296,483.3329 652.4795,482.7295 C652.3792,481.5228 652.2791,480.3133 652.1791,479.1011 C651.9791,476.6768 651.7796,474.2418 651.5809,471.7971 C651.1835,466.9075 650.7889,461.9787 650.3983,457.0177 C649.617,447.0956 648.8518,437.0444 648.1114,426.9195 C645.15,386.42 642.5875,344.7413 641,305.4288 C640.7,297.8788 639.82,295.8888 641,288.4288 C642.55,278.6088 643.4744,274.0006 646.4944,264.4306" fill="none" id="Authenticated-to-Guest" style="stroke:#000000;stroke-width:1;"/><polygon fill="#000000" points="648.3,258.7088,641.777,266.0878,646.7953,263.477,649.4061,268.4953,648.3,258.7088" style="stroke:#000000;stroke-width:1;"/><text fill="#000000" font-family="Verdana" font-size="13" lengthAdjust="spacing" textLength="44.7383" x="647" y="379.0956">Logout</text></g><!--link Authenticated to *end*--><g class="link" data-entity-1="Authenticated" data-entity-2=".end." data-source-line="102" data-uid="lnk23" id="link_Authenticated_.end."><path d="M678.1425,695.0052 C678.1985,695.2049 678.2548,695.4054 678.3112,695.6065 C678.4241,696.0088 678.5378,696.4139 678.6523,696.8217 C678.8812,697.6374 679.1132,698.4639 679.348,699.3008 C679.8178,700.9745 680.299,702.6892 680.7903,704.4396 C682.7553,711.4413 684.8806,719.0141 687.07,726.815 C695.8275,758.0188 703.9884,787.097 708.6384,803.662" fill="none" id="Authenticated-to-*end*" style="stroke:#000000;stroke-width:1;"/><polygon fill="#000000" points="710.26,809.4388,711.6788,799.6926,708.9087,804.6248,703.9765,801.8547,710.26,809.4388" style="stroke:#000000;stroke-width:1;"/><text fill="#000000" font-family="Verdana" font-size="13" lengthAdjust="spacing" textLength="107.2373" x="693" y="747.1556">Session Timeout</text></g><!--link Authenticated to GMN5--><g class="link" data-entity-1="Authenticated" data-entity-2="GMN5" data-source-line="106" data-uid="lnk7" id="link_Authenticated_GMN5"><path d="M678.2081,667.8478 C678.3186,667.8747 678.4301,667.902 678.5426,667.9296 C678.9925,668.0399 679.4581,668.155 679.939,668.2751 C681.8627,668.7556 684.0303,669.315 686.4102,669.9567 C695.9297,672.5234 708.8456,676.4056 723.1288,681.8075 C751.695,692.6113 785.73,709.4938 809,734.0888 C824.32,750.2888 833.62,773.9888 838.92,792.2588" fill="none" id="Authenticated-GMN5" style="stroke:#000000;stroke-width:1;stroke-dasharray:7,7;"/></g><!--link GMN8 to ActiveTest--><g class="link" data-entity-1="GMN8" data-entity-2="ActiveTest" data-source-line="108" data-uid="lnk10" id="link_GMN8_ActiveTest"><path d="M1074.87,636.9888 C1062.13,586.6588 1027.53,482.3188 952.5,441.1288 C893.48,408.7288 405.52,408.7288 346.5,441.1288 C304.4,464.2388 297.7925,516.8188 302.29,565.215 C302.8522,571.2645 303.5879,577.2487 304.4495,583.1018 C304.6649,584.565 304.8881,586.0201 305.1185,587.4659 C305.2337,588.1889 305.3507,588.9095 305.4694,589.6277" fill="none" id="GMN8-ActiveTest" style="stroke:#000000;stroke-width:1;stroke-dasharray:7,7;"/></g><!--SRC=[VLPDZzis4BthLqoTGvjY5zj3WpO-1F0wwxPejZ3MJdgeS-1AOuamHQeaPKCe_Dyx9FKjEJuOqkXnvitmSORVsGnpX48mBYDpuh9WckLWBBFuaREKNXwLJb33Vn7Gxv75frIhKYPh9PI6DvjVD-ytg_3D0slxp-_V_VJkb-WQHPPRWR0Hp6ImhmekKzYZiR0Lp1wLpW_oio7_EpI6Amax5nhgs57qpuzVuVx-0_nMkZLB-C8DxzP6aMTQVmqK6wJt-ghLnRYGHREY3rap2MUE5yXKZdV0NbLfxy3omWnWVocmxacZAOKrODWP4vTQ03XwBvXoOr6xKEHNyFZKsdgmJofD2VA7R45aeSft2F_awXCyKJMq3VNwWMXuzDicwtxGaFkGneOBuPwqjsfcNNtR8WonJpdZ0ivCyCJZPY1RPio5zfZy_LjoJRgHrhWo13PTRe5BFzSdILuWrfZG6iw4cI1M9IcHliM1PPnXV9g06esGeq2o3TvRZabDO6XRUa_qm2MK98rPo2gEAGHO1STI23XIc99sVHRxqbS35AXp9kcxg3pQ_mLkRlTsA33scGLkxZUqao0ofGn2mez77fFh2WIUKTp4Fp5JFJnZmilyuNUc4m-yZgEl27x6VNS-V2wTSGbxdjFcw59AglCyv0MPkBU4Wx-tpm_hxJF4J137JYgJ9NzYHPfJ9uHSIMwLxZjl7-eAXRRGyVFf1cDza9dtBIgmtZoFN6VKlM8djP6G9yXdqZKZRWdQKCyMThr5Sij8Dic8P6rSXYDgCI-KPfeJJsDLKM1o0-rBNlZNKUJhd7pMAYy4sa7ueTqrix0Z24SkcO0ShUQnkOcddRo3jViZrPTKj-ecT4SITuU2AifUcS5veb-ear9rctFHCHrzM59tDzIFgq5NlOtUedPDYyaOWL5cbUsdDOLhbMftYcDImxVyVbGNAHHBG1Mj0df93O-Rwyq3VNUTEHfftq5ReJrI2vNrQzIJe0ErSl0FdQ_QFl3ZQESzJC_DUBUSkE1p0G_GMAFffhg5auhiCdLf-beqKxCcMhyBxTqnMab5pL47UjV1L6vcMMyuT-DjNn-OMWeczFSv90s_uVYTmNpYENUvjMsxPR9HEbMs7M21oyWu672nEgEkvc7rgAInUAp7rJoEgeRK4wW5IaXHecvdLd-kUc5DHajlOEzAFvGcYvhRoG2y8MfKd6vephdtjuZMxn3RU0sOMNUJH8EXBLyq0emlFkq7Nw1ei8bz2lumDOhrrn_NXzv6mtH6fEa6DmDmjyZk-k0EYCD5f5e4pTFCWZgsNXQaPbdbgZJ-ea2DXCc3z3T9ru0Iy9F32TQGkUpkXKoZ_Du6VIvgxw_AMfKxz-DTM3GRIcyXJaOB3zBVF5Xt4Qd5V90kT0W5jDqnNTRJ9eh0eqzXqA4MQwK3JrVPS10kt6O7gTjntXlZTOIYQP_Ts5xy3m00]--></g></svg>